SeanSans-NarrowBlack.ufo
<glyph name="exclam" format="1">
  <advance width="260"/>
  <unicode hex="0021"/>
  <outline>
    <contour>
      <point x="198" y="229" type="line"/>
      <point x="210" y="722" type="line"/>
      <point x="51" y="722" type="line"/>
      <point x="63" y="229" type="line"/>
    </contour>
    <contour>
      <point x="209" y="62" type="curve"/>
      <point x="209" y="110"/>
      <point x="175" y="134"/>
      <point x="129" y="134" type="curve"/>
      <point x="83" y="134"/>
      <point x="52" y="108"/>
      <point x="52" y="62" type="curve"/>
      <point x="208" y="62"/>
      <point x="52" y="62"/>
      <point x="209" y="62" type="curve"/>
      <point x="209" y="13"/>
      <point x="175" y="-9"/>
      <point x="129" y="-9" type="curve"/>
      <point x="82" y="-9"/>
      <point x="52" y="15"/>
      <point x="52" y="62" type="curve"/>
      <point x="208" y="62"/>
      <point x="52" y="62"/>
    </contour>
  </outline>
</glyph>
<glyph name="quotedbl" format="1">
  <advance width="429"/>
  <unicode hex="0022"/>
  <outline>
    <contour>
      <point x="179" y="623" type="line"/>
      <point x="189" y="845" type="line"/>
      <point x="39" y="845" type="line"/>
      <point x="49" y="623" type="line"/>
    </contour>
    <contour>
      <point x="380" y="623" type="line"/>
      <point x="390" y="845" type="line"/>
      <point x="240" y="845" type="line"/>
      <point x="250" y="623" type="line"/>
    </contour>
  </outline>
</glyph>
<glyph name="numbersign" format="1">
  <advance width="640"/>
  <unicode hex="0023"/>
  <outline>
    <contour>
      <point x="32" y="217" type="curve"/>
      <point x="518" y="217" type="curve"/>
      <point x="551" y="328" type="curve"/>
      <point x="66" y="328" type="curve"/>
    </contour>
    <contour>
      <point x="90" y="429" type="curve"/>
      <point x="579" y="429" type="curve"/>
      <point x="612" y="540" type="curve"/>
      <point x="121" y="540" type="curve"/>
    </contour>
    <contour>
      <point x="420" y="39" type="curve"/>
      <point x="613" y="722" type="curve"/>
      <point x="468" y="722" type="curve"/>
      <point x="274" y="39" type="curve"/>
    </contour>
    <contour>
      <point x="172" y="46" type="curve"/>
      <point x="365" y="722" type="curve"/>
      <point x="220" y="722" type="curve"/>
      <point x="33" y="46" type="curve"/>
    </contour>
  </outline>
</glyph>
<glyph name="dollar" format="1">
  <advance width="539"/>
  <unicode hex="0024"/>
  <outline>
    <contour>
      <point x="321" y="-41" type="curve"/>
      <point x="321" y="-11"/>
      <point x="321" y="67"/>
      <point x="321" y="97" type="curve"/>
      <point x="175" y="97"/>
      <point x="321" y="97"/>
      <point x="175" y="97" type="curve"/>
      <point x="175" y="67"/>
      <point x="175" y="-11"/>
      <point x="175" y="-41" type="curve"/>
      <point x="321" y="-41"/>
      <point x="175" y="-41"/>
    </contour>
    <contour>
      <point x="331" y="632" type="curve"/>
      <point x="331" y="662"/>
      <point x="331" y="743"/>
      <point x="331" y="773" type="curve"/>
      <point x="186" y="773"/>
      <point x="331" y="773"/>
      <point x="186" y="773" type="curve"/>
      <point x="186" y="743"/>
      <point x="186" y="662"/>
      <point x="186" y="632" type="curve"/>
      <point x="331" y="632"/>
      <point x="186" y="632"/>
    </contour>
    <contour>
      <point x="39" y="91" type="curve"/>
      <point x="95" y="63"/>
      <point x="164" y="42"/>
      <point x="241" y="42" type="curve"/>
      <point x="392" y="42"/>
      <point x="513" y="99"/>
      <point x="513" y="221" type="curve"/>
      <point x="513" y="326"/>
      <point x="414" y="376"/>
      <point x="304" y="423" type="curve"/>
      <point x="239" y="450"/>
      <point x="178" y="467"/>
      <point x="178" y="520" type="curve"/>
      <point x="178" y="558"/>
      <point x="213" y="578"/>
      <point x="260" y="578" type="curve"/>
      <point x="313" y="578"/>
      <point x="349" y="565"/>
      <point x="399" y="542" type="curve"/>
      <point x="467" y="636"/>
      <point x="399" y="542"/>
      <point x="467" y="636" type="curve"/>
      <point x="400" y="670"/>
      <point x="345" y="688"/>
      <point x="266" y="688" type="curve"/>
      <point x="133" y="688"/>
      <point x="32" y="631"/>
      <point x="32" y="520" type="curve"/>
      <point x="32" y="418"/>
      <point x="111" y="368"/>
      <point x="218" y="323" type="curve"/>
      <point x="289" y="295"/>
      <point x="368" y="276"/>
      <point x="368" y="216" type="curve"/>
      <point x="368" y="171"/>
      <point x="316" y="152"/>
      <point x="255" y="152" type="curve"/>
      <point x="201" y="152"/>
      <point x="156" y="172"/>
      <point x="113" y="191" type="curve"/>
      <point x="39" y="91"/>
      <point x="113" y="191"/>
    </contour>
  </outline>
</glyph>
<glyph name="percent" format="1">
  <advance width="1084"/>
  <unicode hex="0025"/>
  <outline>
    <contour>
      <point x="421" y="-35" type="line"/>
      <point x="803" y="707" type="line"/>
      <point x="670" y="707" type="line"/>
      <point x="289" y="-35" type="line"/>
    </contour>
    <contour>
      <point x="151" y="491" type="curve"/>
      <point x="151" y="557"/>
      <point x="173" y="607"/>
      <point x="233" y="607" type="curve"/>
      <point x="294" y="608"/>
      <point x="317" y="557"/>
      <point x="317" y="489" type="curve"/>
      <point x="317" y="422"/>
      <point x="300" y="369"/>
      <point x="240" y="369" type="curve"/>
      <point x="176" y="369"/>
      <point x="151" y="421"/>
      <point x="151" y="491" type="curve"/>
      <point x="105" y="491"/>
      <point x="72" y="491"/>
      <point x="25" y="491" type="curve"/>
      <point x="25" y="355"/>
      <point x="102" y="267"/>
      <point x="234" y="267" type="curve"/>
      <point x="370" y="267"/>
      <point x="449" y="356"/>
      <point x="449" y="494" type="curve"/>
      <point x="449" y="627"/>
      <point x="370" y="710"/>
      <point x="239" y="709" type="curve"/>
      <point x="106" y="709"/>
      <point x="25" y="625"/>
      <point x="25" y="491" type="curve"/>
      <point x="72" y="491"/>
      <point x="105" y="491"/>
    </contour>
    <contour>
      <point x="761" y="187" type="curve"/>
      <point x="761" y="253"/>
      <point x="783" y="303"/>
      <point x="843" y="303" type="curve"/>
      <point x="904" y="304"/>
      <point x="927" y="253"/>
      <point x="927" y="185" type="curve"/>
      <point x="927" y="118"/>
      <point x="910" y="65"/>
      <point x="850" y="65" type="curve"/>
      <point x="786" y="65"/>
      <point x="761" y="117"/>
      <point x="761" y="187" type="curve"/>
      <point x="714" y="187"/>
      <point x="682" y="187"/>
      <point x="635" y="187" type="curve"/>
      <point x="635" y="51"/>
      <point x="711" y="-37"/>
      <point x="844" y="-37" type="curve"/>
      <point x="979" y="-37"/>
      <point x="1059" y="52"/>
      <point x="1059" y="190" type="curve"/>
      <point x="1059" y="323"/>
      <point x="980" y="406"/>
      <point x="849" y="405" type="curve"/>
      <point x="715" y="405"/>
      <point x="635" y="321"/>
      <point x="635" y="187" type="curve"/>
      <point x="682" y="187"/>
      <point x="714" y="187"/>
    </contour>
  </outline>
</glyph>
<glyph name="ampersand" format="1">
  <advance width="683"/>
  <unicode hex="0026"/>
  <outline>
    <contour>
      <point x="650" y="55" type="line"/>
      <point x="561" y="150"/>
      <point x="453" y="278"/>
      <point x="359" y="378" type="curve"/>
      <point x="309" y="432"/>
      <point x="241" y="474"/>
      <point x="241" y="549" type="curve"/>
      <point x="241" y="585"/>
      <point x="254" y="617"/>
      <point x="288" y="617" type="curve"/>
      <point x="326" y="617"/>
      <point x="344" y="590"/>
      <point x="344" y="551" type="curve"/>
      <point x="344" y="485"/>
      <point x="297" y="453"/>
      <point x="239" y="420" type="curve"/>
      <point x="137" y="361"/>
      <point x="42" y="315"/>
      <point x="42" y="201" type="curve"/>
      <point x="42" y="69"/>
      <point x="144" y="-5"/>
      <point x="282" y="-5" type="curve"/>
      <point x="470" y="-5"/>
      <point x="575" y="127"/>
      <point x="634" y="312" type="curve"/>
      <point x="509" y="340"/>
      <point x="634" y="312"/>
      <point x="509" y="340" type="curve"/>
      <point x="467" y="212"/>
      <point x="416" y="106"/>
      <point x="289" y="106" type="curve"/>
      <point x="227" y="106"/>
      <point x="187" y="140"/>
      <point x="187" y="201" type="curve"/>
      <point x="187" y="268"/>
      <point x="238" y="297"/>
      <point x="298" y="332" type="curve"/>
      <point x="397" y="390"/>
      <point x="488" y="439"/>
      <point x="489" y="551" type="curve"/>
      <point x="489" y="662"/>
      <point x="407" y="727"/>
      <point x="294" y="727" type="curve"/>
      <point x="181" y="727"/>
      <point x="103" y="660"/>
      <point x="103" y="549" type="curve"/>
      <point x="103" y="445"/>
      <point x="185" y="385"/>
      <point x="256" y="311" type="curve"/>
      <point x="347" y="214"/>
      <point x="469" y="74"/>
      <point x="554" y="-18" type="curve"/>
    </contour>
  </outline>
</glyph>
<glyph name="parenleft" format="1">
  <advance width="366"/>
  <unicode hex="0028"/>
  <outline>
    <contour>
      <point x="365" y="-204" type="curve"/>
      <point x="222" y="-44"/>
      <point x="173" y="110"/>
      <point x="173" y="326" type="curve"/>
      <point x="173" y="543"/>
      <point x="223" y="696"/>
      <point x="364" y="860" type="curve"/>
      <point x="278" y="931"/>
      <point x="364" y="860"/>
      <point x="278" y="931" type="curve"/>
      <point x="111" y="745"/>
      <point x="31" y="578"/>
      <point x="31" y="326" type="curve"/>
      <point x="31" y="73"/>
      <point x="112" y="-94"/>
      <point x="279" y="-282" type="curve"/>
      <point x="365" y="-204"/>
      <point x="279" y="-282"/>
    </contour>
  </outline>
</glyph>
<glyph name="parenright" format="1">
  <advance width="376"/>
  <unicode hex="0029"/>
  <outline>
    <contour>
      <point x="84" y="-295" type="curve"/>
      <point x="254" y="-100"/>
      <point x="344" y="68"/>
      <point x="344" y="329" type="curve"/>
      <point x="344" y="584"/>
      <point x="261" y="749"/>
      <point x="88" y="934" type="curve"/>
      <point x="2" y="856"/>
      <point x="88" y="934"/>
      <point x="2" y="856" type="curve"/>
      <point x="148" y="694"/>
      <point x="202" y="543"/>
      <point x="202" y="324" type="curve"/>
      <point x="202" y="101"/>
      <point x="140" y="-52"/>
      <point x="-1" y="-224" type="curve"/>
      <point x="84" y="-295"/>
      <point x="-1" y="-224"/>
    </contour>
  </outline>
</glyph>
<glyph name="asterisk" format="1">
  <advance width="526"/>
  <unicode hex="002A"/>
  <outline>
    <contour>
      <point x="308" y="560" type="line"/>
      <point x="315" y="782" type="line"/>
      <point x="209" y="782" type="line"/>
      <point x="216" y="560" type="line"/>
    </contour>
    <contour>
      <point x="279" y="516" type="line"/>
      <point x="490" y="585" type="line"/>
      <point x="454" y="684" type="line"/>
      <point x="248" y="602" type="line"/>
    </contour>
    <contour>
      <point x="228" y="528" type="line"/>
      <point x="366" y="353" type="line"/>
      <point x="446" y="421" type="line"/>
      <point x="298" y="586" type="line"/>
    </contour>
    <contour>
      <point x="226" y="587" type="line"/>
      <point x="78" y="421" type="line"/>
      <point x="159" y="353" type="line"/>
      <point x="296" y="528" type="line"/>
    </contour>
    <contour>
      <point x="276" y="602" type="line"/>
      <point x="70" y="684" type="line"/>
      <point x="34" y="585" type="line"/>
      <point x="245" y="516" type="line"/>
    </contour>
  </outline>
</glyph>
<glyph name="plus" format="1">
  <advance width="608"/>
  <unicode hex="002B"/>
  <outline>
    <contour>
      <point x="32" y="254" type="curve"/>
      <point x="575" y="254" type="line"/>
      <point x="575" y="375"/>
      <point x="575" y="254"/>
      <point x="575" y="375" type="curve"/>
      <point x="32" y="375" type="line"/>
      <point x="32" y="254"/>
      <point x="32" y="375"/>
    </contour>
    <contour>
      <point x="373" y="47" type="curve"/>
      <point x="373" y="581" type="line"/>
      <point x="228" y="581"/>
      <point x="383" y="581"/>
      <point x="237" y="581" type="curve"/>
      <point x="237" y="47" type="line"/>
      <point x="383" y="47"/>
      <point x="228" y="47"/>
    </contour>
  </outline>
</glyph>
<glyph name="hyphen" format="1">
  <advance width="363"/>
  <unicode hex="002D"/>
  <outline>
    <contour>
      <point x="51" y="223" type="curve"/>
      <point x="138" y="223"/>
      <point x="225" y="223"/>
      <point x="312" y="223" type="curve"/>
      <point x="312" y="344"/>
      <point x="312" y="223"/>
      <point x="312" y="344" type="curve"/>
      <point x="225" y="344"/>
      <point x="138" y="344"/>
      <point x="51" y="344" type="curve"/>
      <point x="51" y="223"/>
      <point x="51" y="344"/>
    </contour>
  </outline>
</glyph>
<glyph name="period" format="1">
  <advance width="245"/>
  <unicode hex="002E"/>
  <outline>
    <contour>
      <point x="201" y="62" type="curve"/>
      <point x="201" y="110"/>
      <point x="167" y="134"/>
      <point x="121" y="134" type="curve"/>
      <point x="75" y="134"/>
      <point x="44" y="108"/>
      <point x="44" y="62" type="curve"/>
      <point x="201" y="62"/>
      <point x="44" y="62"/>
      <point x="201" y="62" type="curve"/>
      <point x="201" y="13"/>
      <point x="168" y="-9"/>
      <point x="121" y="-9" type="curve"/>
      <point x="74" y="-9"/>
      <point x="44" y="15"/>
      <point x="44" y="62" type="curve"/>
      <point x="201" y="62"/>
      <point x="44" y="62"/>
    </contour>
  </outline>
</glyph>
<glyph name="slash" format="1">
  <advance width="563"/>
  <unicode hex="002F"/>
  <outline>
    <contour>
      <point x="164" y="-13" type="curve"/>
      <point x="290" y="252"/>
      <point x="418" y="517"/>
      <point x="545" y="782" type="curve"/>
      <point x="399" y="782"/>
      <point x="545" y="782"/>
      <point x="399" y="782" type="curve"/>
      <point x="272" y="517"/>
      <point x="145" y="252"/>
      <point x="18" y="-13" type="curve"/>
      <point x="164" y="-13"/>
      <point x="18" y="-13"/>
    </contour>
  </outline>
</glyph>
<glyph name="zero" format="1">
  <advance width="679"/>
  <unicode hex="0030"/>
  <outline>
    <contour>
      <point x="184" y="360" type="curve"/>
      <point x="184" y="503"/>
      <point x="222" y="612"/>
      <point x="335" y="612" type="curve"/>
      <point x="452" y="612"/>
      <point x="496" y="507"/>
      <point x="496" y="363" type="curve"/>
      <point x="496" y="220"/>
      <point x="459" y="111"/>
      <point x="346" y="111" type="curve"/>
      <point x="226" y="111"/>
      <point x="184" y="216"/>
      <point x="184" y="360" type="curve"/>
      <point x="40" y="360"/>
      <point x="184" y="360"/>
      <point x="40" y="360" type="curve"/>
      <point x="40" y="142"/>
      <point x="139" y="-5"/>
      <point x="340" y="-5" type="curve"/>
      <point x="542" y="-5"/>
      <point x="639" y="142"/>
      <point x="639" y="363" type="curve"/>
      <point x="639" y="580"/>
      <point x="546" y="727"/>
      <point x="348" y="727" type="curve"/>
      <point x="144" y="727"/>
      <point x="40" y="581"/>
      <point x="40" y="360" type="curve"/>
      <point x="184" y="360"/>
      <point x="40" y="360"/>
    </contour>
  </outline>
</glyph>
<glyph name="two" format="1">
  <advance width="555"/>
  <unicode hex="0032"/>
  <outline>
    <contour>
      <point x="35" y="0" type="curve"/>
      <point x="229" y="0"/>
      <point x="396" y="0"/>
      <point x="521" y="0" type="curve"/>
      <point x="521" y="110"/>
      <point x="521" y="0"/>
      <point x="521" y="110" type="curve"/>
      <point x="373" y="110"/>
      <point x="184" y="111"/>
      <point x="36" y="111" type="curve"/>
      <point x="35" y="0"/>
      <point x="36" y="110"/>
    </contour>
    <contour>
      <point x="134" y="515" type="curve"/>
      <point x="176" y="572"/>
      <point x="205" y="612"/>
      <point x="267" y="612" type="curve"/>
      <point x="330" y="612"/>
      <point x="361" y="571"/>
      <point x="361" y="502" type="curve"/>
      <point x="361" y="408"/>
      <point x="304" y="349"/>
      <point x="231" y="284" type="curve"/>
      <point x="166" y="225"/>
      <point x="104" y="171"/>
      <point x="36" y="111" type="curve"/>
      <point x="36" y="0"/>
      <point x="36" y="110"/>
      <point x="36" y="0" type="curve"/>
      <point x="180" y="58"/>
      <point x="251" y="134"/>
      <point x="324" y="201" type="curve"/>
      <point x="429" y="292"/>
      <point x="498" y="369"/>
      <point x="498" y="508" type="curve"/>
      <point x="498" y="649"/>
      <point x="415" y="727"/>
      <point x="273" y="727" type="curve"/>
      <point x="162" y="727"/>
      <point x="84" y="672"/>
      <point x="36" y="576" type="curve"/>
      <point x="134" y="515"/>
      <point x="36" y="576"/>
    </contour>
  </outline>
</glyph>
<glyph name="three" format="1">
  <advance width="520"/>
  <unicode hex="0033"/>
  <outline>
    <contour>
      <point x="29" y="58" type="curve"/>
      <point x="83" y="20"/>
      <point x="141" y="-5"/>
      <point x="219" y="-5" type="curve"/>
      <point x="376" y="-5"/>
      <point x="482" y="61"/>
      <point x="482" y="213" type="curve"/>
      <point x="482" y="345"/>
      <point x="346" y="411"/>
      <point x="145" y="411" type="curve"/>
      <point x="145" y="318"/>
      <point x="145" y="410"/>
      <point x="145" y="317" type="curve"/>
      <point x="253" y="317"/>
      <point x="343" y="280"/>
      <point x="343" y="208" type="curve"/>
      <point x="343" y="139"/>
      <point x="289" y="111"/>
      <point x="224" y="111" type="curve"/>
      <point x="184" y="111"/>
      <point x="144" y="122"/>
      <point x="103" y="145" type="curve"/>
      <point x="29" y="58"/>
      <point x="103" y="145"/>
    </contour>
    <contour>
      <point x="115" y="560" type="curve"/>
      <point x="136" y="584"/>
      <point x="174" y="612"/>
      <point x="216" y="612" type="curve"/>
      <point x="276" y="612"/>
      <point x="314" y="585"/>
      <point x="314" y="524" type="curve"/>
      <point x="314" y="462"/>
      <point x="240" y="428"/>
      <point x="145" y="428" type="curve"/>
      <point x="145" y="335"/>
      <point x="145" y="428"/>
      <point x="145" y="335" type="curve"/>
      <point x="319" y="335"/>
      <point x="451" y="398"/>
      <point x="451" y="529" type="curve"/>
      <point x="451" y="661"/>
      <point x="361" y="727"/>
      <point x="228" y="727" type="curve"/>
      <point x="142" y="727"/>
      <point x="66" y="685"/>
      <point x="29" y="636" type="curve"/>
      <point x="115" y="560"/>
      <point x="29" y="636"/>
    </contour>
  </outline>
</glyph>
<glyph name="four" format="1">
  <advance width="558"/>
  <unicode hex="0034"/>
  <outline>
    <contour>
      <point x="64" y="245" type="line"/>
      <point x="397" y="680" type="line"/>
      <point x="279" y="696" type="line"/>
      <point x="8" y="348" type="line"/>
    </contour>
    <contour>
      <point x="528" y="348" type="line"/>
      <point x="8" y="348" type="line"/>
      <point x="9" y="226" type="line"/>
      <point x="528" y="226" type="line"/>
    </contour>
    <contour>
      <point x="424" y="0" type="line"/>
      <point x="424" y="696" type="line"/>
      <point x="281" y="696" type="line"/>
      <point x="281" y="0" type="line"/>
    </contour>
  </outline>
</glyph>
<glyph name="five" format="1">
  <advance width="519"/>
  <unicode hex="0035"/>
  <outline>
    <contour>
      <point x="56" y="722" type="curve"/>
      <point x="56" y="626"/>
      <point x="56" y="517"/>
      <point x="56" y="376" type="curve"/>
      <point x="195" y="336"/>
      <point x="56" y="376"/>
      <point x="194" y="336" type="curve"/>
      <point x="194" y="424"/>
      <point x="194" y="524"/>
      <point x="194" y="612" type="curve"/>
      <point x="56" y="722"/>
      <point x="194" y="612"/>
    </contour>
    <contour>
      <point x="194" y="336" type="curve"/>
      <point x="206" y="347"/>
      <point x="229" y="356"/>
      <point x="253" y="356" type="curve"/>
      <point x="319" y="356"/>
      <point x="345" y="309"/>
      <point x="345" y="240" type="curve"/>
      <point x="345" y="167"/>
      <point x="302" y="110"/>
      <point x="232" y="110" type="curve"/>
      <point x="185" y="110"/>
      <point x="150" y="119"/>
      <point x="107" y="142" type="curve"/>
      <point x="37" y="43"/>
      <point x="107" y="142"/>
      <point x="37" y="43" type="curve"/>
      <point x="92" y="12"/>
      <point x="161" y="-5"/>
      <point x="237" y="-5" type="curve"/>
      <point x="379" y="-5"/>
      <point x="486" y="93"/>
      <point x="486" y="242" type="curve"/>
      <point x="486" y="380"/>
      <point x="405" y="474"/>
      <point x="269" y="474" type="curve"/>
      <point x="207" y="474"/>
      <point x="144" y="453"/>
      <point x="83" y="377" type="curve"/>
      <point x="197" y="343"/>
      <point x="80" y="369"/>
    </contour>
    <contour>
      <point x="455" y="722" type="curve"/>
      <point x="327" y="722"/>
      <point x="178" y="722"/>
      <point x="56" y="722" type="curve"/>
      <point x="194" y="612"/>
      <point x="56" y="722"/>
      <point x="194" y="612" type="curve"/>
      <point x="270" y="612"/>
      <point x="373" y="612"/>
      <point x="455" y="612" type="curve"/>
      <point x="455" y="722"/>
      <point x="455" y="612"/>
    </contour>
  </outline>
</glyph>
<glyph name="six" format="1">
  <advance width="573"/>
  <unicode hex="0036"/>
  <outline>
    <contour>
      <point x="153" y="213" type="curve"/>
      <point x="179" y="288"/>
      <point x="224" y="335"/>
      <point x="299" y="335" type="curve"/>
      <point x="366" y="335"/>
      <point x="398" y="294"/>
      <point x="398" y="226" type="curve"/>
      <point x="398" y="160"/>
      <point x="364" y="119"/>
      <point x="301" y="119" type="curve"/>
      <point x="218" y="119"/>
      <point x="174" y="174"/>
      <point x="174" y="260" type="curve"/>
      <point x="174" y="461"/>
      <point x="305" y="560"/>
      <point x="511" y="622" type="curve"/>
      <point x="474" y="728"/>
      <point x="511" y="622"/>
      <point x="474" y="728" type="curve"/>
      <point x="220" y="655"/>
      <point x="35" y="520"/>
      <point x="35" y="254" type="curve"/>
      <point x="35" y="89"/>
      <point x="133" y="-12"/>
      <point x="297" y="-12" type="curve"/>
      <point x="449" y="-12"/>
      <point x="543" y="76"/>
      <point x="543" y="226" type="curve"/>
      <point x="543" y="370"/>
      <point x="456" y="451"/>
      <point x="320" y="451" type="curve"/>
      <point x="185" y="451"/>
      <point x="102" y="338"/>
      <point x="76" y="249" type="curve"/>
      <point x="153" y="213"/>
      <point x="76" y="249"/>
    </contour>
  </outline>
</glyph>
<glyph name="seven" format="1">
  <advance width="512"/>
  <unicode hex="0037"/>
  <outline>
    <contour>
      <point x="41" y="612" type="curve"/>
      <point x="496" y="612" type="curve"/>
      <point x="496" y="722" type="curve"/>
      <point x="41" y="722" type="curve"/>
    </contour>
    <contour>
      <point x="404" y="722" type="curve"/>
      <point x="33" y="0" type="curve"/>
      <point x="192" y="0" type="curve"/>
      <point x="496" y="612" type="curve"/>
    </contour>
  </outline>
</glyph>
<glyph name="eight" format="1">
  <advance width="569"/>
  <unicode hex="0038"/>
  <outline>
    <contour>
      <point x="57" y="536" type="curve"/>
      <point x="57" y="424"/>
      <point x="139" y="389"/>
      <point x="242" y="339" type="curve"/>
      <point x="322" y="299"/>
      <point x="386" y="274"/>
      <point x="386" y="195" type="curve"/>
      <point x="386" y="138"/>
      <point x="348" y="110"/>
      <point x="286" y="110" type="curve"/>
      <point x="221" y="110"/>
      <point x="182" y="137"/>
      <point x="182" y="195" type="curve"/>
      <point x="182" y="276"/>
      <point x="249" y="298"/>
      <point x="329" y="338" type="curve"/>
      <point x="429" y="390"/>
      <point x="512" y="424"/>
      <point x="512" y="534" type="curve"/>
      <point x="512" y="666"/>
      <point x="425" y="727"/>
      <point x="286" y="727" type="curve"/>
      <point x="149" y="727"/>
      <point x="57" y="665"/>
      <point x="57" y="536" type="curve"/>
      <point x="199" y="536"/>
      <point x="57" y="536"/>
      <point x="199" y="536" type="curve"/>
      <point x="199" y="584"/>
      <point x="228" y="613"/>
      <point x="281" y="613" type="curve"/>
      <point x="337" y="613"/>
      <point x="370" y="587"/>
      <point x="370" y="534" type="curve"/>
      <point x="370" y="466"/>
      <point x="309" y="449"/>
      <point x="241" y="416" type="curve"/>
      <point x="127" y="359"/>
      <point x="40" y="318"/>
      <point x="40" y="195" type="curve"/>
      <point x="40" y="58"/>
      <point x="134" y="-5"/>
      <point x="278" y="-5" type="curve"/>
      <point x="427" y="-5"/>
      <point x="529" y="55"/>
      <point x="529" y="195" type="curve"/>
      <point x="529" y="317"/>
      <point x="441" y="361"/>
      <point x="330" y="416" type="curve"/>
      <point x="261" y="451"/>
      <point x="199" y="467"/>
      <point x="199" y="536" type="curve"/>
      <point x="57" y="536"/>
      <point x="199" y="536"/>
    </contour>
  </outline>
</glyph>
<glyph name="nine" format="1">
  <advance width="572"/>
  <unicode hex="0039"/>
  <outline>
    <contour>
      <point x="425" y="482" type="curve"/>
      <point x="394" y="411"/>
      <point x="352" y="387"/>
      <point x="280" y="387" type="curve"/>
      <point x="210" y="387"/>
      <point x="169" y="430"/>
      <point x="169" y="502" type="curve"/>
      <point x="169" y="565"/>
      <point x="207" y="602"/>
      <point x="268" y="602" type="curve"/>
      <point x="353" y="602"/>
      <point x="397" y="549"/>
      <point x="397" y="462" type="curve"/>
      <point x="397" y="262"/>
      <point x="270" y="161"/>
      <point x="69" y="99" type="curve"/>
      <point x="118" y="-12"/>
      <point x="69" y="99"/>
      <point x="117" y="-12" type="curve"/>
      <point x="355" y="54"/>
      <point x="535" y="202"/>
      <point x="535" y="468" type="curve"/>
      <point x="535" y="633"/>
      <point x="437" y="734"/>
      <point x="273" y="734" type="curve"/>
      <point x="122" y="734"/>
      <point x="28" y="646"/>
      <point x="28" y="496" type="curve"/>
      <point x="28" y="352"/>
      <point x="121" y="271"/>
      <point x="267" y="271" type="curve"/>
      <point x="390" y="271"/>
      <point x="458" y="363"/>
      <point x="495" y="451" type="curve"/>
      <point x="425" y="482"/>
      <point x="495" y="451"/>
    </contour>
  </outline>
</glyph>
<glyph name="colon" format="1">
  <advance width="258"/>
  <unicode hex="003A"/>
  <outline>
    <contour>
      <point x="207" y="366" type="curve"/>
      <point x="207" y="415"/>
      <point x="173" y="438"/>
      <point x="128" y="438" type="curve"/>
      <point x="81" y="438"/>
      <point x="51" y="412"/>
      <point x="51" y="366" type="curve"/>
      <point x="207" y="366"/>
      <point x="51" y="366"/>
      <point x="207" y="366" type="curve"/>
      <point x="207" y="317"/>
      <point x="174" y="295"/>
      <point x="127" y="295" type="curve"/>
      <point x="80" y="295"/>
      <point x="51" y="319"/>
      <point x="51" y="366" type="curve"/>
      <point x="207" y="366"/>
      <point x="51" y="366"/>
    </contour>
    <contour>
      <point x="207" y="65" type="curve"/>
      <point x="207" y="113"/>
      <point x="173" y="137"/>
      <point x="127" y="137" type="curve"/>
      <point x="81" y="137"/>
      <point x="50" y="111"/>
      <point x="50" y="65" type="curve"/>
      <point x="207" y="65"/>
      <point x="50" y="65"/>
      <point x="207" y="65" type="curve"/>
      <point x="207" y="15"/>
      <point x="174" y="-6"/>
      <point x="127" y="-6" type="curve"/>
      <point x="80" y="-6"/>
      <point x="50" y="18"/>
      <point x="50" y="65" type="curve"/>
      <point x="207" y="65"/>
      <point x="50" y="65"/>
    </contour>
  </outline>
</glyph>
<glyph name="semicolon" format="1">
  <advance width="249"/>
  <unicode hex="003B"/>
  <outline>
    <contour>
      <point x="17" y="-202" type="line"/>
      <point x="126" y="-202"/>
      <point x="198" y="-131"/>
      <point x="198" y="-25" type="curve"/>
      <point x="198" y="61"/>
      <point x="160" y="111"/>
      <point x="105" y="111" type="curve"/>
      <point x="57" y="111"/>
      <point x="23" y="86"/>
      <point x="23" y="39" type="curve"/>
      <point x="23" y="-2"/>
      <point x="51" y="-30"/>
      <point x="97" y="-30" type="curve"/>
      <point x="96" y="-63"/>
      <point x="89" y="-113"/>
      <point x="17" y="-124" type="curve"/>
    </contour>
    <contour>
      <point x="181" y="377" type="curve"/>
      <point x="181" y="425"/>
      <point x="147" y="449"/>
      <point x="102" y="449" type="curve"/>
      <point x="56" y="449"/>
      <point x="25" y="423"/>
      <point x="25" y="377" type="curve"/>
      <point x="181" y="377"/>
      <point x="25" y="377"/>
      <point x="181" y="377" type="curve"/>
      <point x="181" y="328"/>
      <point x="148" y="306"/>
      <point x="102" y="306" type="curve"/>
      <point x="55" y="306"/>
      <point x="25" y="330"/>
      <point x="25" y="377" type="curve"/>
      <point x="181" y="377"/>
      <point x="25" y="377"/>
    </contour>
  </outline>
</glyph>
<glyph name="less" format="1">
  <advance width="622"/>
  <unicode hex="003C"/>
  <outline>
    <contour>
      <point x="570" y="631" type="curve"/>
      <point x="388" y="541"/>
      <point x="206" y="451"/>
      <point x="25" y="361" type="curve"/>
      <point x="25" y="239"/>
      <point x="25" y="361"/>
      <point x="25" y="239" type="curve"/>
      <point x="206" y="329"/>
      <point x="388" y="419"/>
      <point x="570" y="509" type="curve"/>
      <point x="570" y="631"/>
      <point x="570" y="509"/>
    </contour>
    <contour>
      <point x="579" y="97" type="curve"/>
      <point x="394" y="185"/>
      <point x="209" y="273"/>
      <point x="25" y="361" type="curve"/>
      <point x="25" y="239"/>
      <point x="25" y="361"/>
      <point x="25" y="239" type="curve"/>
      <point x="209" y="151"/>
      <point x="394" y="63"/>
      <point x="579" y="-25" type="curve"/>
      <point x="579" y="97"/>
      <point x="579" y="-25"/>
    </contour>
  </outline>
</glyph>
<glyph name="equal" format="1">
  <advance width="666"/>
  <unicode hex="003D"/>
  <outline>
    <contour>
      <point x="52" y="159" type="curve"/>
      <point x="239" y="159"/>
      <point x="427" y="159"/>
      <point x="614" y="159" type="curve"/>
      <point x="614" y="276"/>
      <point x="614" y="159"/>
      <point x="614" y="276" type="curve"/>
      <point x="427" y="276"/>
      <point x="239" y="276"/>
      <point x="52" y="276" type="curve"/>
      <point x="52" y="159"/>
      <point x="52" y="276"/>
    </contour>
    <contour>
      <point x="52" y="381" type="curve"/>
      <point x="239" y="381"/>
      <point x="427" y="381"/>
      <point x="614" y="381" type="curve"/>
      <point x="614" y="498"/>
      <point x="614" y="381"/>
      <point x="614" y="498" type="curve"/>
      <point x="427" y="498"/>
      <point x="239" y="498"/>
      <point x="52" y="498" type="curve"/>
      <point x="52" y="381"/>
      <point x="52" y="498"/>
    </contour>
  </outline>
</glyph>
<glyph name="greater" format="1">
  <advance width="624"/>
  <unicode hex="003E"/>
  <outline>
    <contour>
      <point x="53" y="-25" type="curve"/>
      <point x="234" y="65"/>
      <point x="417" y="155"/>
      <point x="598" y="245" type="curve"/>
      <point x="598" y="367"/>
      <point x="598" y="245"/>
      <point x="598" y="367" type="curve"/>
      <point x="417" y="277"/>
      <point x="234" y="187"/>
      <point x="53" y="97" type="curve"/>
      <point x="53" y="-25"/>
      <point x="53" y="97"/>
    </contour>
    <contour>
      <point x="44" y="509" type="curve"/>
      <point x="228" y="421"/>
      <point x="413" y="333"/>
      <point x="598" y="245" type="curve"/>
      <point x="598" y="367"/>
      <point x="598" y="245"/>
      <point x="598" y="367" type="curve"/>
      <point x="413" y="455"/>
      <point x="228" y="543"/>
      <point x="44" y="631" type="curve"/>
      <point x="44" y="509"/>
      <point x="44" y="631"/>
    </contour>
  </outline>
</glyph>
<glyph name="question" format="1">
  <advance width="519"/>
  <unicode hex="003F"/>
  <outline>
    <contour>
      <point x="183" y="380" type="curve"/>
      <point x="183" y="343"/>
      <point x="183" y="258"/>
      <point x="183" y="221" type="curve"/>
      <point x="319" y="221"/>
      <point x="183" y="221"/>
      <point x="319" y="221" type="curve"/>
      <point x="319" y="258"/>
      <point x="319" y="343"/>
      <point x="319" y="380" type="curve"/>
      <point x="183" y="380"/>
      <point x="319" y="380"/>
    </contour>
    <contour>
      <point x="112" y="576" type="line"/>
      <point x="146" y="612"/>
      <point x="185" y="636"/>
      <point x="238" y="636" type="curve"/>
      <point x="309" y="636"/>
      <point x="354" y="590"/>
      <point x="354" y="518" type="curve"/>
      <point x="354" y="433"/>
      <point x="291" y="380"/>
      <point x="198" y="380" type="curve"/>
      <point x="198" y="340"/>
      <point x="197" y="313"/>
      <point x="197" y="273" type="curve"/>
      <point x="371" y="273"/>
      <point x="492" y="363"/>
      <point x="492" y="518" type="curve"/>
      <point x="492" y="667"/>
      <point x="390" y="752"/>
      <point x="244" y="752" type="curve"/>
      <point x="157" y="752"/>
      <point x="90" y="725"/>
      <point x="36" y="665" type="curve"/>
    </contour>
    <contour>
      <point x="330" y="50" type="curve"/>
      <point x="330" y="98"/>
      <point x="296" y="121"/>
      <point x="251" y="121" type="curve"/>
      <point x="205" y="121"/>
      <point x="174" y="96"/>
      <point x="174" y="50" type="curve"/>
      <point x="330" y="50"/>
      <point x="174" y="50"/>
      <point x="330" y="50" type="curve"/>
      <point x="330" y="0"/>
      <point x="297" y="-21"/>
      <point x="251" y="-21" type="curve"/>
      <point x="204" y="-21"/>
      <point x="174" y="3"/>
      <point x="174" y="50" type="curve"/>
      <point x="330" y="50"/>
      <point x="174" y="50"/>
    </contour>
  </outline>
</glyph>
<glyph name="at" format="1">
  <advance width="804"/>
  <unicode hex="0040"/>
  <outline>
    <contour>
      <point x="534" y="-3" type="curve"/>
      <point x="493" y="-23"/>
      <point x="463" y="-31"/>
      <point x="419" y="-31" type="curve"/>
      <point x="266" y="-31"/>
      <point x="165" y="59"/>
      <point x="165" y="214" type="curve"/>
      <point x="165" y="362"/>
      <point x="261" y="447"/>
      <point x="408" y="447" type="curve"/>
      <point x="549" y="447"/>
      <point x="640" y="358"/>
      <point x="640" y="214" type="curve"/>
      <point x="640" y="167"/>
      <point x="640" y="127"/>
      <point x="617" y="127" type="curve"/>
      <point x="594" y="127"/>
      <point x="590" y="167"/>
      <point x="590" y="218" type="curve"/>
      <point x="590" y="337"/>
      <point x="521" y="412"/>
      <point x="404" y="412" type="curve"/>
      <point x="275" y="412"/>
      <point x="209" y="340"/>
      <point x="209" y="214" type="curve"/>
      <point x="209" y="88"/>
      <point x="269" y="10"/>
      <point x="391" y="10" type="curve"/>
      <point x="500" y="10"/>
      <point x="553" y="84"/>
      <point x="570" y="198" type="curve"/>
      <point x="478" y="220"/>
      <point x="570" y="198"/>
      <point x="478" y="220" type="curve"/>
      <point x="465" y="167"/>
      <point x="460" y="120"/>
      <point x="408" y="120" type="curve"/>
      <point x="361" y="120"/>
      <point x="340" y="161"/>
      <point x="340" y="220" type="curve"/>
      <point x="340" y="267"/>
      <point x="354" y="301"/>
      <point x="396" y="301" type="curve"/>
      <point x="446" y="301"/>
      <point x="458" y="265"/>
      <point x="458" y="212" type="curve"/>
      <point x="458" y="101"/>
      <point x="502" y="22"/>
      <point x="605" y="22" type="curve"/>
      <point x="715" y="22"/>
      <point x="766" y="102"/>
      <point x="766" y="219" type="curve"/>
      <point x="766" y="436"/>
      <point x="630" y="562"/>
      <point x="412" y="562" type="curve"/>
      <point x="180" y="562"/>
      <point x="35" y="437"/>
      <point x="35" y="208" type="curve"/>
      <point x="35" y="-17"/>
      <point x="183" y="-142"/>
      <point x="413" y="-142" type="curve"/>
      <point x="485" y="-142"/>
      <point x="531" y="-129"/>
      <point x="587" y="-97" type="curve"/>
      <point x="534" y="-3"/>
      <point x="587" y="-97"/>
    </contour>
  </outline>
</glyph>
<glyph name="B" format="1">
  <advance width="602"/>
  <unicode hex="0042"/>
  <outline>
    <contour>
      <point x="131" y="612" type="curve"/>
      <point x="192" y="612"/>
      <point x="241" y="612"/>
      <point x="303" y="612" type="curve"/>
      <point x="356" y="612"/>
      <point x="383" y="583"/>
      <point x="383" y="534" type="curve"/>
      <point x="383" y="486"/>
      <point x="351" y="459"/>
      <point x="300" y="459" type="curve"/>
      <point x="240" y="459"/>
      <point x="191" y="459"/>
      <point x="131" y="459" type="curve"/>
      <point x="131" y="398"/>
      <point x="131" y="409"/>
      <point x="131" y="348" type="curve"/>
      <point x="172" y="348"/>
      <point x="204" y="348"/>
      <point x="245" y="348" type="curve"/>
      <point x="367" y="348"/>
      <point x="527" y="391"/>
      <point x="527" y="530" type="curve"/>
      <point x="527" y="656"/>
      <point x="441" y="722"/>
      <point x="310" y="722" type="curve"/>
      <point x="246" y="722"/>
      <point x="195" y="722"/>
      <point x="131" y="722" type="curve"/>
      <point x="131" y="661"/>
      <point x="131" y="673"/>
    </contour>
    <contour>
      <point x="217" y="0" type="curve"/>
      <point x="217" y="241"/>
      <point x="217" y="481"/>
      <point x="217" y="722" type="curve"/>
      <point x="65" y="722"/>
      <point x="217" y="722"/>
      <point x="65" y="722" type="curve"/>
      <point x="65" y="481"/>
      <point x="65" y="241"/>
      <point x="65" y="0" type="curve"/>
      <point x="217" y="0"/>
      <point x="65" y="0"/>
    </contour>
    <contour>
      <point x="131" y="348" type="curve"/>
      <point x="191" y="348"/>
      <point x="240" y="348"/>
      <point x="300" y="348" type="curve"/>
      <point x="380" y="348"/>
      <point x="425" y="304"/>
      <point x="425" y="227" type="curve"/>
      <point x="425" y="153"/>
      <point x="382" y="110"/>
      <point x="306" y="110" type="curve"/>
      <point x="243" y="110"/>
      <point x="193" y="110"/>
      <point x="131" y="110" type="curve"/>
      <point x="131" y="49"/>
      <point x="131" y="61"/>
      <point x="131" y="0" type="curve"/>
      <point x="196" y="0"/>
      <point x="247" y="0"/>
      <point x="313" y="0" type="curve"/>
      <point x="468" y="0"/>
      <point x="570" y="75"/>
      <point x="570" y="224" type="curve"/>
      <point x="570" y="394"/>
      <point x="404" y="459"/>
      <point x="245" y="459" type="curve"/>
      <point x="204" y="459"/>
      <point x="172" y="459"/>
      <point x="131" y="459" type="curve"/>
      <point x="131" y="398"/>
      <point x="131" y="409"/>
    </contour>
  </outline>
</glyph>
<glyph name="D" format="1">
  <advance width="699"/>
  <unicode hex="0044"/>
  <outline>
    <contour>
      <point x="65" y="722" type="curve"/>
      <point x="65" y="481"/>
      <point x="65" y="241"/>
      <point x="65" y="0" type="curve"/>
      <point x="210" y="0"/>
      <point x="65" y="0"/>
      <point x="210" y="0" type="curve"/>
      <point x="210" y="241"/>
      <point x="210" y="481"/>
      <point x="210" y="722" type="curve"/>
      <point x="65" y="722"/>
      <point x="210" y="722"/>
    </contour>
    <contour>
      <point x="140" y="0" type="curve"/>
      <point x="197" y="0"/>
      <point x="255" y="0"/>
      <point x="313" y="0" type="curve"/>
      <point x="543" y="0"/>
      <point x="663" y="123"/>
      <point x="663" y="354" type="curve"/>
      <point x="663" y="592"/>
      <point x="544" y="722"/>
      <point x="310" y="722" type="curve"/>
      <point x="253" y="722"/>
      <point x="197" y="722"/>
      <point x="140" y="722" type="curve"/>
      <point x="140" y="612"/>
      <point x="140" y="722"/>
      <point x="140" y="612" type="curve"/>
      <point x="194" y="612"/>
      <point x="248" y="612"/>
      <point x="303" y="612" type="curve"/>
      <point x="458" y="612"/>
      <point x="518" y="513"/>
      <point x="518" y="351" type="curve"/>
      <point x="518" y="203"/>
      <point x="465" y="110"/>
      <point x="326" y="110" type="curve"/>
      <point x="263" y="110"/>
      <point x="202" y="110"/>
      <point x="140" y="110" type="curve"/>
      <point x="140" y="0"/>
      <point x="140" y="110"/>
    </contour>
    <contour>
      <point x="289" y="781" type="move" name="top"/>
    </contour>
  </outline>
</glyph>
<glyph name="E" format="1">
  <advance width="545"/>
  <unicode hex="0045"/>
  <outline>
    <contour>
      <point x="142" y="317" type="curve"/>
      <point x="239" y="317"/>
      <point x="338" y="317"/>
      <point x="436" y="317" type="curve"/>
      <point x="436" y="428"/>
      <point x="436" y="317"/>
      <point x="436" y="428" type="curve"/>
      <point x="338" y="428"/>
      <point x="239" y="428"/>
      <point x="142" y="428" type="curve"/>
      <point x="142" y="317"/>
      <point x="142" y="428"/>
    </contour>
    <contour>
      <point x="128" y="612" type="curve"/>
      <point x="249" y="612"/>
      <point x="370" y="612"/>
      <point x="492" y="612" type="curve"/>
      <point x="492" y="722"/>
      <point x="492" y="612"/>
      <point x="492" y="722" type="curve"/>
      <point x="370" y="722"/>
      <point x="249" y="722"/>
      <point x="128" y="722" type="curve"/>
      <point x="128" y="612"/>
      <point x="128" y="722"/>
    </contour>
    <contour>
      <point x="211" y="0" type="curve"/>
      <point x="211" y="722" type="line"/>
      <point x="65" y="722"/>
      <point x="211" y="722"/>
      <point x="65" y="722" type="curve"/>
      <point x="65" y="481"/>
      <point x="65" y="241"/>
      <point x="65" y="0" type="curve"/>
      <point x="211" y="0"/>
      <point x="65" y="0"/>
    </contour>
    <contour>
      <point x="128" y="0" type="curve"/>
      <point x="259" y="0"/>
      <point x="390" y="0"/>
      <point x="522" y="0" type="curve"/>
      <point x="522" y="110"/>
      <point x="522" y="0"/>
      <point x="522" y="110" type="curve"/>
      <point x="390" y="110"/>
      <point x="259" y="110"/>
      <point x="128" y="110" type="curve"/>
      <point x="128" y="0"/>
      <point x="128" y="110"/>
    </contour>
    <contour>
      <point x="262" y="781" type="move" name="top"/>
    </contour>
    <contour>
      <point x="483" y="7" type="move" name="bottom"/>
    </contour>
  </outline>
</glyph>
<glyph name="F" format="1">
  <advance width="517"/>
  <unicode hex="0046"/>
  <outline>
    <contour>
      <point x="141" y="317" type="curve"/>
      <point x="238" y="317"/>
      <point x="333" y="317"/>
      <point x="430" y="317" type="curve"/>
      <point x="430" y="428"/>
      <point x="430" y="317"/>
      <point x="430" y="428" type="curve"/>
      <point x="333" y="428"/>
      <point x="238" y="428"/>
      <point x="141" y="428" type="curve"/>
      <point x="141" y="317"/>
      <point x="141" y="428"/>
    </contour>
    <contour>
      <point x="211" y="0" type="curve"/>
      <point x="211" y="722" type="line"/>
      <point x="65" y="722"/>
      <point x="211" y="722"/>
      <point x="65" y="722" type="curve"/>
      <point x="65" y="481"/>
      <point x="65" y="241"/>
      <point x="65" y="0" type="curve"/>
      <point x="211" y="0"/>
      <point x="65" y="0"/>
    </contour>
    <contour>
      <point x="128" y="612" type="curve"/>
      <point x="250" y="612"/>
      <point x="372" y="612"/>
      <point x="495" y="612" type="curve"/>
      <point x="495" y="722"/>
      <point x="495" y="612"/>
      <point x="495" y="722" type="curve"/>
      <point x="372" y="722"/>
      <point x="250" y="722"/>
      <point x="128" y="722" type="curve"/>
      <point x="128" y="612"/>
      <point x="128" y="722"/>
    </contour>
  </outline>
</glyph>
<glyph name="G" format="1">
  <advance width="728"/>
  <unicode hex="0047"/>
  <outline>
    <contour>
      <point x="647" y="370" type="curve"/>
      <point x="582" y="370"/>
      <point x="516" y="370"/>
      <point x="450" y="370" type="curve"/>
      <point x="450" y="260"/>
      <point x="450" y="370"/>
      <point x="450" y="260" type="curve"/>
      <point x="516" y="260"/>
      <point x="582" y="260"/>
      <point x="647" y="260" type="curve"/>
      <point x="647" y="370"/>
      <point x="647" y="260"/>
    </contour>
    <contour>
      <point x="685" y="79" type="curve"/>
      <point x="685" y="176"/>
      <point x="685" y="273"/>
      <point x="685" y="370" type="curve"/>
      <point x="553" y="370"/>
      <point x="685" y="370"/>
      <point x="553" y="370" type="curve"/>
      <point x="553" y="273"/>
      <point x="553" y="176"/>
      <point x="553" y="79" type="curve"/>
      <point x="685" y="79"/>
      <point x="553" y="79"/>
    </contour>
    <contour>
      <point x="670" y="645" type="curve"/>
      <point x="581" y="702"/>
      <point x="498" y="727"/>
      <point x="392" y="727" type="curve"/>
      <point x="165" y="727"/>
      <point x="35" y="591"/>
      <point x="35" y="360" type="curve"/>
      <point x="35" y="127"/>
      <point x="172" y="-5"/>
      <point x="401" y="-5" type="curve"/>
      <point x="515" y="-5"/>
      <point x="587" y="24"/>
      <point x="685" y="79" type="curve"/>
      <point x="613" y="162"/>
      <point x="685" y="79"/>
      <point x="613" y="162" type="curve"/>
      <point x="541" y="122"/>
      <point x="484" y="111"/>
      <point x="401" y="111" type="curve"/>
      <point x="251" y="111"/>
      <point x="181" y="212"/>
      <point x="181" y="371" type="curve"/>
      <point x="181" y="518"/>
      <point x="251" y="612"/>
      <point x="392" y="612" type="curve"/>
      <point x="470" y="612"/>
      <point x="531" y="593"/>
      <point x="602" y="550" type="curve"/>
      <point x="670" y="645"/>
      <point x="602" y="550"/>
    </contour>
    <contour>
      <point x="389" y="781" type="move" name="top"/>
    </contour>
    <contour>
      <point x="442" y="3" type="move" name="bottom"/>
    </contour>
  </outline>
</glyph>
<glyph name="H" format="1">
  <advance width="721"/>
  <unicode hex="0048"/>
  <outline>
    <contour>
      <point x="211" y="0" type="curve"/>
      <point x="211" y="722" type="line"/>
      <point x="65" y="722"/>
      <point x="211" y="722"/>
      <point x="65" y="722" type="curve"/>
      <point x="65" y="481"/>
      <point x="65" y="241"/>
      <point x="65" y="0" type="curve"/>
      <point x="211" y="0"/>
      <point x="65" y="0"/>
    </contour>
    <contour>
      <point x="581" y="418" type="curve"/>
      <point x="433" y="418"/>
      <point x="286" y="418"/>
      <point x="137" y="418" type="curve"/>
      <point x="137" y="307"/>
      <point x="137" y="418"/>
      <point x="137" y="307" type="curve"/>
      <point x="286" y="307"/>
      <point x="433" y="307"/>
      <point x="581" y="307" type="curve"/>
      <point x="581" y="418"/>
      <point x="581" y="307"/>
    </contour>
    <contour>
      <point x="656" y="0" type="curve"/>
      <point x="656" y="209"/>
      <point x="656" y="513"/>
      <point x="656" y="722" type="curve"/>
      <point x="510" y="722"/>
      <point x="656" y="722"/>
      <point x="510" y="722" type="curve"/>
      <point x="510" y="0" type="line"/>
      <point x="656" y="0"/>
      <point x="510" y="0"/>
    </contour>
  </outline>
</glyph>
<glyph name="J" format="1">
  <advance width="420"/>
  <unicode hex="004A"/>
  <outline>
    <contour>
      <point x="-2" y="45" type="curve"/>
      <point x="29" y="23"/>
      <point x="75" y="-4"/>
      <point x="132" y="-4" type="curve"/>
      <point x="281" y="-4"/>
      <point x="359" y="82"/>
      <point x="359" y="246" type="curve"/>
      <point x="359" y="403"/>
      <point x="359" y="564"/>
      <point x="359" y="722" type="curve"/>
      <point x="214" y="722"/>
      <point x="359" y="722"/>
      <point x="214" y="722" type="curve"/>
      <point x="214" y="564"/>
      <point x="214" y="403"/>
      <point x="214" y="246" type="curve"/>
      <point x="214" y="167"/>
      <point x="200" y="108"/>
      <point x="132" y="108" type="curve"/>
      <point x="104" y="108"/>
      <point x="87" y="120"/>
      <point x="64" y="133" type="curve"/>
      <point x="-2" y="45"/>
      <point x="64" y="133"/>
    </contour>
  </outline>
</glyph>
<glyph name="K" format="1">
  <advance width="676"/>
  <unicode hex="004B"/>
  <outline>
    <contour>
      <point x="470" y="722" type="curve"/>
      <point x="184" y="380" type="line"/>
      <point x="348" y="380"/>
      <point x="193" y="380"/>
      <point x="357" y="380" type="curve"/>
      <point x="644" y="722" type="line"/>
      <point x="510" y="722"/>
      <point x="605" y="722"/>
    </contour>
    <contour>
      <point x="210" y="0" type="curve"/>
      <point x="210" y="722" type="line"/>
      <point x="65" y="722"/>
      <point x="210" y="722"/>
      <point x="65" y="722" type="curve"/>
      <point x="65" y="481"/>
      <point x="65" y="241"/>
      <point x="65" y="0" type="curve"/>
      <point x="210" y="0"/>
      <point x="65" y="0"/>
    </contour>
    <contour>
      <point x="666" y="0" type="curve"/>
      <point x="357" y="380" type="line"/>
      <point x="193" y="380"/>
      <point x="348" y="380"/>
      <point x="184" y="380" type="curve"/>
      <point x="490" y="0" type="line"/>
      <point x="637" y="0"/>
      <point x="519" y="0"/>
    </contour>
    <contour>
      <point x="353" y="0" type="move" name="bottom"/>
    </contour>
  </outline>
</glyph>
<glyph name="L" format="1">
  <advance width="526"/>
  <unicode hex="004C"/>
  <outline>
    <contour>
      <point x="210" y="0" type="curve"/>
      <point x="210" y="241"/>
      <point x="210" y="481"/>
      <point x="210" y="722" type="curve"/>
      <point x="65" y="722"/>
      <point x="210" y="722"/>
      <point x="65" y="722" type="curve"/>
      <point x="65" y="481"/>
      <point x="65" y="241"/>
      <point x="65" y="0" type="curve"/>
      <point x="210" y="0"/>
      <point x="65" y="0"/>
    </contour>
    <contour>
      <point x="137" y="0" type="curve"/>
      <point x="263" y="0"/>
      <point x="389" y="0"/>
      <point x="514" y="0" type="curve"/>
      <point x="514" y="110"/>
      <point x="514" y="0"/>
      <point x="514" y="110" type="curve"/>
      <point x="389" y="110"/>
      <point x="263" y="110"/>
      <point x="137" y="110" type="curve"/>
      <point x="137" y="0"/>
      <point x="137" y="110"/>
    </contour>
    <contour>
      <point x="137" y="781" type="move" name="top"/>
    </contour>
    <contour>
      <point x="307" y="4" type="move" name="bottom"/>
    </contour>
  </outline>
</glyph>
<glyph name="M" format="1">
  <advance width="848"/>
  <unicode hex="004D"/>
  <outline>
    <contour>
      <point x="806" y="0" type="curve"/>
      <point x="787" y="241"/>
      <point x="763" y="481"/>
      <point x="745" y="722" type="curve"/>
      <point x="613" y="722"/>
      <point x="745" y="722"/>
      <point x="613" y="722" type="curve"/>
      <point x="631" y="481"/>
      <point x="643" y="241"/>
      <point x="661" y="0" type="curve"/>
      <point x="806" y="0"/>
      <point x="661" y="0"/>
    </contour>
    <contour>
      <point x="175" y="0" type="curve"/>
      <point x="192" y="241"/>
      <point x="209" y="481"/>
      <point x="226" y="722" type="curve"/>
      <point x="98" y="722"/>
      <point x="226" y="722"/>
      <point x="98" y="722" type="curve"/>
      <point x="80" y="481"/>
      <point x="63" y="241"/>
      <point x="45" y="0" type="curve"/>
      <point x="175" y="0"/>
      <point x="45" y="0"/>
    </contour>
    <contour>
      <point x="480" y="0" type="curve"/>
      <point x="396" y="241"/>
      <point x="312" y="481"/>
      <point x="228" y="722" type="curve"/>
      <point x="100" y="722"/>
      <point x="228" y="722"/>
      <point x="100" y="722" type="curve"/>
      <point x="183" y="481"/>
      <point x="267" y="241"/>
      <point x="351" y="0" type="curve"/>
      <point x="480" y="0"/>
      <point x="351" y="0"/>
    </contour>
    <contour>
      <point x="488" y="0" type="curve"/>
      <point x="570" y="241"/>
      <point x="653" y="481"/>
      <point x="734" y="722" type="curve"/>
      <point x="606" y="722"/>
      <point x="734" y="722"/>
      <point x="606" y="722" type="curve"/>
      <point x="524" y="481"/>
      <point x="440" y="241"/>
      <point x="358" y="0" type="curve"/>
      <point x="488" y="0"/>
      <point x="358" y="0"/>
    </contour>
  </outline>
</glyph>
<glyph name="N" format="1">
  <advance width="765"/>
  <unicode hex="004E"/>
  <outline>
    <contour>
      <point x="700" y="0" type="curve"/>
      <point x="540" y="240"/>
      <point x="382" y="482"/>
      <point x="224" y="722" type="curve"/>
      <point x="65" y="722"/>
      <point x="224" y="722"/>
      <point x="65" y="722" type="curve"/>
      <point x="224" y="482"/>
      <point x="382" y="240"/>
      <point x="541" y="0" type="curve"/>
      <point x="700" y="0"/>
      <point x="541" y="0"/>
    </contour>
    <contour>
      <point x="555" y="722" type="curve"/>
      <point x="555" y="481"/>
      <point x="555" y="241"/>
      <point x="555" y="0" type="curve"/>
      <point x="700" y="0"/>
      <point x="555" y="0"/>
      <point x="700" y="0" type="curve"/>
      <point x="700" y="241"/>
      <point x="700" y="481"/>
      <point x="700" y="722" type="curve"/>
      <point x="555" y="722"/>
      <point x="700" y="722"/>
    </contour>
    <contour>
      <point x="210" y="0" type="curve"/>
      <point x="210" y="241"/>
      <point x="210" y="481"/>
      <point x="210" y="722" type="curve"/>
      <point x="65" y="722"/>
      <point x="210" y="722"/>
      <point x="65" y="722" type="curve"/>
      <point x="65" y="481"/>
      <point x="65" y="241"/>
      <point x="65" y="0" type="curve"/>
      <point x="210" y="0"/>
      <point x="65" y="0"/>
    </contour>
    <contour>
      <point x="382" y="781" type="move" name="top"/>
    </contour>
    <contour>
      <point x="427" y="0" type="move" name="bottom"/>
    </contour>
  </outline>
</glyph>
<glyph name="P" format="1">
  <advance width="558"/>
  <unicode hex="0050"/>
  <outline>
    <contour>
      <point x="117" y="296" type="curve"/>
      <point x="173" y="267"/>
      <point x="237" y="250"/>
      <point x="303" y="250" type="curve"/>
      <point x="443" y="252"/>
      <point x="535" y="330"/>
      <point x="535" y="477" type="curve"/>
      <point x="535" y="632"/>
      <point x="423" y="722"/>
      <point x="265" y="722" type="curve"/>
      <point x="223" y="722"/>
      <point x="182" y="722"/>
      <point x="142" y="722" type="curve"/>
      <point x="142" y="612"/>
      <point x="142" y="722"/>
      <point x="142" y="612" type="curve"/>
      <point x="176" y="612"/>
      <point x="210" y="612"/>
      <point x="245" y="612" type="curve"/>
      <point x="332" y="612"/>
      <point x="390" y="564"/>
      <point x="390" y="482" type="curve"/>
      <point x="390" y="406"/>
      <point x="353" y="356"/>
      <point x="285" y="356" type="curve"/>
      <point x="238" y="356"/>
      <point x="205" y="368"/>
      <point x="163" y="389" type="curve"/>
      <point x="118" y="298"/>
      <point x="163" y="389"/>
    </contour>
    <contour>
      <point x="210" y="0" type="curve"/>
      <point x="210" y="241"/>
      <point x="210" y="481"/>
      <point x="210" y="722" type="curve"/>
      <point x="65" y="722"/>
      <point x="210" y="722"/>
      <point x="65" y="722" type="curve"/>
      <point x="65" y="481"/>
      <point x="65" y="241"/>
      <point x="65" y="0" type="curve"/>
      <point x="210" y="0"/>
      <point x="65" y="0"/>
    </contour>
  </outline>
</glyph>
<glyph name="Q" format="1">
  <advance width="747"/>
  <unicode hex="0051"/>
  <outline>
    <contour>
      <point x="312" y="27" type="curve"/>
      <point x="412" y="-150"/>
      <point x="534" y="-211"/>
      <point x="726" y="-211" type="curve"/>
      <point x="726" y="-95"/>
      <point x="726" y="-211"/>
      <point x="726" y="-95" type="curve"/>
      <point x="591" y="-95"/>
      <point x="510" y="-44"/>
      <point x="436" y="82" type="curve"/>
      <point x="312" y="27"/>
      <point x="436" y="82"/>
    </contour>
    <contour>
      <point x="182" y="360" type="curve"/>
      <point x="182" y="501"/>
      <point x="235" y="606"/>
      <point x="363" y="606" type="curve"/>
      <point x="495" y="606"/>
      <point x="551" y="503"/>
      <point x="551" y="360" type="curve"/>
      <point x="551" y="218"/>
      <point x="501" y="110"/>
      <point x="371" y="110" type="curve"/>
      <point x="238" y="111"/>
      <point x="182" y="216"/>
      <point x="182" y="360" type="curve"/>
      <point x="37" y="360"/>
      <point x="182" y="360"/>
      <point x="37" y="360" type="curve"/>
      <point x="37" y="142"/>
      <point x="156" y="-5"/>
      <point x="364" y="-5" type="curve"/>
      <point x="576" y="-5"/>
      <point x="696" y="145"/>
      <point x="696" y="366" type="curve"/>
      <point x="696" y="583"/>
      <point x="581" y="732"/>
      <point x="373" y="732" type="curve"/>
      <point x="160" y="732"/>
      <point x="37" y="581"/>
      <point x="37" y="360" type="curve"/>
      <point x="182" y="360"/>
      <point x="37" y="360"/>
    </contour>
  </outline>
</glyph>
<glyph name="R" format="1">
  <advance width="632"/>
  <unicode hex="0052"/>
  <outline>
    <contour>
      <point x="241" y="354" type="curve"/>
      <point x="317" y="237"/>
      <point x="394" y="117"/>
      <point x="470" y="0" type="curve"/>
      <point x="619" y="0"/>
      <point x="481" y="0"/>
      <point x="630" y="0" type="curve"/>
      <point x="558" y="114"/>
      <point x="475" y="240"/>
      <point x="402" y="354" type="curve"/>
      <point x="244" y="354"/>
      <point x="399" y="354"/>
    </contour>
    <contour>
      <point x="210" y="0" type="curve"/>
      <point x="210" y="241"/>
      <point x="210" y="481"/>
      <point x="210" y="722" type="curve"/>
      <point x="65" y="722"/>
      <point x="210" y="722"/>
      <point x="65" y="722" type="curve"/>
      <point x="65" y="481"/>
      <point x="65" y="241"/>
      <point x="65" y="0" type="curve"/>
      <point x="210" y="0"/>
      <point x="65" y="0"/>
    </contour>
    <contour>
      <point x="140" y="297" type="curve"/>
      <point x="193" y="297"/>
      <point x="246" y="297"/>
      <point x="299" y="297" type="curve"/>
      <point x="449" y="297"/>
      <point x="550" y="368"/>
      <point x="550" y="519" type="curve"/>
      <point x="550" y="657"/>
      <point x="454" y="722"/>
      <point x="310" y="722" type="curve"/>
      <point x="254" y="722"/>
      <point x="197" y="722"/>
      <point x="140" y="722" type="curve"/>
      <point x="140" y="612"/>
      <point x="140" y="722"/>
      <point x="140" y="612" type="curve"/>
      <point x="188" y="612"/>
      <point x="236" y="612"/>
      <point x="284" y="612" type="curve"/>
      <point x="358" y="612"/>
      <point x="405" y="578"/>
      <point x="405" y="508" type="curve"/>
      <point x="405" y="443"/>
      <point x="367" y="408"/>
      <point x="300" y="408" type="curve"/>
      <point x="247" y="408"/>
      <point x="193" y="408"/>
      <point x="140" y="408" type="curve"/>
      <point x="140" y="297"/>
      <point x="140" y="408"/>
    </contour>
    <contour>
      <point x="263" y="781" type="move" name="top"/>
    </contour>
    <contour>
      <point x="382" y="-1" type="move" name="bottom"/>
    </contour>
  </outline>
</glyph>
<glyph name="S" format="1">
  <advance width="544"/>
  <unicode hex="0053"/>
  <outline>
    <contour>
      <point x="38" y="53" type="curve"/>
      <point x="103" y="12"/>
      <point x="169" y="-5"/>
      <point x="253" y="-5" type="curve"/>
      <point x="402" y="-5"/>
      <point x="522" y="56"/>
      <point x="522" y="194" type="curve"/>
      <point x="522" y="313"/>
      <point x="431" y="366"/>
      <point x="321" y="419" type="curve"/>
      <point x="249" y="452"/>
      <point x="177" y="490"/>
      <point x="177" y="541" type="curve"/>
      <point x="174" y="586"/>
      <point x="214" y="615"/>
      <point x="266" y="615" type="curve"/>
      <point x="321" y="615"/>
      <point x="370" y="591"/>
      <point x="409" y="573" type="curve"/>
      <point x="473" y="661"/>
      <point x="409" y="573"/>
      <point x="473" y="661" type="curve"/>
      <point x="410" y="699"/>
      <point x="349" y="720"/>
      <point x="270" y="720" type="curve"/>
      <point x="134" y="720"/>
      <point x="31" y="658"/>
      <point x="31" y="534" type="curve"/>
      <point x="31" y="419"/>
      <point x="120" y="365"/>
      <point x="227" y="315" type="curve"/>
      <point x="301" y="280"/>
      <point x="377" y="244"/>
      <point x="377" y="192" type="curve"/>
      <point x="377" y="148"/>
      <point x="325" y="111"/>
      <point x="260" y="111" type="curve"/>
      <point x="203" y="111"/>
      <point x="157" y="132"/>
      <point x="112" y="158" type="curve"/>
      <point x="38" y="53"/>
      <point x="112" y="158"/>
    </contour>
    <contour>
      <point x="269" y="781" type="move" name="top"/>
    </contour>
    <contour>
      <point x="310" y="6" type="move" name="bottom"/>
    </contour>
  </outline>
</glyph>
<glyph name="T" format="1">
  <advance width="579"/>
  <unicode hex="0054"/>
  <outline>
    <contour>
      <point x="362" y="0" type="curve"/>
      <point x="362" y="237"/>
      <point x="362" y="473"/>
      <point x="362" y="710" type="curve"/>
      <point x="217" y="710"/>
      <point x="362" y="710"/>
      <point x="217" y="710" type="curve"/>
      <point x="216" y="473"/>
      <point x="217" y="237"/>
      <point x="217" y="0" type="curve"/>
      <point x="362" y="0"/>
      <point x="217" y="0"/>
    </contour>
    <contour>
      <point x="12" y="605" type="curve"/>
      <point x="196" y="605"/>
      <point x="382" y="605"/>
      <point x="567" y="605" type="curve"/>
      <point x="567" y="727"/>
      <point x="567" y="600"/>
      <point x="567" y="722" type="curve"/>
      <point x="382" y="722"/>
      <point x="196" y="722"/>
      <point x="12" y="722" type="curve"/>
      <point x="12" y="600"/>
      <point x="12" y="727"/>
    </contour>
    <contour>
      <point x="288" y="781" type="move" name="top"/>
    </contour>
    <contour>
      <point x="346" y="1" type="move" name="bottom"/>
    </contour>
  </outline>
</glyph>
<glyph name="U" format="1">
  <advance width="699"/>
  <unicode hex="0055"/>
  <outline>
    <contour>
      <point x="59" y="722" type="curve"/>
      <point x="59" y="588"/>
      <point x="58" y="410"/>
      <point x="59" y="276" type="curve"/>
      <point x="59" y="87"/>
      <point x="155" y="-5"/>
      <point x="346" y="-5" type="curve"/>
      <point x="541" y="-5"/>
      <point x="640" y="92"/>
      <point x="640" y="287" type="curve"/>
      <point x="640" y="418"/>
      <point x="640" y="592"/>
      <point x="640" y="722" type="curve"/>
      <point x="508" y="722"/>
      <point x="640" y="722"/>
      <point x="508" y="722" type="curve"/>
      <point x="508" y="585"/>
      <point x="508" y="410"/>
      <point x="508" y="273" type="curve"/>
      <point x="508" y="173"/>
      <point x="456" y="117"/>
      <point x="357" y="117" type="curve"/>
      <point x="241" y="117"/>
      <point x="191" y="179"/>
      <point x="191" y="297" type="curve"/>
      <point x="191" y="424"/>
      <point x="191" y="596"/>
      <point x="191" y="722" type="curve"/>
      <point x="59" y="722"/>
      <point x="191" y="722"/>
    </contour>
    <contour>
      <point x="352" y="781" type="move" name="top"/>
    </contour>
    <contour>
      <point x="407" y="9" type="move" name="bottom"/>
    </contour>
  </outline>
</glyph>
<glyph name="V" format="1">
  <advance width="663"/>
  <unicode hex="0056"/>
  <outline>
    <contour>
      <point x="510" y="722" type="curve"/>
      <point x="430" y="480"/>
      <point x="351" y="242"/>
      <point x="273" y="0" type="curve"/>
      <point x="421" y="0"/>
      <point x="261" y="0"/>
      <point x="409" y="0" type="curve"/>
      <point x="492" y="241"/>
      <point x="574" y="481"/>
      <point x="658" y="722" type="curve"/>
      <point x="510" y="722"/>
      <point x="658" y="722"/>
    </contour>
    <contour>
      <point x="3" y="722" type="curve"/>
      <point x="87" y="481"/>
      <point x="172" y="241"/>
      <point x="255" y="0" type="curve"/>
      <point x="403" y="0"/>
      <point x="246" y="0"/>
      <point x="394" y="0" type="curve"/>
      <point x="314" y="242"/>
      <point x="234" y="482"/>
      <point x="152" y="722" type="curve"/>
      <point x="3" y="722"/>
      <point x="152" y="722"/>
    </contour>
  </outline>
</glyph>
<glyph name="W" format="1">
  <advance width="852"/>
  <unicode hex="0057"/>
  <outline>
    <contour>
      <point x="314" y="0" type="curve"/>
      <point x="374" y="241"/>
      <point x="433" y="481"/>
      <point x="493" y="722" type="curve"/>
      <point x="364" y="722"/>
      <point x="494" y="722"/>
      <point x="365" y="722" type="curve"/>
      <point x="310" y="481"/>
      <point x="257" y="242"/>
      <point x="201" y="0" type="curve"/>
      <point x="325" y="0"/>
      <point x="190" y="0"/>
    </contour>
    <contour>
      <point x="374" y="722" type="curve"/>
      <point x="428" y="481"/>
      <point x="479" y="241"/>
      <point x="534" y="0" type="curve"/>
      <point x="658" y="0"/>
      <point x="520" y="0"/>
      <point x="644" y="0" type="curve"/>
      <point x="595" y="244"/>
      <point x="550" y="481"/>
      <point x="500" y="722" type="curve"/>
      <point x="372" y="722"/>
      <point x="502" y="722"/>
    </contour>
    <contour>
      <point x="21" y="722" type="curve"/>
      <point x="76" y="481"/>
      <point x="130" y="241"/>
      <point x="184" y="0" type="curve"/>
      <point x="309" y="0"/>
      <point x="182" y="0"/>
      <point x="307" y="0" type="curve"/>
      <point x="254" y="241"/>
      <point x="204" y="481"/>
      <point x="152" y="722" type="curve"/>
      <point x="21" y="722"/>
      <point x="152" y="722"/>
    </contour>
    <contour>
      <point x="703" y="722" type="curve"/>
      <point x="649" y="481"/>
      <point x="597" y="241"/>
      <point x="543" y="0" type="curve"/>
      <point x="667" y="0"/>
      <point x="539" y="0"/>
      <point x="664" y="0" type="curve"/>
      <point x="720" y="241"/>
      <point x="777" y="481"/>
      <point x="834" y="722" type="curve"/>
      <point x="703" y="722"/>
      <point x="834" y="722"/>
    </contour>
  </outline>
</glyph>
<glyph name="X" format="1">
  <advance width="623"/>
  <unicode hex="0058"/>
  <outline>
    <contour>
      <point x="455" y="722" type="curve"/>
      <point x="309" y="485"/>
      <point x="149" y="237"/>
      <point x="4" y="0" type="curve"/>
      <point x="146" y="0"/>
      <point x="17" y="0"/>
      <point x="159" y="0" type="curve"/>
      <point x="303" y="237"/>
      <point x="459" y="485"/>
      <point x="603" y="722" type="curve"/>
      <point x="466" y="722"/>
      <point x="591" y="722"/>
    </contour>
    <contour>
      <point x="28" y="722" type="curve"/>
      <point x="171" y="485"/>
      <point x="323" y="237"/>
      <point x="466" y="0" type="curve"/>
      <point x="608" y="0"/>
      <point x="474" y="0"/>
      <point x="616" y="0" type="curve"/>
      <point x="471" y="238"/>
      <point x="318" y="484"/>
      <point x="173" y="722" type="curve"/>
      <point x="37" y="722"/>
      <point x="163" y="722"/>
    </contour>
  </outline>
</glyph>
<glyph name="bracketleft" format="1">
  <advance width="299"/>
  <unicode hex="005B"/>
  <outline>
    <contour>
      <point x="259" y="769" type="curve"/>
      <point x="213" y="769"/>
      <point x="168" y="769"/>
      <point x="123" y="769" type="curve"/>
      <point x="106" y="769"/>
      <point x="72" y="769"/>
      <point x="56" y="769" type="curve"/>
      <point x="56" y="753"/>
      <point x="56" y="731"/>
      <point x="56" y="714" type="curve"/>
      <point x="56" y="456"/>
      <point x="56" y="199"/>
      <point x="56" y="-59" type="curve"/>
      <point x="56" y="-77"/>
      <point x="56" y="-91"/>
      <point x="56" y="-113" type="curve"/>
      <point x="71" y="-113"/>
      <point x="104" y="-113"/>
      <point x="122" y="-113" type="curve"/>
      <point x="167" y="-113"/>
      <point x="213" y="-113"/>
      <point x="259" y="-113" type="curve"/>
      <point x="259" y="9"/>
      <point x="259" y="-113"/>
      <point x="259" y="9" type="curve"/>
      <point x="213" y="9"/>
      <point x="167" y="9"/>
      <point x="122" y="9" type="curve"/>
      <point x="201" y="9"/>
      <point x="122" y="9"/>
      <point x="201" y="9" type="curve"/>
      <point x="201" y="-59"/>
      <point x="201" y="9"/>
      <point x="201" y="-59" type="curve"/>
      <point x="201" y="199"/>
      <point x="201" y="456"/>
      <point x="201" y="714" type="curve"/>
      <point x="201" y="648"/>
      <point x="201" y="714"/>
      <point x="201" y="648" type="curve"/>
      <point x="123" y="648"/>
      <point x="201" y="648"/>
      <point x="123" y="648" type="curve"/>
      <point x="168" y="648"/>
      <point x="213" y="648"/>
      <point x="259" y="648" type="curve"/>
      <point x="259" y="769"/>
      <point x="259" y="648"/>
    </contour>
  </outline>
</glyph>
<glyph name="backslash" format="1">
  <advance width="541"/>
  <unicode hex="005C"/>
  <outline>
    <contour>
      <point x="522" y="-68" type="curve"/>
      <point x="405" y="236"/>
      <point x="288" y="540"/>
      <point x="171" y="844" type="curve"/>
      <point x="19" y="844"/>
      <point x="171" y="844"/>
      <point x="19" y="844" type="curve"/>
      <point x="136" y="540"/>
      <point x="253" y="236"/>
      <point x="370" y="-68" type="curve"/>
      <point x="522" y="-68"/>
      <point x="370" y="-68"/>
    </contour>
  </outline>
</glyph>
<glyph name="bracketright" format="1">
  <advance width="299"/>
  <unicode hex="005D"/>
  <outline>
    <contour>
      <point x="40" y="648" type="curve"/>
      <point x="86" y="648"/>
      <point x="131" y="648"/>
      <point x="177" y="648" type="curve"/>
      <point x="164" y="659"/>
      <point x="145" y="662"/>
      <point x="132" y="673" type="curve"/>
      <point x="120" y="686"/>
      <point x="110" y="701"/>
      <point x="98" y="714" type="curve"/>
      <point x="98" y="456"/>
      <point x="98" y="199"/>
      <point x="98" y="-59" type="curve"/>
      <point x="111" y="-46"/>
      <point x="123" y="-33"/>
      <point x="136" y="-20" type="curve"/>
      <point x="148" y="-8"/>
      <point x="166" y="-3"/>
      <point x="178" y="9" type="curve"/>
      <point x="132" y="9"/>
      <point x="86" y="9"/>
      <point x="40" y="9" type="curve"/>
      <point x="40" y="-113"/>
      <point x="40" y="9"/>
      <point x="40" y="-113" type="curve"/>
      <point x="86" y="-113"/>
      <point x="132" y="-113"/>
      <point x="178" y="-113" type="curve"/>
      <point x="244" y="-113"/>
      <point x="178" y="-113"/>
      <point x="244" y="-113" type="curve"/>
      <point x="244" y="-59"/>
      <point x="244" y="-113"/>
      <point x="244" y="-59" type="curve"/>
      <point x="243" y="199"/>
      <point x="244" y="456"/>
      <point x="244" y="714" type="curve"/>
      <point x="244" y="769"/>
      <point x="244" y="714"/>
      <point x="244" y="769" type="curve"/>
      <point x="177" y="769"/>
      <point x="244" y="769"/>
      <point x="177" y="769" type="curve"/>
      <point x="131" y="769"/>
      <point x="86" y="769"/>
      <point x="40" y="769" type="curve"/>
      <point x="40" y="648"/>
      <point x="40" y="769"/>
    </contour>
  </outline>
</glyph>
<glyph name="asciicircum" format="1">
  <advance width="515"/>
  <unicode hex="005E"/>
  <outline>
    <contour>
      <point x="174" y="453" type="curve"/>
      <point x="225" y="554"/>
      <point x="278" y="654"/>
      <point x="330" y="754" type="curve"/>
      <point x="185" y="754"/>
      <point x="330" y="754"/>
      <point x="185" y="754" type="curve"/>
      <point x="132" y="654"/>
      <point x="80" y="554"/>
      <point x="29" y="453" type="curve"/>
      <point x="174" y="453"/>
      <point x="29" y="453"/>
    </contour>
    <contour>
      <point x="487" y="453" type="curve"/>
      <point x="435" y="552"/>
      <point x="382" y="654"/>
      <point x="330" y="754" type="curve"/>
      <point x="185" y="754"/>
      <point x="330" y="754"/>
      <point x="185" y="754" type="curve"/>
      <point x="236" y="654"/>
      <point x="290" y="552"/>
      <point x="342" y="453" type="curve"/>
      <point x="487" y="453"/>
      <point x="342" y="453"/>
    </contour>
  </outline>
</glyph>
<glyph name="grave" format="1">
  <advance width="403"/>
  <unicode hex="0060"/>
  <outline>
    <contour>
      <point x="290" y="575" type="line"/>
      <point x="190" y="741" type="line"/>
      <point x="9" y="741" type="line"/>
      <point x="150" y="575" type="line"/>
    </contour>
    <contour>
      <point x="217" y="575" type="move" name="_top"/>
    </contour>
  </outline>
</glyph>
<glyph name="b" format="1">
  <advance width="605"/>
  <unicode hex="0062"/>
  <outline>
    <contour>
      <point x="163" y="338" type="curve"/>
      <point x="196" y="379"/>
      <point x="244" y="423"/>
      <point x="313" y="423" type="curve"/>
      <point x="396" y="423"/>
      <point x="428" y="353"/>
      <point x="428" y="262" type="curve"/>
      <point x="429" y="174"/>
      <point x="394" y="110"/>
      <point x="314" y="110" type="curve"/>
      <point x="254" y="110"/>
      <point x="209" y="136"/>
      <point x="174" y="176" type="curve"/>
      <point x="112" y="135"/>
      <point x="158" y="166"/>
      <point x="96" y="124" type="curve"/>
      <point x="157" y="49"/>
      <point x="223" y="-5"/>
      <point x="333" y="-5" type="curve"/>
      <point x="483" y="-5"/>
      <point x="574" y="104"/>
      <point x="573" y="266" type="curve"/>
      <point x="573" y="429"/>
      <point x="484" y="538"/>
      <point x="334" y="538" type="curve"/>
      <point x="224" y="538"/>
      <point x="156" y="471"/>
      <point x="101" y="396" type="curve"/>
      <point x="152" y="353"/>
      <point x="112" y="381"/>
    </contour>
    <contour>
      <point x="199" y="0" type="curve"/>
      <point x="199" y="278"/>
      <point x="199" y="522"/>
      <point x="199" y="800" type="curve"/>
      <point x="80" y="800"/>
      <point x="174" y="800"/>
      <point x="54" y="800" type="curve"/>
      <point x="54" y="522"/>
      <point x="54" y="278"/>
      <point x="54" y="0" type="curve"/>
      <point x="174" y="0"/>
      <point x="80" y="0"/>
    </contour>
  </outline>
</glyph>
<glyph name="f" format="1">
  <advance width="416"/>
  <unicode hex="0066"/>
  <outline>
    <contour>
      <point x="23" y="423" type="curve"/>
      <point x="391" y="423" type="line"/>
      <point x="391" y="533"/>
      <point x="391" y="423"/>
      <point x="391" y="533" type="curve"/>
      <point x="23" y="533" type="line"/>
      <point x="23" y="423"/>
      <point x="23" y="533"/>
    </contour>
    <contour>
      <point x="256" y="0" type="curve"/>
      <point x="256" y="604" type="line"/>
      <point x="255" y="655"/>
      <point x="264" y="698"/>
      <point x="313" y="698" type="curve"/>
      <point x="335" y="698"/>
      <point x="355" y="690"/>
      <point x="375" y="680" type="curve"/>
      <point x="434" y="768"/>
      <point x="375" y="680"/>
      <point x="434" y="768" type="curve"/>
      <point x="397" y="788"/>
      <point x="355" y="804"/>
      <point x="313" y="804" type="curve"/>
      <point x="188" y="804"/>
      <point x="109" y="727"/>
      <point x="110" y="604" type="curve"/>
      <point x="110" y="0" type="line"/>
      <point x="256" y="0"/>
      <point x="110" y="0"/>
    </contour>
  </outline>
</glyph>
<glyph name="g" format="1">
  <advance width="551"/>
  <unicode hex="0067"/>
  <outline>
    <contour>
      <point x="382" y="430" type="curve"/>
      <point x="523" y="493" type="line"/>
      <point x="523" y="493"/>
      <point x="466" y="596"/>
      <point x="466" y="597" type="curve"/>
      <point x="306" y="515" type="line"/>
      <point x="382" y="430"/>
      <point x="306" y="515"/>
    </contour>
    <contour>
      <point x="190" y="336" type="curve"/>
      <point x="190" y="390"/>
      <point x="222" y="428"/>
      <point x="275" y="428" type="curve"/>
      <point x="328" y="428"/>
      <point x="356" y="389"/>
      <point x="356" y="335" type="curve"/>
      <point x="356" y="285"/>
      <point x="328" y="250"/>
      <point x="276" y="250" type="curve"/>
      <point x="225" y="250"/>
      <point x="190" y="283"/>
      <point x="190" y="336" type="curve"/>
      <point x="45" y="331"/>
      <point x="190" y="336"/>
      <point x="45" y="331" type="curve"/>
      <point x="45" y="210"/>
      <point x="140" y="140"/>
      <point x="268" y="140" type="curve"/>
      <point x="401" y="140"/>
      <point x="501" y="212"/>
      <point x="501" y="339" type="curve"/>
      <point x="501" y="464"/>
      <point x="405" y="538"/>
      <point x="275" y="538" type="curve"/>
      <point x="141" y="538"/>
      <point x="45" y="460"/>
      <point x="45" y="331" type="curve"/>
      <point x="190" y="336"/>
      <point x="45" y="331"/>
    </contour>
    <contour>
      <point x="152" y="246" type="curve"/>
      <point x="93" y="215"/>
      <point x="49" y="178"/>
      <point x="49" y="112" type="curve"/>
      <point x="49" y="10"/>
      <point x="145" y="-24"/>
      <point x="257" y="-34" type="curve"/>
      <point x="334" y="-40"/>
      <point x="409" y="-49"/>
      <point x="409" y="-118" type="curve"/>
      <point x="409" y="-177"/>
      <point x="346" y="-195"/>
      <point x="276" y="-195" type="curve"/>
      <point x="210" y="-195"/>
      <point x="156" y="-167"/>
      <point x="156" y="-103" type="curve"/>
      <point x="156" y="-52"/>
      <point x="177" y="-14"/>
      <point x="219" y="3" type="curve"/>
      <point x="147" y="69"/>
      <point x="219" y="3"/>
      <point x="147" y="69" type="curve"/>
      <point x="67" y="37"/>
      <point x="11" y="-17"/>
      <point x="11" y="-108" type="curve"/>
      <point x="11" y="-244"/>
      <point x="126" y="-305"/>
      <point x="269" y="-305" type="curve"/>
      <point x="419" y="-305"/>
      <point x="544" y="-248"/>
      <point x="541" y="-108" type="curve"/>
      <point x="541" y="24"/>
      <point x="420" y="61"/>
      <point x="283" y="71" type="curve"/>
      <point x="237" y="75"/>
      <point x="194" y="86"/>
      <point x="194" y="123" type="curve"/>
      <point x="194" y="148"/>
      <point x="204" y="162"/>
      <point x="224" y="176" type="curve"/>
      <point x="152" y="246"/>
      <point x="224" y="176"/>
    </contour>
    <contour>
      <point x="270" y="611" type="move" name="top"/>
    </contour>
  </outline>
</glyph>
<glyph name="h" format="1">
  <advance width="583"/>
  <unicode hex="0068"/>
  <outline>
    <contour>
      <point x="167" y="293" type="curve"/>
      <point x="191" y="364"/>
      <point x="238" y="424"/>
      <point x="305" y="424" type="curve"/>
      <point x="371" y="424"/>
      <point x="387" y="372"/>
      <point x="387" y="304" type="curve"/>
      <point x="387" y="202"/>
      <point x="387" y="103"/>
      <point x="387" y="0" type="curve"/>
      <point x="533" y="0"/>
      <point x="387" y="0"/>
      <point x="533" y="0" type="curve"/>
      <point x="533" y="106"/>
      <point x="533" y="213"/>
      <point x="533" y="319" type="curve"/>
      <point x="533" y="452"/>
      <point x="477" y="534"/>
      <point x="341" y="534" type="curve"/>
      <point x="238" y="534"/>
      <point x="154" y="457"/>
      <point x="120" y="347" type="curve"/>
      <point x="168" y="292"/>
      <point x="119" y="348"/>
    </contour>
    <contour>
      <point x="199" y="0" type="curve"/>
      <point x="199" y="267"/>
      <point x="199" y="533"/>
      <point x="199" y="800" type="curve"/>
      <point x="54" y="800"/>
      <point x="199" y="800"/>
      <point x="54" y="800" type="curve"/>
      <point x="54" y="533"/>
      <point x="54" y="267"/>
      <point x="54" y="0" type="curve"/>
      <point x="199" y="0"/>
      <point x="54" y="0"/>
    </contour>
  </outline>
</glyph>
<glyph name="i" format="1">
  <advance width="250"/>
  <unicode hex="0069"/>
  <outline>
    <contour>
      <point x="202" y="0" type="curve"/>
      <point x="202" y="178"/>
      <point x="202" y="355"/>
      <point x="202" y="533" type="curve"/>
      <point x="50" y="533"/>
      <point x="202" y="533"/>
      <point x="50" y="533" type="curve"/>
      <point x="50" y="355"/>
      <point x="50" y="178"/>
      <point x="50" y="0" type="curve"/>
      <point x="202" y="0"/>
      <point x="50" y="0"/>
    </contour>
    <contour>
      <point x="201" y="680" type="curve"/>
      <point x="201" y="729"/>
      <point x="167" y="752"/>
      <point x="121" y="752" type="curve"/>
      <point x="75" y="752"/>
      <point x="44" y="726"/>
      <point x="44" y="680" type="curve"/>
      <point x="201" y="680"/>
      <point x="44" y="680"/>
      <point x="201" y="680" type="curve"/>
      <point x="201" y="631"/>
      <point x="168" y="609"/>
      <point x="121" y="609" type="curve"/>
      <point x="74" y="609"/>
      <point x="44" y="633"/>
      <point x="44" y="680" type="curve"/>
      <point x="201" y="680"/>
      <point x="44" y="680"/>
    </contour>
    <contour>
      <point x="121" y="612" type="move" name="top"/>
    </contour>
    <contour>
      <point x="191" y="7" type="move" name="bottom"/>
    </contour>
  </outline>
</glyph>
<glyph name="j" format="1">
  <advance width="267"/>
  <unicode hex="006A"/>
  <outline>
    <contour>
      <point x="-17" y="-303" type="curve"/>
      <point x="-8" y="-304"/>
      <point x="3" y="-305"/>
      <point x="15" y="-305" type="curve"/>
      <point x="134" y="-305"/>
      <point x="222" y="-236"/>
      <point x="222" y="-120" type="curve"/>
      <point x="222" y="98"/>
      <point x="222" y="316"/>
      <point x="222" y="534" type="curve"/>
      <point x="77" y="534"/>
      <point x="222" y="534"/>
      <point x="77" y="534" type="curve"/>
      <point x="77" y="316"/>
      <point x="77" y="98"/>
      <point x="77" y="-120" type="curve"/>
      <point x="77" y="-164"/>
      <point x="62" y="-200"/>
      <point x="21" y="-200" type="curve"/>
      <point x="14" y="-200"/>
      <point x="9" y="-199"/>
      <point x="3" y="-198" type="curve"/>
      <point x="-17" y="-303"/>
      <point x="3" y="-199"/>
    </contour>
    <contour>
      <point x="226" y="674" type="curve"/>
      <point x="226" y="723"/>
      <point x="193" y="746"/>
      <point x="147" y="746" type="curve"/>
      <point x="101" y="746"/>
      <point x="70" y="721"/>
      <point x="70" y="674" type="curve"/>
      <point x="226" y="674"/>
      <point x="70" y="674"/>
      <point x="226" y="674" type="curve"/>
      <point x="226" y="625"/>
      <point x="193" y="604"/>
      <point x="147" y="604" type="curve"/>
      <point x="100" y="604"/>
      <point x="70" y="627"/>
      <point x="70" y="674" type="curve"/>
      <point x="226" y="674"/>
      <point x="70" y="674"/>
    </contour>
  </outline>
</glyph>
<glyph name="m" format="1">
  <advance width="845"/>
  <unicode hex="006D"/>
  <outline>
    <contour>
      <point x="464" y="269" type="curve"/>
      <point x="491" y="347"/>
      <point x="516" y="423"/>
      <point x="581" y="423" type="curve"/>
      <point x="645" y="423"/>
      <point x="649" y="378"/>
      <point x="649" y="308" type="curve"/>
      <point x="649" y="205"/>
      <point x="649" y="103"/>
      <point x="649" y="0" type="curve"/>
      <point x="794" y="0"/>
      <point x="649" y="0"/>
      <point x="794" y="0" type="curve"/>
      <point x="794" y="106"/>
      <point x="794" y="213"/>
      <point x="794" y="319" type="curve"/>
      <point x="794" y="457"/>
      <point x="764" y="538"/>
      <point x="627" y="538" type="curve"/>
      <point x="522" y="538"/>
      <point x="457" y="453"/>
      <point x="416" y="331" type="curve"/>
      <point x="468" y="271"/>
      <point x="413" y="329"/>
    </contour>
    <contour>
      <point x="167" y="270" type="curve"/>
      <point x="192" y="349"/>
      <point x="217" y="423"/>
      <point x="284" y="423" type="curve"/>
      <point x="347" y="423"/>
      <point x="351" y="378"/>
      <point x="351" y="308" type="curve"/>
      <point x="351" y="205"/>
      <point x="351" y="103"/>
      <point x="351" y="0" type="curve"/>
      <point x="497" y="0"/>
      <point x="351" y="0"/>
      <point x="497" y="0" type="curve"/>
      <point x="497" y="106"/>
      <point x="497" y="213"/>
      <point x="497" y="319" type="curve"/>
      <point x="497" y="457"/>
      <point x="467" y="538"/>
      <point x="331" y="538" type="curve"/>
      <point x="224" y="538"/>
      <point x="166" y="457"/>
      <point x="119" y="333" type="curve"/>
      <point x="171" y="272"/>
      <point x="115" y="331"/>
    </contour>
    <contour>
      <point x="199" y="0" type="curve"/>
      <point x="199" y="178"/>
      <point x="199" y="355"/>
      <point x="199" y="533" type="curve"/>
      <point x="54" y="533"/>
      <point x="199" y="533"/>
      <point x="54" y="533" type="curve"/>
      <point x="54" y="355"/>
      <point x="54" y="178"/>
      <point x="54" y="0" type="curve"/>
      <point x="199" y="0"/>
      <point x="54" y="0"/>
    </contour>
  </outline>
</glyph>
<glyph name="n" format="1">
  <advance width="582"/>
  <unicode hex="006E"/>
  <outline>
    <contour>
      <point x="170" y="260" type="curve"/>
      <point x="189" y="347"/>
      <point x="231" y="423"/>
      <point x="301" y="423" type="curve"/>
      <point x="365" y="423"/>
      <point x="387" y="376"/>
      <point x="387" y="308" type="curve"/>
      <point x="387" y="203"/>
      <point x="387" y="105"/>
      <point x="387" y="0" type="curve"/>
      <point x="506" y="0"/>
      <point x="414" y="0"/>
      <point x="532" y="0" type="curve"/>
      <point x="532" y="109"/>
      <point x="532" y="210"/>
      <point x="532" y="319" type="curve"/>
      <point x="532" y="453"/>
      <point x="481" y="538"/>
      <point x="348" y="538" type="curve"/>
      <point x="236" y="538"/>
      <point x="154" y="457"/>
      <point x="119" y="319" type="curve"/>
      <point x="156" y="269"/>
      <point x="132" y="310"/>
    </contour>
    <contour>
      <point x="199" y="0" type="curve"/>
      <point x="199" y="178"/>
      <point x="199" y="355"/>
      <point x="199" y="533" type="curve"/>
      <point x="54" y="533"/>
      <point x="199" y="533"/>
      <point x="54" y="533" type="curve"/>
      <point x="54" y="355"/>
      <point x="54" y="178"/>
      <point x="54" y="0" type="curve"/>
      <point x="199" y="0"/>
      <point x="54" y="0"/>
    </contour>
    <contour>
      <point x="295" y="611" type="move" name="top"/>
    </contour>
    <contour>
      <point x="334" y="13" type="move" name="bottom"/>
    </contour>
  </outline>
</glyph>
<glyph name="p" format="1">
  <advance width="608"/>
  <unicode hex="0070"/>
  <outline>
    <contour>
      <point x="163" y="294" type="curve"/>
      <point x="193" y="365"/>
      <point x="244" y="426"/>
      <point x="312" y="426" type="curve"/>
      <point x="403" y="426"/>
      <point x="430" y="353"/>
      <point x="430" y="262" type="curve"/>
      <point x="431" y="173"/>
      <point x="401" y="105"/>
      <point x="313" y="105" type="curve"/>
      <point x="254" y="105"/>
      <point x="208" y="129"/>
      <point x="166" y="171" type="curve"/>
      <point x="122" y="121"/>
      <point x="156" y="155"/>
      <point x="111" y="106" type="curve"/>
      <point x="172" y="35"/>
      <point x="244" y="-5"/>
      <point x="340" y="-5" type="curve"/>
      <point x="499" y="-5"/>
      <point x="575" y="111"/>
      <point x="575" y="268" type="curve"/>
      <point x="575" y="421"/>
      <point x="503" y="539"/>
      <point x="344" y="539" type="curve"/>
      <point x="243" y="539"/>
      <point x="168" y="469"/>
      <point x="119" y="381" type="curve"/>
      <point x="152" y="307"/>
      <point x="130" y="368"/>
    </contour>
    <contour>
      <point x="199" y="-300" type="curve"/>
      <point x="199" y="-22"/>
      <point x="199" y="255"/>
      <point x="199" y="533" type="curve"/>
      <point x="54" y="533"/>
      <point x="199" y="533"/>
      <point x="54" y="533" type="curve"/>
      <point x="54" y="255"/>
      <point x="54" y="-22"/>
      <point x="54" y="-300" type="curve"/>
      <point x="199" y="-300"/>
      <point x="54" y="-300"/>
    </contour>
  </outline>
</glyph>
<glyph name="q" format="1">
  <advance width="612"/>
  <unicode hex="0071"/>
  <outline>
    <contour>
      <point x="494" y="391" type="curve"/>
      <point x="440" y="480"/>
      <point x="365" y="538"/>
      <point x="267" y="538" type="curve"/>
      <point x="106" y="538"/>
      <point x="31" y="422"/>
      <point x="32" y="264" type="curve"/>
      <point x="32" y="107"/>
      <point x="112" y="-5"/>
      <point x="272" y="-5" type="curve"/>
      <point x="368" y="-5"/>
      <point x="441" y="55"/>
      <point x="500" y="134" type="curve"/>
      <point x="460" y="185"/>
      <point x="484" y="145"/>
      <point x="444" y="195" type="curve"/>
      <point x="408" y="140"/>
      <point x="359" y="105"/>
      <point x="295" y="105" type="curve"/>
      <point x="209" y="105"/>
      <point x="177" y="178"/>
      <point x="177" y="270" type="curve"/>
      <point x="177" y="357"/>
      <point x="211" y="425"/>
      <point x="293" y="425" type="curve"/>
      <point x="356" y="425"/>
      <point x="402" y="395"/>
      <point x="449" y="325" type="curve"/>
      <point x="478" y="380"/>
      <point x="465" y="336"/>
    </contour>
    <contour>
      <point x="558" y="-300" type="curve"/>
      <point x="558" y="-14"/>
      <point x="558" y="247"/>
      <point x="558" y="533" type="curve"/>
      <point x="434" y="533"/>
      <point x="530" y="533"/>
      <point x="406" y="533" type="curve"/>
      <point x="406" y="247"/>
      <point x="406" y="-14"/>
      <point x="406" y="-300" type="curve"/>
      <point x="530" y="-300"/>
      <point x="434" y="-300"/>
    </contour>
  </outline>
</glyph>
<glyph name="r" format="1">
  <advance width="370"/>
  <unicode hex="0072"/>
  <outline>
    <contour>
      <point x="199" y="0" type="curve"/>
      <point x="199" y="185"/>
      <point x="199" y="348"/>
      <point x="199" y="533" type="curve"/>
      <point x="80" y="533"/>
      <point x="174" y="533"/>
      <point x="54" y="533" type="curve"/>
      <point x="54" y="348"/>
      <point x="54" y="185"/>
      <point x="54" y="0" type="curve"/>
      <point x="174" y="0"/>
      <point x="80" y="0"/>
    </contour>
    <contour>
      <point x="167" y="276" type="curve"/>
      <point x="208" y="392"/>
      <point x="274" y="418"/>
      <point x="360" y="418" type="curve"/>
      <point x="360" y="515"/>
      <point x="360" y="441"/>
      <point x="360" y="538" type="curve"/>
      <point x="244" y="538"/>
      <point x="167" y="455"/>
      <point x="117" y="337" type="curve"/>
      <point x="157" y="288"/>
      <point x="126" y="325"/>
    </contour>
    <contour>
      <point x="156" y="611" type="move" name="top"/>
    </contour>
    <contour>
      <point x="175" y="9" type="move" name="bottom"/>
    </contour>
  </outline>
</glyph>
<glyph name="t" format="1">
  <advance width="391"/>
  <unicode hex="0074"/>
  <outline>
    <contour>
      <point x="30" y="422" type="curve"/>
      <point x="367" y="422" type="line"/>
      <point x="367" y="533"/>
      <point x="367" y="422"/>
      <point x="367" y="533" type="curve"/>
      <point x="30" y="533" type="line"/>
      <point x="30" y="422"/>
      <point x="30" y="533"/>
    </contour>
    <contour>
      <point x="333" y="125" type="curve"/>
      <point x="315" y="114"/>
      <point x="302" y="110"/>
      <point x="283" y="110" type="curve"/>
      <point x="247" y="110"/>
      <point x="240" y="137"/>
      <point x="240" y="175" type="curve"/>
      <point x="240" y="684" type="line"/>
      <point x="137" y="619"/>
      <point x="198" y="661"/>
      <point x="95" y="596" type="curve"/>
      <point x="95" y="170" type="line"/>
      <point x="95" y="56"/>
      <point x="155" y="-6"/>
      <point x="264" y="-6" type="curve"/>
      <point x="313" y="-6"/>
      <point x="347" y="8"/>
      <point x="385" y="30" type="curve"/>
      <point x="333" y="125"/>
      <point x="385" y="30"/>
    </contour>
    <contour>
      <point x="305" y="7" type="move" name="bottom"/>
    </contour>
  </outline>
</glyph>
<glyph name="v" format="1">
  <advance width="565"/>
  <unicode hex="0076"/>
  <outline>
    <contour>
      <point x="11" y="533" type="curve"/>
      <point x="74" y="355"/>
      <point x="136" y="178"/>
      <point x="198" y="0" type="curve"/>
      <point x="336" y="0"/>
      <point x="198" y="0"/>
      <point x="336" y="0" type="curve"/>
      <point x="275" y="177"/>
      <point x="220" y="356"/>
      <point x="159" y="533" type="curve"/>
      <point x="11" y="533"/>
      <point x="159" y="533"/>
    </contour>
    <contour>
      <point x="411" y="533" type="curve"/>
      <point x="223" y="0" type="line"/>
      <point x="362" y="0"/>
      <point x="223" y="0"/>
      <point x="362" y="0" type="curve"/>
      <point x="427" y="178"/>
      <point x="492" y="355"/>
      <point x="558" y="533" type="curve"/>
      <point x="411" y="533"/>
      <point x="558" y="533"/>
    </contour>
  </outline>
</glyph>
<glyph name="w" format="1">
  <advance width="835"/>
  <unicode hex="0077"/>
  <outline>
    <contour>
      <point x="305" y="0" type="curve"/>
      <point x="366" y="178"/>
      <point x="427" y="355"/>
      <point x="487" y="533" type="curve"/>
      <point x="355" y="533"/>
      <point x="487" y="533"/>
      <point x="355" y="533" type="curve"/>
      <point x="295" y="355"/>
      <point x="236" y="178"/>
      <point x="176" y="0" type="curve"/>
      <point x="305" y="0"/>
      <point x="176" y="0"/>
    </contour>
    <contour>
      <point x="693" y="533" type="curve"/>
      <point x="637" y="355"/>
      <point x="581" y="178"/>
      <point x="526" y="0" type="curve"/>
      <point x="654" y="0"/>
      <point x="526" y="0"/>
      <point x="654" y="0" type="curve"/>
      <point x="711" y="178"/>
      <point x="768" y="355"/>
      <point x="824" y="533" type="curve"/>
      <point x="693" y="533"/>
      <point x="824" y="533"/>
    </contour>
    <contour>
      <point x="361" y="533" type="curve"/>
      <point x="415" y="355"/>
      <point x="470" y="178"/>
      <point x="524" y="0" type="curve"/>
      <point x="654" y="0"/>
      <point x="524" y="0"/>
      <point x="654" y="0" type="curve"/>
      <point x="600" y="178"/>
      <point x="545" y="355"/>
      <point x="491" y="533" type="curve"/>
      <point x="361" y="533"/>
      <point x="491" y="533"/>
    </contour>
    <contour>
      <point x="12" y="533" type="curve"/>
      <point x="66" y="355"/>
      <point x="121" y="178"/>
      <point x="176" y="0" type="curve"/>
      <point x="304" y="0"/>
      <point x="176" y="0"/>
      <point x="304" y="0" type="curve"/>
      <point x="250" y="178"/>
      <point x="197" y="355"/>
      <point x="143" y="533" type="curve"/>
      <point x="12" y="533"/>
      <point x="143" y="533"/>
    </contour>
  </outline>
</glyph>
<glyph name="x" format="1">
  <advance width="583"/>
  <unicode hex="0078"/>
  <outline>
    <contour>
      <point x="573" y="0" type="curve"/>
      <point x="571" y="4"/>
      <point x="162" y="529"/>
      <point x="160" y="533" type="curve"/>
      <point x="-15" y="533"/>
      <point x="184" y="533"/>
      <point x="9" y="533" type="curve"/>
      <point x="11" y="529"/>
      <point x="415" y="4"/>
      <point x="417" y="0" type="curve"/>
      <point x="573" y="0"/>
      <point x="417" y="0"/>
    </contour>
    <contour>
      <point x="428" y="533" type="curve"/>
      <point x="425" y="529"/>
      <point x="11" y="4"/>
      <point x="8" y="0" type="curve"/>
      <point x="164" y="0"/>
      <point x="8" y="0"/>
      <point x="164" y="0" type="curve"/>
      <point x="167" y="4"/>
      <point x="576" y="529"/>
      <point x="578" y="533" type="curve"/>
      <point x="394" y="533"/>
      <point x="612" y="533"/>
    </contour>
  </outline>
</glyph>
<glyph name="y" format="1">
  <advance width="586"/>
  <unicode hex="0079"/>
  <outline>
    <contour>
      <point x="350" y="-19" type="curve"/>
      <point x="307" y="116"/>
      <point x="199" y="397"/>
      <point x="155" y="533" type="curve"/>
      <point x="6" y="533"/>
      <point x="155" y="533"/>
      <point x="6" y="533" type="curve"/>
      <point x="54" y="399"/>
      <point x="171" y="111"/>
      <point x="219" y="-23" type="curve"/>
      <point x="350" y="-23"/>
      <point x="219" y="-19"/>
    </contour>
    <contour>
      <point x="241" y="-300" type="curve"/>
      <point x="315" y="-98"/>
      <point x="512" y="331"/>
      <point x="586" y="533" type="curve"/>
      <point x="439" y="533"/>
      <point x="586" y="533"/>
      <point x="439" y="533" type="curve"/>
      <point x="364" y="331"/>
      <point x="167" y="-98"/>
      <point x="93" y="-300" type="curve"/>
      <point x="241" y="-300"/>
      <point x="93" y="-300"/>
    </contour>
    <contour>
      <point x="292" y="611" type="move" name="top"/>
    </contour>
  </outline>
</glyph>
<glyph name="braceleft" format="1">
  <advance width="284"/>
  <unicode hex="007B"/>
  <outline>
    <contour>
      <point x="242" y="2" type="curve"/>
      <point x="208" y="2"/>
      <point x="204" y="31"/>
      <point x="204" y="66" type="curve"/>
      <point x="204" y="117"/>
      <point x="204" y="168"/>
      <point x="204" y="219" type="curve"/>
      <point x="204" y="327"/>
      <point x="140" y="399"/>
      <point x="35" y="399" type="curve"/>
      <point x="35" y="283"/>
      <point x="35" y="399"/>
      <point x="35" y="283" type="curve"/>
      <point x="64" y="283"/>
      <point x="72" y="260"/>
      <point x="72" y="230" type="curve"/>
      <point x="72" y="177"/>
      <point x="72" y="124"/>
      <point x="72" y="72" type="curve"/>
      <point x="72" y="-38"/>
      <point x="134" y="-108"/>
      <point x="242" y="-108" type="curve"/>
      <point x="242" y="2"/>
      <point x="242" y="-108"/>
    </contour>
    <contour>
      <point x="242" y="790" type="curve"/>
      <point x="134" y="790"/>
      <point x="72" y="722"/>
      <point x="72" y="614" type="curve"/>
      <point x="72" y="559"/>
      <point x="72" y="504"/>
      <point x="72" y="449" type="curve"/>
      <point x="72" y="419"/>
      <point x="63" y="399"/>
      <point x="35" y="399" type="curve"/>
      <point x="35" y="283"/>
      <point x="35" y="399"/>
      <point x="35" y="283" type="curve"/>
      <point x="141" y="283"/>
      <point x="204" y="355"/>
      <point x="204" y="466" type="curve"/>
      <point x="204" y="515"/>
      <point x="204" y="564"/>
      <point x="204" y="614" type="curve"/>
      <point x="204" y="650"/>
      <point x="207" y="679"/>
      <point x="242" y="679" type="curve"/>
      <point x="242" y="790"/>
      <point x="242" y="679"/>
    </contour>
  </outline>
</glyph>
<glyph name="braceright" format="1">
  <advance width="284"/>
  <unicode hex="007D"/>
  <outline>
    <contour>
      <point x="41" y="-108" type="curve"/>
      <point x="148" y="-108"/>
      <point x="211" y="-38"/>
      <point x="211" y="72" type="curve"/>
      <point x="211" y="124"/>
      <point x="211" y="177"/>
      <point x="211" y="230" type="curve"/>
      <point x="211" y="260"/>
      <point x="218" y="283"/>
      <point x="248" y="283" type="curve"/>
      <point x="248" y="399"/>
      <point x="248" y="283"/>
      <point x="248" y="399" type="curve"/>
      <point x="141" y="399"/>
      <point x="79" y="327"/>
      <point x="79" y="219" type="curve"/>
      <point x="79" y="168"/>
      <point x="79" y="117"/>
      <point x="79" y="66" type="curve"/>
      <point x="79" y="31"/>
      <point x="74" y="2"/>
      <point x="41" y="2" type="curve"/>
      <point x="41" y="-108"/>
      <point x="41" y="2"/>
    </contour>
    <contour>
      <point x="41" y="679" type="curve"/>
      <point x="75" y="679"/>
      <point x="79" y="650"/>
      <point x="79" y="614" type="curve"/>
      <point x="79" y="564"/>
      <point x="79" y="515"/>
      <point x="79" y="466" type="curve"/>
      <point x="79" y="355"/>
      <point x="140" y="283"/>
      <point x="248" y="283" type="curve"/>
      <point x="248" y="399"/>
      <point x="248" y="283"/>
      <point x="248" y="399" type="curve"/>
      <point x="219" y="399"/>
      <point x="211" y="419"/>
      <point x="211" y="449" type="curve"/>
      <point x="211" y="504"/>
      <point x="211" y="559"/>
      <point x="211" y="614" type="curve"/>
      <point x="211" y="722"/>
      <point x="148" y="790"/>
      <point x="41" y="790" type="curve"/>
      <point x="41" y="679"/>
      <point x="41" y="790"/>
    </contour>
  </outline>
</glyph>
<glyph name="asciitilde" format="1">
  <advance width="630"/>
  <unicode hex="007E"/>
  <outline>
    <contour>
      <point x="475" y="380" type="curve"/>
      <point x="462" y="341"/>
      <point x="448" y="308"/>
      <point x="421" y="308" type="curve"/>
      <point x="394" y="308"/>
      <point x="379" y="315"/>
      <point x="358" y="331" type="curve"/>
      <point x="310" y="372"/>
      <point x="277" y="393"/>
      <point x="213" y="393" type="curve"/>
      <point x="115" y="393"/>
      <point x="67" y="340"/>
      <point x="40" y="244" type="curve"/>
      <point x="84" y="227"/>
      <point x="108" y="218"/>
      <point x="152" y="202" type="curve"/>
      <point x="163" y="243"/>
      <point x="179" y="277"/>
      <point x="209" y="277" type="curve"/>
      <point x="235" y="277"/>
      <point x="248" y="270"/>
      <point x="268" y="254" type="curve"/>
      <point x="319" y="213"/>
      <point x="353" y="193"/>
      <point x="418" y="192" type="curve"/>
      <point x="514" y="192"/>
      <point x="556" y="246"/>
      <point x="589" y="339" type="curve"/>
      <point x="544" y="355"/>
      <point x="520" y="364"/>
    </contour>
  </outline>
</glyph>
<glyph name="exclamdown" format="1">
  <advance width="258"/>
  <unicode hex="00A1"/>
  <outline>
    <contour>
      <point x="64" y="302" type="line"/>
      <point x="50" y="-191" type="line"/>
      <point x="209" y="-192" type="line"/>
      <point x="198" y="301" type="line"/>
    </contour>
    <contour>
      <point x="54" y="469" type="curve"/>
      <point x="54" y="420"/>
      <point x="87" y="397"/>
      <point x="132" y="396" type="curve"/>
      <point x="178" y="396"/>
      <point x="210" y="422"/>
      <point x="210" y="468" type="curve"/>
      <point x="54" y="469"/>
      <point x="210" y="468"/>
      <point x="54" y="469" type="curve"/>
      <point x="54" y="518"/>
      <point x="87" y="540"/>
      <point x="133" y="539" type="curve"/>
      <point x="180" y="539"/>
      <point x="210" y="515"/>
      <point x="210" y="468" type="curve"/>
      <point x="54" y="469"/>
      <point x="210" y="468"/>
    </contour>
  </outline>
</glyph>
<glyph name="cent" format="1">
  <advance width="607"/>
  <unicode hex="00A2"/>
  <outline>
    <contour>
      <point x="401" y="-53" type="curve"/>
      <point x="401" y="-13"/>
      <point x="401" y="27"/>
      <point x="401" y="67" type="curve"/>
      <point x="256" y="67"/>
      <point x="401" y="67"/>
      <point x="256" y="67" type="curve"/>
      <point x="256" y="27"/>
      <point x="256" y="-13"/>
      <point x="256" y="-53" type="curve"/>
      <point x="401" y="-53"/>
      <point x="256" y="-53"/>
    </contour>
    <contour>
      <point x="275" y="778" type="curve"/>
      <point x="275" y="742"/>
      <point x="275" y="706"/>
      <point x="275" y="670" type="curve"/>
      <point x="420" y="670"/>
      <point x="275" y="670"/>
      <point x="420" y="670" type="curve"/>
      <point x="420" y="706"/>
      <point x="420" y="742"/>
      <point x="420" y="778" type="curve"/>
      <point x="275" y="778"/>
      <point x="420" y="778"/>
    </contour>
    <contour>
      <point x="579" y="612" type="curve"/>
      <point x="505" y="667"/>
      <point x="444" y="687"/>
      <point x="357" y="687" type="curve"/>
      <point x="157" y="687"/>
      <point x="32" y="564"/>
      <point x="32" y="363" type="curve"/>
      <point x="32" y="172"/>
      <point x="136" y="45"/>
      <point x="322" y="45" type="curve"/>
      <point x="426" y="45"/>
      <point x="499" y="71"/>
      <point x="576" y="143" type="curve"/>
      <point x="493" y="230"/>
      <point x="576" y="143"/>
      <point x="493" y="230" type="curve"/>
      <point x="438" y="188"/>
      <point x="399" y="161"/>
      <point x="335" y="161" type="curve"/>
      <point x="227" y="161"/>
      <point x="177" y="249"/>
      <point x="177" y="369" type="curve"/>
      <point x="177" y="488"/>
      <point x="238" y="571"/>
      <point x="343" y="571" type="curve"/>
      <point x="405" y="571"/>
      <point x="447" y="554"/>
      <point x="502" y="518" type="curve"/>
      <point x="579" y="612"/>
      <point x="502" y="518"/>
    </contour>
  </outline>
</glyph>
<glyph name="sterling" format="1">
  <advance width="466"/>
  <unicode hex="00A3"/>
  <outline>
    <contour>
      <point x="407" y="111" type="curve"/>
      <point x="287" y="111"/>
      <point x="160" y="111"/>
      <point x="41" y="111" type="curve"/>
      <point x="41" y="0"/>
      <point x="41" y="111"/>
      <point x="41" y="0" type="curve"/>
      <point x="160" y="0"/>
      <point x="286" y="0"/>
      <point x="407" y="0" type="curve"/>
      <point x="407" y="111"/>
      <point x="407" y="0"/>
    </contour>
    <contour>
      <point x="359" y="430" type="curve"/>
      <point x="263" y="430"/>
      <point x="159" y="430"/>
      <point x="64" y="430" type="curve"/>
      <point x="64" y="320"/>
      <point x="64" y="430"/>
      <point x="64" y="320" type="curve"/>
      <point x="159" y="320"/>
      <point x="263" y="320"/>
      <point x="359" y="320" type="curve"/>
      <point x="359" y="430"/>
      <point x="359" y="320"/>
    </contour>
    <contour>
      <point x="440" y="661" type="curve"/>
      <point x="393" y="707"/>
      <point x="352" y="720"/>
      <point x="293" y="720" type="curve"/>
      <point x="124" y="720"/>
      <point x="65" y="558"/>
      <point x="106" y="363" type="curve"/>
      <point x="133" y="232"/>
      <point x="121" y="111"/>
      <point x="41" y="111" type="curve"/>
      <point x="41" y="0"/>
      <point x="41" y="111"/>
      <point x="41" y="0" type="curve"/>
      <point x="224" y="0"/>
      <point x="282" y="177"/>
      <point x="239" y="386" type="curve"/>
      <point x="215" y="504"/>
      <point x="219" y="615"/>
      <point x="286" y="615" type="curve"/>
      <point x="320" y="615"/>
      <point x="341" y="600"/>
      <point x="368" y="579" type="curve"/>
      <point x="440" y="661"/>
      <point x="368" y="579"/>
    </contour>
  </outline>
</glyph>
<glyph name="currency" format="1">
  <advance width="633"/>
  <unicode hex="00A4"/>
  <outline>
    <contour>
      <point x="252" y="317" type="curve"/>
      <point x="252" y="363"/>
      <point x="269" y="400"/>
      <point x="313" y="400" type="curve"/>
      <point x="361" y="400"/>
      <point x="379" y="367"/>
      <point x="379" y="317" type="curve"/>
      <point x="379" y="269"/>
      <point x="363" y="228"/>
      <point x="319" y="228" type="curve"/>
      <point x="270" y="228"/>
      <point x="252" y="266"/>
      <point x="252" y="317" type="curve"/>
      <point x="107" y="317"/>
      <point x="258" y="317"/>
      <point x="113" y="317" type="curve"/>
      <point x="113" y="192"/>
      <point x="193" y="118"/>
      <point x="318" y="118" type="curve"/>
      <point x="442" y="118"/>
      <point x="521" y="196"/>
      <point x="521" y="320" type="curve"/>
      <point x="521" y="438"/>
      <point x="445" y="510"/>
      <point x="326" y="510" type="curve"/>
      <point x="198" y="510"/>
      <point x="113" y="440"/>
      <point x="113" y="317" type="curve"/>
      <point x="258" y="317"/>
      <point x="107" y="317"/>
    </contour>
    <contour>
      <point x="429" y="326" type="line"/>
      <point x="592" y="476" type="line"/>
      <point x="486" y="582" type="line"/>
      <point x="336" y="418" type="line"/>
    </contour>
    <contour>
      <point x="341" y="217" type="line"/>
      <point x="491" y="54" type="line"/>
      <point x="597" y="160" type="line"/>
      <point x="433" y="310" type="line"/>
    </contour>
    <contour>
      <point x="201" y="310" type="line"/>
      <point x="37" y="160" type="line"/>
      <point x="143" y="54" type="line"/>
      <point x="293" y="218" type="line"/>
    </contour>
    <contour>
      <point x="299" y="420" type="line"/>
      <point x="149" y="583" type="line"/>
      <point x="43" y="477" type="line"/>
      <point x="206" y="327" type="line"/>
    </contour>
  </outline>
</glyph>
<glyph name="yen" format="1">
  <advance width="628"/>
  <unicode hex="00A5"/>
  <outline>
    <contour>
      <point x="513" y="428" type="curve"/>
      <point x="450" y="428"/>
      <point x="387" y="428"/>
      <point x="325" y="428" type="curve"/>
      <point x="325" y="306"/>
      <point x="325" y="428"/>
      <point x="325" y="306" type="curve"/>
      <point x="387" y="306"/>
      <point x="450" y="306"/>
      <point x="513" y="306" type="curve"/>
      <point x="513" y="428"/>
      <point x="513" y="306"/>
    </contour>
    <contour>
      <point x="298" y="428" type="curve"/>
      <point x="237" y="428"/>
      <point x="175" y="428"/>
      <point x="113" y="428" type="curve"/>
      <point x="113" y="306"/>
      <point x="113" y="428"/>
      <point x="113" y="306" type="curve"/>
      <point x="175" y="306"/>
      <point x="237" y="306"/>
      <point x="298" y="306" type="curve"/>
      <point x="298" y="428"/>
      <point x="298" y="306"/>
    </contour>
    <contour>
      <point x="513" y="277" type="curve"/>
      <point x="380" y="277"/>
      <point x="246" y="277"/>
      <point x="113" y="277" type="curve"/>
      <point x="113" y="156"/>
      <point x="113" y="277"/>
      <point x="113" y="156" type="curve"/>
      <point x="246" y="156"/>
      <point x="380" y="156"/>
      <point x="513" y="156" type="curve"/>
      <point x="513" y="277"/>
      <point x="513" y="156"/>
    </contour>
    <contour>
      <point x="23" y="722" type="curve"/>
      <point x="90" y="598"/>
      <point x="168" y="464"/>
      <point x="234" y="337" type="curve"/>
      <point x="381" y="337"/>
      <point x="218" y="337"/>
      <point x="365" y="337" type="curve"/>
      <point x="302" y="469"/>
      <point x="241" y="592"/>
      <point x="175" y="722" type="curve"/>
      <point x="36" y="722"/>
      <point x="161" y="722"/>
    </contour>
    <contour>
      <point x="460" y="722" type="curve"/>
      <point x="389" y="590"/>
      <point x="323" y="468"/>
      <point x="251" y="337" type="curve"/>
      <point x="398" y="337"/>
      <point x="242" y="337"/>
      <point x="389" y="337" type="curve"/>
      <point x="460" y="464"/>
      <point x="537" y="597"/>
      <point x="608" y="722" type="curve"/>
      <point x="470" y="722"/>
      <point x="599" y="722"/>
    </contour>
    <contour>
      <point x="391" y="0" type="curve"/>
      <point x="391" y="115"/>
      <point x="391" y="225"/>
      <point x="391" y="340" type="curve"/>
      <point x="232" y="340"/>
      <point x="391" y="340"/>
      <point x="232" y="340" type="curve"/>
      <point x="232" y="225"/>
      <point x="232" y="115"/>
      <point x="232" y="0" type="curve"/>
      <point x="391" y="0"/>
      <point x="232" y="0"/>
    </contour>
  </outline>
</glyph>
<glyph name="section" format="1">
  <advance width="500"/>
  <unicode hex="00A7"/>
  <outline>
    <contour>
      <point x="410" y="700" type="curve"/>
      <point x="356" y="733"/>
      <point x="316" y="748"/>
      <point x="255" y="748" type="curve"/>
      <point x="141" y="748"/>
      <point x="62" y="695"/>
      <point x="62" y="594" type="curve"/>
      <point x="62" y="505"/>
      <point x="118" y="456"/>
      <point x="204" y="426" type="curve"/>
      <point x="260" y="407"/>
      <point x="325" y="402"/>
      <point x="325" y="359" type="curve"/>
      <point x="325" y="312"/>
      <point x="289" y="291"/>
      <point x="239" y="282" type="curve"/>
      <point x="325" y="193"/>
      <point x="239" y="282"/>
      <point x="325" y="193" type="curve"/>
      <point x="416" y="215"/>
      <point x="470" y="270"/>
      <point x="470" y="361" type="curve"/>
      <point x="469" y="465"/>
      <point x="381" y="498"/>
      <point x="276" y="531" type="curve"/>
      <point x="239" y="543"/>
      <point x="201" y="557"/>
      <point x="201" y="594" type="curve"/>
      <point x="201" y="620"/>
      <point x="221" y="638"/>
      <point x="252" y="638" type="curve"/>
      <point x="291" y="638"/>
      <point x="311" y="628"/>
      <point x="346" y="609" type="curve"/>
      <point x="410" y="700"/>
      <point x="346" y="609"/>
    </contour>
    <contour>
      <point x="175" y="528" type="curve"/>
      <point x="89" y="501"/>
      <point x="32" y="454"/>
      <point x="32" y="366" type="curve"/>
      <point x="32" y="268"/>
      <point x="105" y="225"/>
      <point x="203" y="194" type="curve"/>
      <point x="250" y="179"/>
      <point x="302" y="172"/>
      <point x="302" y="131" type="curve"/>
      <point x="302" y="102"/>
      <point x="280" y="84"/>
      <point x="251" y="84" type="curve"/>
      <point x="208" y="84"/>
      <point x="183" y="97"/>
      <point x="143" y="122" type="curve"/>
      <point x="68" y="40"/>
      <point x="143" y="122"/>
      <point x="68" y="40" type="curve"/>
      <point x="126" y="-8"/>
      <point x="176" y="-26"/>
      <point x="247" y="-26" type="curve"/>
      <point x="361" y="-26"/>
      <point x="444" y="25"/>
      <point x="444" y="133" type="curve"/>
      <point x="443" y="223"/>
      <point x="384" y="271"/>
      <point x="296" y="299" type="curve"/>
      <point x="240" y="317"/>
      <point x="177" y="322"/>
      <point x="177" y="369" type="curve"/>
      <point x="177" y="411"/>
      <point x="205" y="432"/>
      <point x="248" y="445" type="curve"/>
      <point x="175" y="528"/>
      <point x="248" y="445"/>
    </contour>
  </outline>
</glyph>
<glyph name="dieresis" format="1">
  <advance width="398"/>
  <unicode hex="00A8"/>
  <outline>
    <contour>
      <point x="176" y="643" type="curve"/>
      <point x="176" y="692"/>
      <point x="142" y="715"/>
      <point x="97" y="715" type="curve"/>
      <point x="50" y="715"/>
      <point x="20" y="690"/>
      <point x="20" y="643" type="curve"/>
      <point x="176" y="643"/>
      <point x="20" y="643"/>
      <point x="176" y="643" type="curve"/>
      <point x="176" y="594"/>
      <point x="143" y="573"/>
      <point x="96" y="573" type="curve"/>
      <point x="49" y="573"/>
      <point x="20" y="596"/>
      <point x="20" y="643" type="curve"/>
      <point x="176" y="643"/>
      <point x="20" y="643"/>
    </contour>
    <contour>
      <point x="385" y="643" type="curve"/>
      <point x="385" y="692"/>
      <point x="351" y="715"/>
      <point x="305" y="715" type="curve"/>
      <point x="259" y="715"/>
      <point x="228" y="690"/>
      <point x="228" y="643" type="curve"/>
      <point x="385" y="643"/>
      <point x="228" y="643"/>
      <point x="385" y="643" type="curve"/>
      <point x="385" y="594"/>
      <point x="352" y="573"/>
      <point x="305" y="573" type="curve"/>
      <point x="258" y="573"/>
      <point x="228" y="596"/>
      <point x="228" y="643" type="curve"/>
      <point x="385" y="643"/>
      <point x="228" y="643"/>
    </contour>
    <contour>
      <point x="201" y="578" type="move" name="_top"/>
    </contour>
  </outline>
</glyph>
<glyph name="copyright" format="1">
  <advance width="731"/>
  <unicode hex="00A9"/>
  <outline>
    <contour>
      <point x="149" y="324" type="curve"/>
      <point x="149" y="461"/>
      <point x="234" y="556"/>
      <point x="367" y="556" type="curve"/>
      <point x="498" y="556"/>
      <point x="580" y="459"/>
      <point x="580" y="322" type="curve"/>
      <point x="580" y="190"/>
      <point x="501" y="94"/>
      <point x="375" y="94" type="curve"/>
      <point x="241" y="94"/>
      <point x="149" y="187"/>
      <point x="149" y="324" type="curve"/>
      <point x="33" y="324"/>
      <point x="152" y="324"/>
      <point x="35" y="324" type="curve"/>
      <point x="35" y="131"/>
      <point x="173" y="6"/>
      <point x="370" y="6" type="curve"/>
      <point x="561" y="6"/>
      <point x="693" y="134"/>
      <point x="693" y="326" type="curve"/>
      <point x="693" y="518"/>
      <point x="559" y="645"/>
      <point x="367" y="645" type="curve"/>
      <point x="172" y="645"/>
      <point x="35" y="519"/>
      <point x="35" y="324" type="curve"/>
      <point x="152" y="324"/>
      <point x="33" y="324"/>
    </contour>
    <contour>
      <point x="515" y="443" type="curve"/>
      <point x="478" y="492"/>
      <point x="429" y="513"/>
      <point x="374" y="513" type="curve"/>
      <point x="254" y="513"/>
      <point x="184" y="441"/>
      <point x="184" y="323" type="curve"/>
      <point x="184" y="209"/>
      <point x="246" y="138"/>
      <point x="358" y="138" type="curve"/>
      <point x="421" y="138"/>
      <point x="465" y="148"/>
      <point x="511" y="199" type="curve"/>
      <point x="446" y="257"/>
      <point x="511" y="199"/>
      <point x="446" y="257" type="curve"/>
      <point x="417" y="237"/>
      <point x="395" y="227"/>
      <point x="363" y="227" type="curve"/>
      <point x="311" y="227"/>
      <point x="294" y="270"/>
      <point x="294" y="327" type="curve"/>
      <point x="294" y="384"/>
      <point x="315" y="425"/>
      <point x="369" y="425" type="curve"/>
      <point x="392" y="425"/>
      <point x="416" y="418"/>
      <point x="440" y="398" type="curve"/>
      <point x="521" y="446"/>
      <point x="435" y="396"/>
    </contour>
  </outline>
</glyph>
<glyph name="ordfeminine" format="1">
  <advance width="381"/>
  <unicode hex="00AA"/>
  <outline>
    <contour>
      <point x="332" y="425" type="curve"/>
      <point x="332" y="505"/>
      <point x="332" y="584"/>
      <point x="332" y="664" type="curve"/>
      <point x="332" y="746"/>
      <point x="272" y="775"/>
      <point x="189" y="775" type="curve"/>
      <point x="129" y="775"/>
      <point x="85" y="754"/>
      <point x="52" y="725" type="curve"/>
      <point x="87" y="664"/>
      <point x="54" y="724"/>
      <point x="89" y="663" type="curve"/>
      <point x="109" y="681"/>
      <point x="136" y="700"/>
      <point x="176" y="700" type="curve"/>
      <point x="212" y="700"/>
      <point x="237" y="686"/>
      <point x="237" y="651" type="curve"/>
      <point x="237" y="575"/>
      <point x="237" y="500"/>
      <point x="237" y="425" type="curve"/>
      <point x="332" y="425"/>
      <point x="238" y="425"/>
    </contour>
    <contour>
      <point x="283" y="652" type="curve"/>
      <point x="237" y="646"/>
      <point x="210" y="644"/>
      <point x="164" y="638" type="curve"/>
      <point x="87" y="629"/>
      <point x="32" y="604"/>
      <point x="32" y="532" type="curve"/>
      <point x="32" y="458"/>
      <point x="77" y="421"/>
      <point x="153" y="421" type="curve"/>
      <point x="227" y="421"/>
      <point x="258" y="472"/>
      <point x="307" y="524" type="curve"/>
      <point x="261" y="563"/>
      <point x="307" y="524"/>
      <point x="261" y="563" type="curve"/>
      <point x="236" y="524"/>
      <point x="215" y="493"/>
      <point x="173" y="493" type="curve"/>
      <point x="141" y="493"/>
      <point x="124" y="506"/>
      <point x="124" y="535" type="curve"/>
      <point x="124" y="558"/>
      <point x="144" y="571"/>
      <point x="165" y="574" type="curve"/>
      <point x="214" y="580"/>
      <point x="237" y="584"/>
      <point x="287" y="591" type="curve"/>
      <point x="283" y="652"/>
      <point x="287" y="591"/>
    </contour>
  </outline>
</glyph>
<glyph name="guillemotleft" format="1">
  <advance width="493"/>
  <unicode hex="00AB"/>
  <outline>
    <contour>
      <point x="223" y="485" type="curve"/>
      <point x="174" y="451"/>
      <point x="85" y="389"/>
      <point x="35" y="355" type="curve"/>
      <point x="35" y="233"/>
      <point x="35" y="341"/>
      <point x="35" y="219" type="curve"/>
      <point x="85" y="253"/>
      <point x="174" y="323"/>
      <point x="223" y="357" type="curve"/>
      <point x="223" y="478"/>
      <point x="223" y="365"/>
    </contour>
    <contour>
      <point x="223" y="219" type="curve"/>
      <point x="174" y="253"/>
      <point x="85" y="321"/>
      <point x="35" y="355" type="curve"/>
      <point x="35" y="233"/>
      <point x="35" y="341"/>
      <point x="35" y="219" type="curve"/>
      <point x="85" y="185"/>
      <point x="174" y="125"/>
      <point x="223" y="91" type="curve"/>
      <point x="223" y="212"/>
      <point x="223" y="98"/>
    </contour>
    <contour>
      <point x="438" y="485" type="curve"/>
      <point x="389" y="451"/>
      <point x="300" y="389"/>
      <point x="249" y="355" type="curve"/>
      <point x="249" y="233"/>
      <point x="249" y="341"/>
      <point x="249" y="219" type="curve"/>
      <point x="300" y="253"/>
      <point x="389" y="323"/>
      <point x="438" y="357" type="curve"/>
      <point x="438" y="478"/>
      <point x="438" y="365"/>
    </contour>
    <contour>
      <point x="438" y="219" type="curve"/>
      <point x="389" y="253"/>
      <point x="300" y="321"/>
      <point x="249" y="355" type="curve"/>
      <point x="249" y="233"/>
      <point x="249" y="341"/>
      <point x="249" y="219" type="curve"/>
      <point x="300" y="185"/>
      <point x="389" y="125"/>
      <point x="438" y="91" type="curve"/>
      <point x="438" y="212"/>
      <point x="438" y="98"/>
    </contour>
  </outline>
</glyph>
<glyph name="logicalnot" format="1">
  <advance width="561"/>
  <unicode hex="00AC"/>
  <outline>
    <contour>
      <point x="53" y="254" type="curve"/>
      <point x="505" y="254" type="line"/>
      <point x="505" y="375"/>
      <point x="505" y="254"/>
      <point x="505" y="375" type="curve"/>
      <point x="53" y="375" type="line"/>
      <point x="53" y="254"/>
      <point x="53" y="375"/>
    </contour>
    <contour>
      <point x="505" y="139" type="curve"/>
      <point x="505" y="375" type="line"/>
      <point x="360" y="375"/>
      <point x="508" y="375"/>
      <point x="363" y="375" type="curve"/>
      <point x="363" y="139" type="line"/>
      <point x="508" y="139"/>
      <point x="360" y="139"/>
    </contour>
  </outline>
</glyph>
<glyph name="registered" format="1">
  <advance width="744"/>
  <unicode hex="00AE"/>
  <outline>
    <contour>
      <point x="139" y="323" type="curve"/>
      <point x="139" y="473"/>
      <point x="228" y="564"/>
      <point x="376" y="564" type="curve"/>
      <point x="522" y="564"/>
      <point x="607" y="471"/>
      <point x="607" y="320" type="curve"/>
      <point x="607" y="175"/>
      <point x="525" y="83"/>
      <point x="383" y="83" type="curve"/>
      <point x="233" y="83"/>
      <point x="139" y="171"/>
      <point x="139" y="323" type="curve"/>
      <point x="101" y="323"/>
      <point x="76" y="323"/>
      <point x="39" y="323" type="curve"/>
      <point x="39" y="120"/>
      <point x="173" y="5"/>
      <point x="378" y="5" type="curve"/>
      <point x="580" y="5"/>
      <point x="706" y="124"/>
      <point x="706" y="325" type="curve"/>
      <point x="706" y="526"/>
      <point x="577" y="644"/>
      <point x="376" y="644" type="curve"/>
      <point x="171" y="644"/>
      <point x="39" y="526"/>
      <point x="39" y="323" type="curve"/>
      <point x="76" y="323"/>
      <point x="101" y="323"/>
    </contour>
    <contour>
      <point x="332" y="319" type="curve"/>
      <point x="345" y="304"/>
      <point x="412" y="157"/>
      <point x="425" y="141" type="curve"/>
      <point x="483" y="141"/>
      <point x="467" y="141"/>
      <point x="529" y="141" type="curve"/>
      <point x="516" y="158"/>
      <point x="450" y="296"/>
      <point x="437" y="313" type="curve"/>
      <point x="309" y="313"/>
      <point x="461" y="319"/>
    </contour>
    <contour>
      <point x="354" y="141" type="curve"/>
      <point x="354" y="242"/>
      <point x="354" y="406"/>
      <point x="354" y="507" type="curve"/>
      <point x="287" y="507"/>
      <point x="318" y="509"/>
      <point x="246" y="509" type="curve"/>
      <point x="246" y="408"/>
      <point x="246" y="242"/>
      <point x="246" y="141" type="curve"/>
      <point x="317" y="141"/>
      <point x="277" y="141"/>
    </contour>
    <contour>
      <point x="306" y="269" type="curve"/>
      <point x="323" y="269"/>
      <point x="340" y="269"/>
      <point x="356" y="269" type="curve"/>
      <point x="448" y="269"/>
      <point x="513" y="302"/>
      <point x="513" y="392" type="curve"/>
      <point x="513" y="468"/>
      <point x="457" y="509"/>
      <point x="379" y="509" type="curve"/>
      <point x="373" y="509"/>
      <point x="286" y="509"/>
      <point x="281" y="509" type="curve"/>
      <point x="247" y="449"/>
      <point x="362" y="509"/>
      <point x="246" y="420" type="curve"/>
      <point x="283" y="420"/>
      <point x="321" y="420"/>
      <point x="357" y="420" type="curve"/>
      <point x="385" y="420"/>
      <point x="407" y="413"/>
      <point x="407" y="388" type="curve"/>
      <point x="407" y="367"/>
      <point x="393" y="357"/>
      <point x="372" y="357" type="curve"/>
      <point x="350" y="357"/>
      <point x="328" y="357"/>
      <point x="306" y="357" type="curve"/>
      <point x="306" y="269"/>
      <point x="306" y="357"/>
    </contour>
  </outline>
</glyph>
<glyph name="macron" format="1">
  <advance width="319"/>
  <unicode hex="00AF"/>
  <outline>
    <contour>
      <point x="225" y="677" type="curve"/>
      <point x="158" y="677"/>
      <point x="91" y="677"/>
      <point x="24" y="677" type="curve"/>
      <point x="24" y="567"/>
      <point x="24" y="677"/>
      <point x="24" y="567" type="curve"/>
      <point x="91" y="567"/>
      <point x="158" y="567"/>
      <point x="225" y="567" type="curve"/>
      <point x="225" y="677"/>
      <point x="225" y="567"/>
    </contour>
    <contour>
      <point x="125" y="567" type="move" name="_top"/>
    </contour>
  </outline>
</glyph>
<glyph name="degree" format="1">
  <advance width="438"/>
  <unicode hex="00B0"/>
  <outline>
    <contour>
      <point x="409" y="585" type="curve"/>
      <point x="409" y="698"/>
      <point x="334" y="765"/>
      <point x="218" y="765" type="curve"/>
      <point x="104" y="765"/>
      <point x="30" y="698"/>
      <point x="30" y="585" type="curve"/>
      <point x="98" y="585"/>
      <point x="82" y="585"/>
      <point x="150" y="585" type="curve"/>
      <point x="150" y="631"/>
      <point x="173" y="663"/>
      <point x="217" y="663" type="curve"/>
      <point x="261" y="663"/>
      <point x="285" y="632"/>
      <point x="285" y="585" type="curve"/>
      <point x="285" y="537"/>
      <point x="264" y="504"/>
      <point x="219" y="504" type="curve"/>
      <point x="174" y="504"/>
      <point x="150" y="538"/>
      <point x="150" y="585" type="curve"/>
      <point x="82" y="585"/>
      <point x="98" y="585"/>
      <point x="30" y="585" type="curve"/>
      <point x="30" y="471"/>
      <point x="103" y="402"/>
      <point x="218" y="402" type="curve"/>
      <point x="334" y="402"/>
      <point x="409" y="470"/>
    </contour>
  </outline>
</glyph>
<glyph name="plusminus" format="1">
  <advance width="632"/>
  <unicode hex="00B1"/>
  <outline>
    <contour>
      <point x="45" y="46" type="line"/>
      <point x="588" y="46" type="line"/>
      <point x="588" y="167" type="line"/>
      <point x="45" y="167" type="line"/>
    </contour>
    <contour>
      <point x="45" y="254" type="curve"/>
      <point x="588" y="254" type="line"/>
      <point x="588" y="375"/>
      <point x="588" y="254"/>
      <point x="588" y="375" type="curve"/>
      <point x="45" y="375" type="line"/>
      <point x="45" y="254"/>
      <point x="45" y="375"/>
    </contour>
    <contour>
      <point x="385" y="47" type="curve"/>
      <point x="385" y="581" type="line"/>
      <point x="240" y="581"/>
      <point x="395" y="581"/>
      <point x="250" y="581" type="curve"/>
      <point x="250" y="47" type="line"/>
      <point x="395" y="47"/>
      <point x="240" y="47"/>
    </contour>
  </outline>
</glyph>
<glyph name="twosuperior" format="1">
  <advance width="428"/>
  <unicode hex="00B2"/>
  <outline>
    <contour>
      <point x="35" y="358" type="curve"/>
      <point x="162" y="358"/>
      <point x="289" y="358"/>
      <point x="388" y="358" type="curve"/>
      <point x="388" y="408"/>
      <point x="388" y="399"/>
      <point x="388" y="452" type="curve"/>
      <point x="278" y="452"/>
      <point x="145" y="452"/>
      <point x="35" y="452" type="curve"/>
      <point x="35" y="358"/>
      <point x="35" y="452"/>
    </contour>
    <contour>
      <point x="135" y="650" type="curve"/>
      <point x="151" y="679"/>
      <point x="168" y="701"/>
      <point x="200" y="701" type="curve"/>
      <point x="231" y="701"/>
      <point x="249" y="682"/>
      <point x="249" y="652" type="curve"/>
      <point x="249" y="618"/>
      <point x="225" y="601"/>
      <point x="201" y="579" type="curve"/>
      <point x="145" y="536"/>
      <point x="90" y="494"/>
      <point x="35" y="452" type="curve"/>
      <point x="35" y="359"/>
      <point x="36" y="452"/>
      <point x="36" y="359" type="curve"/>
      <point x="120" y="412"/>
      <point x="213" y="457"/>
      <point x="274" y="505" type="curve"/>
      <point x="327" y="551"/>
      <point x="370" y="587"/>
      <point x="370" y="656" type="curve"/>
      <point x="370" y="747"/>
      <point x="303" y="795"/>
      <point x="209" y="795" type="curve"/>
      <point x="133" y="795"/>
      <point x="77" y="770"/>
      <point x="48" y="691" type="curve"/>
      <point x="135" y="650"/>
      <point x="48" y="691"/>
    </contour>
    <contour>
      <point x="209" y="796" type="move" name="_top"/>
    </contour>
    <contour>
      <point x="208" y="358" type="move" name="_bottom"/>
    </contour>
  </outline>
</glyph>
<glyph name="threesuperior" format="1">
  <advance width="379"/>
  <unicode hex="00B3"/>
  <outline>
    <contour>
      <point x="95" y="668" type="curve"/>
      <point x="115" y="687"/>
      <point x="137" y="698"/>
      <point x="158" y="698" type="curve"/>
      <point x="188" y="698"/>
      <point x="207" y="685"/>
      <point x="207" y="658" type="curve"/>
      <point x="207" y="625"/>
      <point x="165" y="617"/>
      <point x="122" y="614" type="curve"/>
      <point x="122" y="535"/>
      <point x="122" y="614"/>
      <point x="122" y="535" type="curve"/>
      <point x="236" y="537"/>
      <point x="332" y="566"/>
      <point x="332" y="665" type="curve"/>
      <point x="332" y="753"/>
      <point x="264" y="792"/>
      <point x="171" y="792" type="curve"/>
      <point x="116" y="792"/>
      <point x="64" y="770"/>
      <point x="30" y="732" type="curve"/>
      <point x="95" y="668"/>
      <point x="30" y="732"/>
    </contour>
    <contour>
      <point x="29" y="388" type="curve"/>
      <point x="67" y="365"/>
      <point x="106" y="350"/>
      <point x="150" y="350" type="curve"/>
      <point x="264" y="349"/>
      <point x="347" y="386"/>
      <point x="346" y="488" type="curve"/>
      <point x="346" y="591"/>
      <point x="240" y="602"/>
      <point x="122" y="605" type="curve"/>
      <point x="122" y="535"/>
      <point x="122" y="605"/>
      <point x="122" y="535" type="curve"/>
      <point x="175" y="532"/>
      <point x="221" y="521"/>
      <point x="221" y="485" type="curve"/>
      <point x="221" y="455"/>
      <point x="196" y="441"/>
      <point x="162" y="442" type="curve"/>
      <point x="137" y="442"/>
      <point x="113" y="447"/>
      <point x="86" y="460" type="curve"/>
      <point x="29" y="388"/>
      <point x="86" y="460"/>
    </contour>
    <contour>
      <point x="181" y="792" type="move" name="_top"/>
    </contour>
    <contour>
      <point x="177" y="350" type="move" name="_bottom"/>
    </contour>
  </outline>
</glyph>
<glyph name="paragraph" format="1">
  <advance width="773"/>
  <unicode hex="00B6"/>
  <outline>
    <contour>
      <point x="422" y="612" type="curve"/>
      <point x="574" y="612"/>
      <point x="422" y="612"/>
      <point x="574" y="612" type="curve"/>
      <point x="574" y="722"/>
      <point x="574" y="612"/>
      <point x="574" y="722" type="curve"/>
      <point x="523" y="722"/>
      <point x="472" y="722"/>
      <point x="422" y="722" type="curve"/>
      <point x="422" y="612"/>
      <point x="422" y="722"/>
    </contour>
    <contour>
      <point x="398" y="389" type="curve"/>
      <point x="356" y="368"/>
      <point x="323" y="356"/>
      <point x="276" y="356" type="curve"/>
      <point x="208" y="356"/>
      <point x="171" y="403"/>
      <point x="171" y="474" type="curve"/>
      <point x="171" y="561"/>
      <point x="228" y="612"/>
      <point x="316" y="612" type="curve"/>
      <point x="350" y="612"/>
      <point x="385" y="612"/>
      <point x="419" y="612" type="curve"/>
      <point x="419" y="722"/>
      <point x="419" y="612"/>
      <point x="419" y="722" type="curve"/>
      <point x="378" y="722"/>
      <point x="337" y="722"/>
      <point x="296" y="722" type="curve"/>
      <point x="137" y="722"/>
      <point x="25" y="633"/>
      <point x="25" y="479" type="curve"/>
      <point x="25" y="331"/>
      <point x="134" y="252"/>
      <point x="289" y="250" type="curve"/>
      <point x="346" y="250"/>
      <point x="393" y="270"/>
      <point x="443" y="296" type="curve"/>
      <point x="398" y="389"/>
      <point x="443" y="298"/>
    </contour>
    <contour>
      <point x="495" y="0" type="curve"/>
      <point x="495" y="241"/>
      <point x="495" y="481"/>
      <point x="495" y="722" type="curve"/>
      <point x="350" y="722"/>
      <point x="495" y="722"/>
      <point x="350" y="722" type="curve"/>
      <point x="350" y="481"/>
      <point x="350" y="241"/>
      <point x="350" y="0" type="curve"/>
      <point x="495" y="0"/>
      <point x="350" y="0"/>
    </contour>
    <contour>
      <point x="714" y="0" type="curve"/>
      <point x="714" y="241"/>
      <point x="714" y="481"/>
      <point x="714" y="722" type="curve"/>
      <point x="569" y="722"/>
      <point x="714" y="722"/>
      <point x="569" y="722" type="curve"/>
      <point x="569" y="481"/>
      <point x="569" y="241"/>
      <point x="569" y="0" type="curve"/>
      <point x="714" y="0"/>
      <point x="569" y="0"/>
    </contour>
  </outline>
</glyph>
<glyph name="periodcentered" format="1">
  <advance width="230"/>
  <unicode hex="00B7"/>
  <outline>
    <contour>
      <point x="193" y="440" type="curve"/>
      <point x="193" y="488"/>
      <point x="159" y="512"/>
      <point x="114" y="512" type="curve"/>
      <point x="68" y="512"/>
      <point x="37" y="486"/>
      <point x="37" y="440" type="curve"/>
      <point x="193" y="440"/>
      <point x="37" y="440"/>
      <point x="193" y="440" type="curve"/>
      <point x="193" y="391"/>
      <point x="160" y="369"/>
      <point x="114" y="369" type="curve"/>
      <point x="67" y="369"/>
      <point x="37" y="393"/>
      <point x="37" y="440" type="curve"/>
      <point x="193" y="440"/>
      <point x="37" y="440"/>
    </contour>
  </outline>
</glyph>
<glyph name="cedilla" format="1">
  <advance width="311"/>
  <unicode hex="00B8"/>
  <outline>
    <contour>
      <point x="118" y="167" type="curve"/>
      <point x="106" y="146"/>
      <point x="55" y="49"/>
      <point x="43" y="27" type="curve"/>
      <point x="142" y="-61"/>
      <point x="43" y="27"/>
      <point x="142" y="-61" type="curve"/>
      <point x="157" y="-35"/>
      <point x="215" y="65"/>
      <point x="229" y="91" type="curve"/>
      <point x="118" y="167"/>
      <point x="229" y="91"/>
    </contour>
    <contour>
      <point x="142" y="-61" type="curve"/>
      <point x="147" y="-57"/>
      <point x="151" y="-54"/>
      <point x="157" y="-54" type="curve"/>
      <point x="165" y="-54"/>
      <point x="171" y="-57"/>
      <point x="171" y="-66" type="curve"/>
      <point x="171" y="-79"/>
      <point x="157" y="-83"/>
      <point x="142" y="-83" type="curve"/>
      <point x="122" y="-83"/>
      <point x="105" y="-78"/>
      <point x="83" y="-67" type="curve"/>
      <point x="32" y="-148"/>
      <point x="83" y="-67"/>
      <point x="32" y="-148" type="curve"/>
      <point x="66" y="-167"/>
      <point x="96" y="-176"/>
      <point x="135" y="-176" type="curve"/>
      <point x="214" y="-176"/>
      <point x="272" y="-141"/>
      <point x="272" y="-63" type="curve"/>
      <point x="272" y="9"/>
      <point x="222" y="51"/>
      <point x="149" y="51" type="curve"/>
      <point x="108" y="51"/>
      <point x="80" y="45"/>
      <point x="43" y="27" type="curve"/>
      <point x="142" y="-61"/>
      <point x="43" y="27"/>
    </contour>
    <contour>
      <point x="216" y="91" type="move" name="_bottom"/>
    </contour>
  </outline>
</glyph>
<glyph name="onesuperior" format="1">
  <advance width="289"/>
  <unicode hex="00B9"/>
  <outline>
    <contour>
      <point x="71" y="623" type="line"/>
      <point x="235" y="785" type="line"/>
      <point x="110" y="785" type="line"/>
      <point x="7" y="693" type="line"/>
    </contour>
    <contour>
      <point x="235" y="358" type="curve"/>
      <point x="235" y="785" type="line"/>
      <point x="110" y="785" type="line"/>
      <point x="110" y="358" type="line"/>
      <point x="194" y="358"/>
      <point x="143" y="358"/>
    </contour>
    <contour>
      <point x="160" y="785" type="move" name="_top"/>
    </contour>
    <contour>
      <point x="173" y="358" type="move" name="_bottom"/>
    </contour>
  </outline>
</glyph>
<glyph name="ordmasculine" format="1">
  <advance width="403"/>
  <unicode hex="00BA"/>
  <outline>
    <contour>
      <point x="120" y="597" type="curve"/>
      <point x="120" y="653"/>
      <point x="141" y="700"/>
      <point x="198" y="700" type="curve"/>
      <point x="255" y="700"/>
      <point x="279" y="655"/>
      <point x="279" y="597" type="curve"/>
      <point x="279" y="537"/>
      <point x="257" y="495"/>
      <point x="204" y="495" type="curve"/>
      <point x="143" y="495"/>
      <point x="120" y="536"/>
      <point x="120" y="597" type="curve"/>
      <point x="91" y="597"/>
      <point x="59" y="597"/>
      <point x="30" y="597" type="curve"/>
      <point x="30" y="487"/>
      <point x="93" y="420"/>
      <point x="200" y="420" type="curve"/>
      <point x="308" y="420"/>
      <point x="374" y="486"/>
      <point x="374" y="597" type="curve"/>
      <point x="374" y="706"/>
      <point x="311" y="774"/>
      <point x="202" y="774" type="curve"/>
      <point x="92" y="774"/>
      <point x="30" y="706"/>
      <point x="30" y="597" type="curve"/>
      <point x="59" y="597"/>
      <point x="91" y="597"/>
    </contour>
  </outline>
</glyph>
<glyph name="guillemotright" format="1">
  <advance width="489"/>
  <unicode hex="00BB"/>
  <outline>
    <contour>
      <point x="267" y="485" type="curve"/>
      <point x="317" y="451"/>
      <point x="406" y="389"/>
      <point x="456" y="355" type="curve"/>
      <point x="456" y="233"/>
      <point x="456" y="341"/>
      <point x="456" y="219" type="curve"/>
      <point x="406" y="253"/>
      <point x="317" y="323"/>
      <point x="267" y="357" type="curve"/>
      <point x="267" y="478"/>
      <point x="267" y="365"/>
    </contour>
    <contour>
      <point x="267" y="219" type="curve"/>
      <point x="317" y="253"/>
      <point x="406" y="321"/>
      <point x="456" y="355" type="curve"/>
      <point x="456" y="233"/>
      <point x="456" y="341"/>
      <point x="456" y="219" type="curve"/>
      <point x="406" y="185"/>
      <point x="317" y="125"/>
      <point x="267" y="91" type="curve"/>
      <point x="267" y="212"/>
      <point x="267" y="98"/>
    </contour>
    <contour>
      <point x="52" y="485" type="curve"/>
      <point x="102" y="451"/>
      <point x="191" y="389"/>
      <point x="241" y="355" type="curve"/>
      <point x="241" y="233"/>
      <point x="241" y="341"/>
      <point x="241" y="219" type="curve"/>
      <point x="191" y="253"/>
      <point x="102" y="323"/>
      <point x="52" y="357" type="curve"/>
      <point x="52" y="478"/>
      <point x="52" y="365"/>
    </contour>
    <contour>
      <point x="52" y="219" type="curve"/>
      <point x="102" y="253"/>
      <point x="191" y="321"/>
      <point x="241" y="355" type="curve"/>
      <point x="241" y="233"/>
      <point x="241" y="341"/>
      <point x="241" y="219" type="curve"/>
      <point x="191" y="185"/>
      <point x="102" y="125"/>
      <point x="52" y="91" type="curve"/>
      <point x="52" y="212"/>
      <point x="52" y="98"/>
    </contour>
  </outline>
</glyph>
<glyph name="onequarter" format="1">
  <advance width="931"/>
  <unicode hex="00BC"/>
  <outline>
    <contour>
      <point x="340" y="-35" type="line"/>
      <point x="721" y="707" type="line"/>
      <point x="589" y="707" type="line"/>
      <point x="207" y="-35" type="line"/>
    </contour>
    <contour>
      <point x="85" y="544" type="line"/>
      <point x="249" y="706" type="line"/>
      <point x="125" y="706" type="line"/>
      <point x="21" y="614" type="line"/>
    </contour>
    <contour>
      <point x="249" y="279" type="curve"/>
      <point x="249" y="706" type="line"/>
      <point x="125" y="706" type="line"/>
      <point x="125" y="279" type="line"/>
      <point x="209" y="279"/>
      <point x="158" y="279"/>
    </contour>
    <contour>
      <point x="900" y="177" type="line"/>
      <point x="543" y="177" type="line"/>
      <point x="543" y="84" type="line"/>
      <point x="900" y="84" type="line"/>
    </contour>
    <contour>
      <point x="582" y="92" type="line"/>
      <point x="804" y="391" type="line"/>
      <point x="713" y="407" type="line"/>
      <point x="543" y="177" type="line"/>
    </contour>
    <contour>
      <point x="838" y="-31" type="line"/>
      <point x="838" y="407" type="line"/>
      <point x="713" y="407" type="line"/>
      <point x="713" y="-31" type="line"/>
    </contour>
  </outline>
</glyph>
<glyph name="onehalf" format="1">
  <advance width="1017"/>
  <unicode hex="00BD"/>
  <outline>
    <contour>
      <point x="370" y="-35" type="line"/>
      <point x="752" y="707" type="line"/>
      <point x="620" y="707" type="line"/>
      <point x="238" y="-35" type="line"/>
    </contour>
    <contour>
      <point x="85" y="544" type="line"/>
      <point x="249" y="706" type="line"/>
      <point x="125" y="706" type="line"/>
      <point x="21" y="614" type="line"/>
    </contour>
    <contour>
      <point x="249" y="279" type="curve"/>
      <point x="249" y="706" type="line"/>
      <point x="125" y="706" type="line"/>
      <point x="125" y="279" type="line"/>
      <point x="209" y="279"/>
      <point x="158" y="279"/>
    </contour>
    <contour>
      <point x="630" y="-33" type="curve"/>
      <point x="758" y="-33"/>
      <point x="884" y="-33"/>
      <point x="984" y="-33" type="curve"/>
      <point x="984" y="17"/>
      <point x="984" y="8"/>
      <point x="984" y="61" type="curve"/>
      <point x="873" y="61"/>
      <point x="741" y="61"/>
      <point x="630" y="61" type="curve"/>
      <point x="630" y="-33"/>
      <point x="630" y="61"/>
    </contour>
    <contour>
      <point x="731" y="258" type="curve"/>
      <point x="746" y="288"/>
      <point x="763" y="310"/>
      <point x="795" y="310" type="curve"/>
      <point x="826" y="310"/>
      <point x="844" y="290"/>
      <point x="844" y="260" type="curve"/>
      <point x="844" y="227"/>
      <point x="821" y="210"/>
      <point x="796" y="187" type="curve"/>
      <point x="741" y="145"/>
      <point x="685" y="103"/>
      <point x="630" y="61" type="curve"/>
      <point x="630" y="-32"/>
      <point x="631" y="61"/>
      <point x="632" y="-32" type="curve"/>
      <point x="716" y="20"/>
      <point x="808" y="65"/>
      <point x="870" y="113" type="curve"/>
      <point x="923" y="160"/>
      <point x="965" y="195"/>
      <point x="965" y="265" type="curve"/>
      <point x="965" y="356"/>
      <point x="899" y="404"/>
      <point x="804" y="404" type="curve"/>
      <point x="729" y="404"/>
      <point x="672" y="378"/>
      <point x="644" y="299" type="curve"/>
      <point x="731" y="258"/>
      <point x="644" y="299"/>
    </contour>
  </outline>
</glyph>
<glyph name="threequarters" format="1">
  <advance width="956"/>
  <unicode hex="00BE"/>
  <outline>
    <contour>
      <point x="376" y="-35" type="line"/>
      <point x="758" y="707" type="line"/>
      <point x="626" y="707" type="line"/>
      <point x="244" y="-35" type="line"/>
    </contour>
    <contour>
      <point x="96" y="582" type="curve"/>
      <point x="116" y="600"/>
      <point x="137" y="612"/>
      <point x="159" y="612" type="curve"/>
      <point x="188" y="612"/>
      <point x="208" y="598"/>
      <point x="208" y="571" type="curve"/>
      <point x="208" y="539"/>
      <point x="165" y="530"/>
      <point x="123" y="528" type="curve"/>
      <point x="123" y="448"/>
      <point x="123" y="528"/>
      <point x="123" y="448" type="curve"/>
      <point x="237" y="451"/>
      <point x="332" y="480"/>
      <point x="332" y="579" type="curve"/>
      <point x="332" y="667"/>
      <point x="265" y="705"/>
      <point x="171" y="705" type="curve"/>
      <point x="116" y="705"/>
      <point x="65" y="683"/>
      <point x="30" y="645" type="curve"/>
      <point x="96" y="582"/>
      <point x="30" y="645"/>
    </contour>
    <contour>
      <point x="30" y="301" type="curve"/>
      <point x="68" y="278"/>
      <point x="106" y="263"/>
      <point x="151" y="263" type="curve"/>
      <point x="265" y="262"/>
      <point x="348" y="300"/>
      <point x="346" y="401" type="curve"/>
      <point x="346" y="504"/>
      <point x="241" y="515"/>
      <point x="123" y="518" type="curve"/>
      <point x="123" y="448"/>
      <point x="123" y="518"/>
      <point x="123" y="448" type="curve"/>
      <point x="175" y="446"/>
      <point x="221" y="434"/>
      <point x="221" y="398" type="curve"/>
      <point x="221" y="368"/>
      <point x="196" y="354"/>
      <point x="162" y="355" type="curve"/>
      <point x="138" y="355"/>
      <point x="113" y="360"/>
      <point x="86" y="373" type="curve"/>
      <point x="30" y="301"/>
      <point x="86" y="373"/>
    </contour>
    <contour>
      <point x="931" y="177" type="line"/>
      <point x="575" y="177" type="line"/>
      <point x="575" y="84" type="line"/>
      <point x="931" y="84" type="line"/>
    </contour>
    <contour>
      <point x="614" y="92" type="line"/>
      <point x="836" y="391" type="line"/>
      <point x="745" y="407" type="line"/>
      <point x="575" y="177" type="line"/>
    </contour>
    <contour>
      <point x="869" y="-31" type="line"/>
      <point x="869" y="407" type="line"/>
      <point x="745" y="407" type="line"/>
      <point x="745" y="-31" type="line"/>
    </contour>
  </outline>
</glyph>
<glyph name="questiondown" format="1">
  <advance width="518"/>
  <unicode hex="00BF"/>
  <outline>
    <contour>
      <point x="335" y="352" type="curve"/>
      <point x="335" y="389"/>
      <point x="335" y="474"/>
      <point x="335" y="511" type="curve"/>
      <point x="199" y="511"/>
      <point x="335" y="511"/>
      <point x="199" y="511" type="curve"/>
      <point x="199" y="474"/>
      <point x="199" y="389"/>
      <point x="199" y="352" type="curve"/>
      <point x="335" y="352"/>
      <point x="199" y="352"/>
    </contour>
    <contour>
      <point x="406" y="156" type="line"/>
      <point x="371" y="121"/>
      <point x="332" y="97"/>
      <point x="279" y="97" type="curve"/>
      <point x="208" y="97"/>
      <point x="164" y="142"/>
      <point x="164" y="214" type="curve"/>
      <point x="164" y="300"/>
      <point x="226" y="352"/>
      <point x="320" y="352" type="curve"/>
      <point x="320" y="392"/>
      <point x="321" y="420"/>
      <point x="321" y="459" type="curve"/>
      <point x="146" y="459"/>
      <point x="26" y="370"/>
      <point x="26" y="214" type="curve"/>
      <point x="26" y="65"/>
      <point x="128" y="-20"/>
      <point x="273" y="-20" type="curve"/>
      <point x="360" y="-20"/>
      <point x="428" y="8"/>
      <point x="481" y="67" type="curve"/>
    </contour>
    <contour>
      <point x="187" y="683" type="curve"/>
      <point x="187" y="634"/>
      <point x="221" y="611"/>
      <point x="267" y="611" type="curve"/>
      <point x="313" y="611"/>
      <point x="344" y="637"/>
      <point x="344" y="683" type="curve"/>
      <point x="187" y="683"/>
      <point x="344" y="683"/>
      <point x="187" y="683" type="curve"/>
      <point x="187" y="732"/>
      <point x="220" y="754"/>
      <point x="267" y="754" type="curve"/>
      <point x="314" y="754"/>
      <point x="344" y="730"/>
      <point x="344" y="683" type="curve"/>
      <point x="187" y="683"/>
      <point x="344" y="683"/>
    </contour>
  </outline>
</glyph>
<glyph name="Atilde" format="1">
  <advance width="668"/>
  <unicode hex="00C3"/>
  <outline>
    <contour>
      <point x="473" y="300" type="curve"/>
      <point x="384" y="300"/>
      <point x="294" y="300"/>
      <point x="204" y="300" type="curve"/>
      <point x="145" y="183"/>
      <point x="204" y="300"/>
      <point x="145" y="183" type="curve"/>
      <point x="269" y="183"/>
      <point x="395" y="183"/>
      <point x="519" y="183" type="curve"/>
      <point x="473" y="300"/>
      <point x="519" y="183"/>
    </contour>
    <contour>
      <point x="660" y="0" type="curve"/>
      <point x="579" y="241"/>
      <point x="491" y="481"/>
      <point x="409" y="722" type="curve"/>
      <point x="277" y="722"/>
      <point x="409" y="722"/>
      <point x="277" y="722" type="curve"/>
      <point x="356" y="482"/>
      <point x="428" y="240"/>
      <point x="508" y="0" type="curve"/>
      <point x="660" y="0"/>
      <point x="508" y="0"/>
    </contour>
    <contour>
      <point x="153" y="0" type="curve"/>
      <point x="241" y="240"/>
      <point x="319" y="482"/>
      <point x="408" y="722" type="curve"/>
      <point x="276" y="722"/>
      <point x="408" y="722"/>
      <point x="276" y="722" type="curve"/>
      <point x="185" y="480"/>
      <point x="84" y="242"/>
      <point x="-6" y="0" type="curve"/>
      <point x="153" y="0"/>
      <point x="-6" y="0"/>
    </contour>
    <contour>
      <point x="457" y="968" type="curve"/>
      <point x="442" y="933"/>
      <point x="427" y="918"/>
      <point x="408" y="918" type="curve"/>
      <point x="380" y="918"/>
      <point x="366" y="925"/>
      <point x="345" y="942" type="curve"/>
      <point x="314" y="966"/>
      <point x="294" y="976"/>
      <point x="258" y="976" type="curve"/>
      <point x="183" y="976"/>
      <point x="142" y="913"/>
      <point x="117" y="841" type="curve"/>
      <point x="224" y="782"/>
      <point x="117" y="841"/>
      <point x="224" y="782" type="curve"/>
      <point x="243" y="824"/>
      <point x="261" y="837"/>
      <point x="282" y="837" type="curve"/>
      <point x="306" y="837"/>
      <point x="319" y="828"/>
      <point x="336" y="814" type="curve"/>
      <point x="372" y="787"/>
      <point x="393" y="776"/>
      <point x="434" y="776" type="curve"/>
      <point x="510" y="776"/>
      <point x="543" y="837"/>
      <point x="572" y="912" type="curve"/>
      <point x="458" y="968"/>
      <point x="571" y="911"/>
    </contour>
  </outline>
</glyph>
<glyph name="Adieresis" format="1">
  <advance width="668"/>
  <unicode hex="00C4"/>
  <outline>
    <contour>
      <point x="473" y="300" type="curve"/>
      <point x="384" y="300"/>
      <point x="294" y="300"/>
      <point x="204" y="300" type="curve"/>
      <point x="145" y="183"/>
      <point x="204" y="300"/>
      <point x="145" y="183" type="curve"/>
      <point x="269" y="183"/>
      <point x="395" y="183"/>
      <point x="519" y="183" type="curve"/>
      <point x="473" y="300"/>
      <point x="519" y="183"/>
    </contour>
    <contour>
      <point x="660" y="0" type="curve"/>
      <point x="579" y="241"/>
      <point x="491" y="481"/>
      <point x="409" y="722" type="curve"/>
      <point x="277" y="722"/>
      <point x="409" y="722"/>
      <point x="277" y="722" type="curve"/>
      <point x="356" y="482"/>
      <point x="428" y="240"/>
      <point x="508" y="0" type="curve"/>
      <point x="660" y="0"/>
      <point x="508" y="0"/>
    </contour>
    <contour>
      <point x="153" y="0" type="curve"/>
      <point x="241" y="240"/>
      <point x="319" y="482"/>
      <point x="408" y="722" type="curve"/>
      <point x="276" y="722"/>
      <point x="408" y="722"/>
      <point x="276" y="722" type="curve"/>
      <point x="185" y="480"/>
      <point x="84" y="242"/>
      <point x="-6" y="0" type="curve"/>
      <point x="153" y="0"/>
      <point x="-6" y="0"/>
    </contour>
    <contour>
      <point x="315" y="847" type="curve"/>
      <point x="315" y="895"/>
      <point x="281" y="919"/>
      <point x="235" y="919" type="curve"/>
      <point x="189" y="919"/>
      <point x="158" y="893"/>
      <point x="158" y="847" type="curve"/>
      <point x="314" y="847"/>
      <point x="158" y="847"/>
      <point x="315" y="847" type="curve"/>
      <point x="315" y="797"/>
      <point x="281" y="776"/>
      <point x="235" y="776" type="curve"/>
      <point x="188" y="776"/>
      <point x="158" y="800"/>
      <point x="158" y="847" type="curve"/>
      <point x="314" y="847"/>
      <point x="158" y="847"/>
    </contour>
    <contour>
      <point x="523" y="847" type="curve"/>
      <point x="523" y="895"/>
      <point x="489" y="919"/>
      <point x="444" y="919" type="curve"/>
      <point x="398" y="919"/>
      <point x="367" y="893"/>
      <point x="367" y="847" type="curve"/>
      <point x="523" y="847"/>
      <point x="367" y="847"/>
      <point x="523" y="847" type="curve"/>
      <point x="523" y="797"/>
      <point x="490" y="776"/>
      <point x="444" y="776" type="curve"/>
      <point x="397" y="776"/>
      <point x="367" y="800"/>
      <point x="367" y="847" type="curve"/>
      <point x="523" y="847"/>
      <point x="367" y="847"/>
    </contour>
  </outline>
</glyph>
<glyph name="Aring" format="1">
  <advance width="668"/>
  <unicode hex="00C5"/>
  <outline>
    <contour>
      <point x="473" y="300" type="curve"/>
      <point x="384" y="300"/>
      <point x="294" y="300"/>
      <point x="204" y="300" type="curve"/>
      <point x="145" y="183"/>
      <point x="204" y="300"/>
      <point x="145" y="183" type="curve"/>
      <point x="269" y="183"/>
      <point x="395" y="183"/>
      <point x="519" y="183" type="curve"/>
      <point x="473" y="300"/>
      <point x="519" y="183"/>
    </contour>
    <contour>
      <point x="660" y="0" type="curve"/>
      <point x="579" y="241"/>
      <point x="491" y="481"/>
      <point x="409" y="722" type="curve"/>
      <point x="277" y="722"/>
      <point x="409" y="722"/>
      <point x="277" y="722" type="curve"/>
      <point x="356" y="482"/>
      <point x="428" y="240"/>
      <point x="508" y="0" type="curve"/>
      <point x="660" y="0"/>
      <point x="508" y="0"/>
    </contour>
    <contour>
      <point x="153" y="0" type="curve"/>
      <point x="241" y="240"/>
      <point x="319" y="482"/>
      <point x="408" y="722" type="curve"/>
      <point x="276" y="722"/>
      <point x="408" y="722"/>
      <point x="276" y="722" type="curve"/>
      <point x="185" y="480"/>
      <point x="84" y="242"/>
      <point x="-6" y="0" type="curve"/>
      <point x="153" y="0"/>
      <point x="-6" y="0"/>
    </contour>
    <contour>
      <point x="179" y="926" type="curve"/>
      <point x="179" y="833"/>
      <point x="244" y="778"/>
      <point x="340" y="778" type="curve"/>
      <point x="437" y="778"/>
      <point x="502" y="832"/>
      <point x="502" y="926" type="curve"/>
      <point x="502" y="1021"/>
      <point x="436" y="1073"/>
      <point x="338" y="1073" type="curve"/>
      <point x="242" y="1073"/>
      <point x="179" y="1019"/>
      <point x="179" y="926" type="curve"/>
      <point x="305" y="926"/>
      <point x="171" y="926"/>
      <point x="297" y="926" type="curve"/>
      <point x="297" y="954"/>
      <point x="306" y="976"/>
      <point x="338" y="976" type="curve"/>
      <point x="369" y="976"/>
      <point x="381" y="956"/>
      <point x="381" y="926" type="curve"/>
      <point x="381" y="897"/>
      <point x="370" y="877"/>
      <point x="340" y="877" type="curve"/>
      <point x="309" y="877"/>
      <point x="297" y="898"/>
      <point x="297" y="926" type="curve"/>
      <point x="171" y="926"/>
      <point x="305" y="926"/>
    </contour>
  </outline>
</glyph>
<glyph name="AE" format="1">
  <advance width="904"/>
  <unicode hex="00C6"/>
  <outline>
    <contour>
      <point x="442" y="282" type="curve"/>
      <point x="353" y="282"/>
      <point x="285" y="282"/>
      <point x="196" y="282" type="curve"/>
      <point x="136" y="165"/>
      <point x="196" y="282"/>
      <point x="136" y="165" type="curve"/>
      <point x="261" y="165"/>
      <point x="364" y="165"/>
      <point x="488" y="165" type="curve"/>
      <point x="442" y="282"/>
      <point x="488" y="165"/>
    </contour>
    <contour>
      <point x="144" y="0" type="curve"/>
      <point x="556" y="722" type="line"/>
      <point x="424" y="722"/>
      <point x="556" y="722"/>
      <point x="424" y="722" type="curve"/>
      <point x="-15" y="0" type="line"/>
      <point x="144" y="0"/>
      <point x="-15" y="0"/>
    </contour>
    <contour>
      <point x="501" y="317" type="curve"/>
      <point x="598" y="317"/>
      <point x="697" y="317"/>
      <point x="795" y="317" type="curve"/>
      <point x="795" y="428"/>
      <point x="795" y="317"/>
      <point x="795" y="428" type="curve"/>
      <point x="697" y="428"/>
      <point x="598" y="428"/>
      <point x="501" y="428" type="curve"/>
      <point x="501" y="317"/>
      <point x="501" y="428"/>
    </contour>
    <contour>
      <point x="487" y="612" type="curve"/>
      <point x="609" y="612"/>
      <point x="730" y="612"/>
      <point x="851" y="612" type="curve"/>
      <point x="851" y="722"/>
      <point x="851" y="612"/>
      <point x="851" y="722" type="curve"/>
      <point x="730" y="722"/>
      <point x="609" y="722"/>
      <point x="487" y="722" type="curve"/>
      <point x="487" y="612"/>
      <point x="487" y="722"/>
    </contour>
    <contour>
      <point x="570" y="0" type="curve"/>
      <point x="570" y="722" type="line"/>
      <point x="425" y="722"/>
      <point x="570" y="722"/>
      <point x="425" y="722" type="curve"/>
      <point x="425" y="481"/>
      <point x="425" y="241"/>
      <point x="425" y="0" type="curve"/>
      <point x="570" y="0"/>
      <point x="425" y="0"/>
    </contour>
    <contour>
      <point x="487" y="0" type="curve"/>
      <point x="619" y="0"/>
      <point x="750" y="0"/>
      <point x="881" y="0" type="curve"/>
      <point x="881" y="110"/>
      <point x="881" y="0"/>
      <point x="881" y="110" type="curve"/>
      <point x="750" y="110"/>
      <point x="619" y="110"/>
      <point x="487" y="110" type="curve"/>
      <point x="487" y="0"/>
      <point x="487" y="110"/>
    </contour>
  </outline>
</glyph>
<glyph name="Ccedilla" format="1">
  <advance width="638"/>
  <unicode hex="00C7"/>
  <outline>
    <contour>
      <point x="622" y="654" type="curve"/>
      <point x="553" y="697"/>
      <point x="474" y="727"/>
      <point x="384" y="727" type="curve"/>
      <point x="160" y="727"/>
      <point x="37" y="581"/>
      <point x="37" y="345" type="curve"/>
      <point x="37" y="128"/>
      <point x="154" y="-5"/>
      <point x="365" y="-5" type="curve"/>
      <point x="481" y="-5"/>
      <point x="557" y="27"/>
      <point x="631" y="96" type="curve"/>
      <point x="556" y="182"/>
      <point x="631" y="96"/>
      <point x="556" y="182" type="curve"/>
      <point x="495" y="136"/>
      <point x="446" y="111"/>
      <point x="372" y="111" type="curve"/>
      <point x="239" y="111"/>
      <point x="182" y="208"/>
      <point x="182" y="350" type="curve"/>
      <point x="182" y="504"/>
      <point x="239" y="612"/>
      <point x="379" y="612" type="curve"/>
      <point x="441" y="612"/>
      <point x="496" y="595"/>
      <point x="550" y="564" type="curve"/>
      <point x="622" y="654"/>
      <point x="550" y="564"/>
    </contour>
    <contour>
      <point x="308" y="82" type="curve"/>
      <point x="296" y="61"/>
      <point x="245" y="-37"/>
      <point x="233" y="-59" type="curve"/>
      <point x="332" y="-147"/>
      <point x="233" y="-59"/>
      <point x="332" y="-147" type="curve"/>
      <point x="347" y="-121"/>
      <point x="405" y="-21"/>
      <point x="419" y="5" type="curve"/>
      <point x="308" y="82"/>
      <point x="419" y="5"/>
    </contour>
    <contour>
      <point x="332" y="-147" type="curve"/>
      <point x="337" y="-143"/>
      <point x="341" y="-139"/>
      <point x="347" y="-139" type="curve"/>
      <point x="355" y="-139"/>
      <point x="360" y="-143"/>
      <point x="360" y="-151" type="curve"/>
      <point x="360" y="-165"/>
      <point x="347" y="-169"/>
      <point x="332" y="-169" type="curve"/>
      <point x="312" y="-169"/>
      <point x="295" y="-163"/>
      <point x="273" y="-152" type="curve"/>
      <point x="222" y="-234"/>
      <point x="273" y="-152"/>
      <point x="222" y="-234" type="curve"/>
      <point x="256" y="-253"/>
      <point x="286" y="-262"/>
      <point x="325" y="-262" type="curve"/>
      <point x="404" y="-262"/>
      <point x="462" y="-226"/>
      <point x="462" y="-149" type="curve"/>
      <point x="462" y="-76"/>
      <point x="412" y="-35"/>
      <point x="338" y="-35" type="curve"/>
      <point x="298" y="-35"/>
      <point x="270" y="-41"/>
      <point x="233" y="-59" type="curve"/>
      <point x="332" y="-147"/>
      <point x="233" y="-59"/>
    </contour>
  </outline>
</glyph>
<glyph name="Egrave" format="1">
  <advance width="557"/>
  <unicode hex="00C8"/>
  <outline>
    <contour>
      <point x="154" y="317" type="curve"/>
      <point x="252" y="317"/>
      <point x="350" y="317"/>
      <point x="448" y="317" type="curve"/>
      <point x="448" y="428"/>
      <point x="448" y="317"/>
      <point x="448" y="428" type="curve"/>
      <point x="350" y="428"/>
      <point x="252" y="428"/>
      <point x="154" y="428" type="curve"/>
      <point x="154" y="317"/>
      <point x="154" y="428"/>
    </contour>
    <contour>
      <point x="140" y="612" type="curve"/>
      <point x="262" y="612"/>
      <point x="383" y="612"/>
      <point x="504" y="612" type="curve"/>
      <point x="504" y="722"/>
      <point x="504" y="612"/>
      <point x="504" y="722" type="curve"/>
      <point x="383" y="722"/>
      <point x="262" y="722"/>
      <point x="140" y="722" type="curve"/>
      <point x="140" y="612"/>
      <point x="140" y="722"/>
    </contour>
    <contour>
      <point x="223" y="0" type="curve"/>
      <point x="223" y="722" type="line"/>
      <point x="78" y="722"/>
      <point x="223" y="722"/>
      <point x="78" y="722" type="curve"/>
      <point x="78" y="481"/>
      <point x="78" y="241"/>
      <point x="78" y="0" type="curve"/>
      <point x="223" y="0"/>
      <point x="78" y="0"/>
    </contour>
    <contour>
      <point x="140" y="0" type="curve"/>
      <point x="272" y="0"/>
      <point x="403" y="0"/>
      <point x="534" y="0" type="curve"/>
      <point x="534" y="110"/>
      <point x="534" y="0"/>
      <point x="534" y="110" type="curve"/>
      <point x="403" y="110"/>
      <point x="272" y="110"/>
      <point x="140" y="110" type="curve"/>
      <point x="140" y="0"/>
      <point x="140" y="110"/>
    </contour>
    <contour>
      <point x="348" y="781" type="line"/>
      <point x="247" y="947" type="line"/>
      <point x="66" y="947" type="line"/>
      <point x="208" y="781" type="line"/>
    </contour>
  </outline>
</glyph>
<glyph name="Ecircumflex" format="1">
  <advance width="514"/>
  <unicode hex="00CA"/>
  <outline>
    <contour>
      <point x="125" y="317" type="curve"/>
      <point x="222" y="317"/>
      <point x="321" y="317"/>
      <point x="418" y="317" type="curve"/>
      <point x="418" y="428"/>
      <point x="418" y="317"/>
      <point x="418" y="428" type="curve"/>
      <point x="321" y="428"/>
      <point x="222" y="428"/>
      <point x="125" y="428" type="curve"/>
      <point x="125" y="317"/>
      <point x="125" y="428"/>
    </contour>
    <contour>
      <point x="111" y="612" type="curve"/>
      <point x="232" y="612"/>
      <point x="353" y="612"/>
      <point x="475" y="612" type="curve"/>
      <point x="475" y="722"/>
      <point x="475" y="612"/>
      <point x="475" y="722" type="curve"/>
      <point x="353" y="722"/>
      <point x="232" y="722"/>
      <point x="111" y="722" type="curve"/>
      <point x="111" y="612"/>
      <point x="111" y="722"/>
    </contour>
    <contour>
      <point x="193" y="0" type="curve"/>
      <point x="193" y="722" type="line"/>
      <point x="48" y="722"/>
      <point x="193" y="722"/>
      <point x="48" y="722" type="curve"/>
      <point x="48" y="481"/>
      <point x="48" y="241"/>
      <point x="48" y="0" type="curve"/>
      <point x="193" y="0"/>
      <point x="48" y="0"/>
    </contour>
    <contour>
      <point x="111" y="0" type="curve"/>
      <point x="242" y="0"/>
      <point x="373" y="0"/>
      <point x="505" y="0" type="curve"/>
      <point x="505" y="110"/>
      <point x="505" y="0"/>
      <point x="505" y="110" type="curve"/>
      <point x="373" y="110"/>
      <point x="242" y="110"/>
      <point x="111" y="110" type="curve"/>
      <point x="111" y="0"/>
      <point x="111" y="110"/>
    </contour>
    <contour>
      <point x="167" y="781" type="line"/>
      <point x="308" y="947" type="line"/>
      <point x="128" y="947" type="line"/>
      <point x="28" y="781" type="line"/>
    </contour>
    <contour>
      <point x="462" y="781" type="line"/>
      <point x="361" y="947" type="line"/>
      <point x="180" y="947" type="line"/>
      <point x="322" y="781" type="line"/>
    </contour>
  </outline>
</glyph>
<glyph name="Edieresis" format="1">
  <advance width="543"/>
  <unicode hex="00CB"/>
  <outline>
    <contour>
      <point x="140" y="317" type="curve"/>
      <point x="237" y="317"/>
      <point x="335" y="317"/>
      <point x="433" y="317" type="curve"/>
      <point x="433" y="428"/>
      <point x="433" y="317"/>
      <point x="433" y="428" type="curve"/>
      <point x="335" y="428"/>
      <point x="237" y="428"/>
      <point x="140" y="428" type="curve"/>
      <point x="140" y="317"/>
      <point x="140" y="428"/>
    </contour>
    <contour>
      <point x="126" y="612" type="curve"/>
      <point x="247" y="612"/>
      <point x="368" y="612"/>
      <point x="490" y="612" type="curve"/>
      <point x="490" y="722"/>
      <point x="490" y="612"/>
      <point x="490" y="722" type="curve"/>
      <point x="368" y="722"/>
      <point x="247" y="722"/>
      <point x="126" y="722" type="curve"/>
      <point x="126" y="612"/>
      <point x="126" y="722"/>
    </contour>
    <contour>
      <point x="208" y="0" type="curve"/>
      <point x="208" y="722" type="line"/>
      <point x="63" y="722"/>
      <point x="208" y="722"/>
      <point x="63" y="722" type="curve"/>
      <point x="63" y="481"/>
      <point x="63" y="241"/>
      <point x="63" y="0" type="curve"/>
      <point x="208" y="0"/>
      <point x="63" y="0"/>
    </contour>
    <contour>
      <point x="126" y="0" type="curve"/>
      <point x="257" y="0"/>
      <point x="388" y="0"/>
      <point x="520" y="0" type="curve"/>
      <point x="520" y="110"/>
      <point x="520" y="0"/>
      <point x="520" y="110" type="curve"/>
      <point x="388" y="110"/>
      <point x="257" y="110"/>
      <point x="126" y="110" type="curve"/>
      <point x="126" y="0"/>
      <point x="126" y="110"/>
    </contour>
    <contour>
      <point x="234" y="847" type="curve"/>
      <point x="234" y="895"/>
      <point x="200" y="919"/>
      <point x="155" y="919" type="curve"/>
      <point x="108" y="919"/>
      <point x="78" y="893"/>
      <point x="78" y="847" type="curve"/>
      <point x="234" y="847"/>
      <point x="78" y="847"/>
      <point x="234" y="847" type="curve"/>
      <point x="234" y="797"/>
      <point x="201" y="776"/>
      <point x="154" y="776" type="curve"/>
      <point x="107" y="776"/>
      <point x="78" y="800"/>
      <point x="78" y="847" type="curve"/>
      <point x="234" y="847"/>
      <point x="78" y="847"/>
    </contour>
    <contour>
      <point x="443" y="847" type="curve"/>
      <point x="443" y="895"/>
      <point x="409" y="919"/>
      <point x="363" y="919" type="curve"/>
      <point x="317" y="919"/>
      <point x="286" y="893"/>
      <point x="286" y="847" type="curve"/>
      <point x="443" y="847"/>
      <point x="286" y="847"/>
      <point x="443" y="847" type="curve"/>
      <point x="443" y="797"/>
      <point x="410" y="776"/>
      <point x="363" y="776" type="curve"/>
      <point x="316" y="776"/>
      <point x="286" y="800"/>
      <point x="286" y="847" type="curve"/>
      <point x="443" y="847"/>
      <point x="286" y="847"/>
    </contour>
  </outline>
</glyph>
<glyph name="Igrave" format="1">
  <advance width="292"/>
  <unicode hex="00CC"/>
  <outline>
    <contour>
      <point x="222" y="0" type="curve"/>
      <point x="222" y="241"/>
      <point x="222" y="481"/>
      <point x="222" y="722" type="curve"/>
      <point x="77" y="722"/>
      <point x="222" y="722"/>
      <point x="77" y="722" type="curve"/>
      <point x="77" y="481"/>
      <point x="77" y="241"/>
      <point x="77" y="0" type="curve"/>
      <point x="222" y="0"/>
      <point x="77" y="0"/>
    </contour>
    <contour>
      <point x="225" y="781" type="line"/>
      <point x="124" y="947" type="line"/>
      <point x="-57" y="947" type="line"/>
      <point x="85" y="781" type="line"/>
    </contour>
  </outline>
</glyph>
<glyph name="Iacute" format="1">
  <advance width="289"/>
  <unicode hex="00CD"/>
  <outline>
    <contour>
      <point x="214" y="0" type="curve"/>
      <point x="214" y="241"/>
      <point x="214" y="481"/>
      <point x="214" y="722" type="curve"/>
      <point x="69" y="722"/>
      <point x="214" y="722"/>
      <point x="69" y="722" type="curve"/>
      <point x="69" y="481"/>
      <point x="69" y="241"/>
      <point x="69" y="0" type="curve"/>
      <point x="214" y="0"/>
      <point x="69" y="0"/>
    </contour>
    <contour>
      <point x="206" y="780" type="line"/>
      <point x="348" y="946" type="line"/>
      <point x="167" y="946" type="line"/>
      <point x="67" y="780" type="line"/>
    </contour>
  </outline>
</glyph>
<glyph name="Icircumflex" format="1">
  <advance width="328"/>
  <unicode hex="00CE"/>
  <outline>
    <contour>
      <point x="239" y="0" type="curve"/>
      <point x="239" y="241"/>
      <point x="239" y="481"/>
      <point x="239" y="722" type="curve"/>
      <point x="94" y="722"/>
      <point x="239" y="722"/>
      <point x="94" y="722" type="curve"/>
      <point x="94" y="481"/>
      <point x="94" y="241"/>
      <point x="94" y="0" type="curve"/>
      <point x="239" y="0"/>
      <point x="94" y="0"/>
    </contour>
    <contour>
      <point x="90" y="781" type="line"/>
      <point x="232" y="947" type="line"/>
      <point x="51" y="947" type="line"/>
      <point x="-49" y="781" type="line"/>
    </contour>
    <contour>
      <point x="385" y="781" type="line"/>
      <point x="284" y="947" type="line"/>
      <point x="103" y="947" type="line"/>
      <point x="245" y="781" type="line"/>
    </contour>
  </outline>
</glyph>
<glyph name="Idieresis" format="1">
  <advance width="300"/>
  <unicode hex="00CF"/>
  <outline>
    <contour>
      <point x="225" y="0" type="curve"/>
      <point x="225" y="241"/>
      <point x="225" y="481"/>
      <point x="225" y="722" type="curve"/>
      <point x="80" y="722"/>
      <point x="225" y="722"/>
      <point x="80" y="722" type="curve"/>
      <point x="80" y="481"/>
      <point x="80" y="241"/>
      <point x="80" y="0" type="curve"/>
      <point x="225" y="0"/>
      <point x="80" y="0"/>
    </contour>
    <contour>
      <point x="129" y="847" type="curve"/>
      <point x="129" y="895"/>
      <point x="95" y="919"/>
      <point x="50" y="919" type="curve"/>
      <point x="3" y="919"/>
      <point x="-27" y="893"/>
      <point x="-27" y="847" type="curve"/>
      <point x="129" y="847"/>
      <point x="-27" y="847"/>
      <point x="129" y="847" type="curve"/>
      <point x="129" y="797"/>
      <point x="96" y="776"/>
      <point x="49" y="776" type="curve"/>
      <point x="2" y="776"/>
      <point x="-27" y="800"/>
      <point x="-27" y="847" type="curve"/>
      <point x="129" y="847"/>
      <point x="-27" y="847"/>
    </contour>
    <contour>
      <point x="338" y="847" type="curve"/>
      <point x="338" y="895"/>
      <point x="304" y="919"/>
      <point x="258" y="919" type="curve"/>
      <point x="212" y="919"/>
      <point x="181" y="893"/>
      <point x="181" y="847" type="curve"/>
      <point x="338" y="847"/>
      <point x="181" y="847"/>
      <point x="338" y="847" type="curve"/>
      <point x="338" y="797"/>
      <point x="305" y="776"/>
      <point x="258" y="776" type="curve"/>
      <point x="211" y="776"/>
      <point x="181" y="800"/>
      <point x="181" y="847" type="curve"/>
      <point x="338" y="847"/>
      <point x="181" y="847"/>
    </contour>
  </outline>
</glyph>
<glyph name="Ntilde" format="1">
  <advance width="765"/>
  <unicode hex="00D1"/>
  <outline>
    <contour>
      <point x="700" y="0" type="curve"/>
      <point x="540" y="240"/>
      <point x="382" y="482"/>
      <point x="224" y="722" type="curve"/>
      <point x="65" y="722"/>
      <point x="224" y="722"/>
      <point x="65" y="722" type="curve"/>
      <point x="224" y="482"/>
      <point x="382" y="240"/>
      <point x="541" y="0" type="curve"/>
      <point x="700" y="0"/>
      <point x="541" y="0"/>
    </contour>
    <contour>
      <point x="555" y="722" type="curve"/>
      <point x="555" y="481"/>
      <point x="555" y="241"/>
      <point x="555" y="0" type="curve"/>
      <point x="700" y="0"/>
      <point x="555" y="0"/>
      <point x="700" y="0" type="curve"/>
      <point x="700" y="241"/>
      <point x="700" y="481"/>
      <point x="700" y="722" type="curve"/>
      <point x="555" y="722"/>
      <point x="700" y="722"/>
    </contour>
    <contour>
      <point x="210" y="0" type="curve"/>
      <point x="210" y="241"/>
      <point x="210" y="481"/>
      <point x="210" y="722" type="curve"/>
      <point x="65" y="722"/>
      <point x="210" y="722"/>
      <point x="65" y="722" type="curve"/>
      <point x="65" y="481"/>
      <point x="65" y="241"/>
      <point x="65" y="0" type="curve"/>
      <point x="210" y="0"/>
      <point x="65" y="0"/>
    </contour>
    <contour>
      <point x="499" y="968" type="curve"/>
      <point x="484" y="933"/>
      <point x="469" y="918"/>
      <point x="450" y="918" type="curve"/>
      <point x="422" y="918"/>
      <point x="407" y="925"/>
      <point x="387" y="942" type="curve"/>
      <point x="355" y="966"/>
      <point x="336" y="976"/>
      <point x="300" y="976" type="curve"/>
      <point x="225" y="976"/>
      <point x="184" y="913"/>
      <point x="159" y="841" type="curve"/>
      <point x="266" y="782"/>
      <point x="159" y="841"/>
      <point x="266" y="782" type="curve"/>
      <point x="285" y="824"/>
      <point x="302" y="837"/>
      <point x="324" y="837" type="curve"/>
      <point x="348" y="837"/>
      <point x="361" y="828"/>
      <point x="378" y="814" type="curve"/>
      <point x="414" y="787"/>
      <point x="434" y="776"/>
      <point x="476" y="776" type="curve"/>
      <point x="552" y="776"/>
      <point x="585" y="837"/>
      <point x="614" y="912" type="curve"/>
      <point x="500" y="968"/>
      <point x="613" y="911"/>
    </contour>
  </outline>
</glyph>
<glyph name="Ocircumflex" format="1">
  <advance width="730"/>
  <unicode hex="00D4"/>
  <outline>
    <contour>
      <point x="182" y="360" type="curve" name="FullCurve"/>
      <point x="182" y="502"/>
      <point x="227" y="612"/>
      <point x="361" y="612" type="curve" name="FullCurve"/>
      <point x="492" y="612"/>
      <point x="549" y="506"/>
      <point x="549" y="363" type="curve" name="FullCurve"/>
      <point x="549" y="220"/>
      <point x="501" y="111"/>
      <point x="368" y="111" type="curve" name="FullCurve"/>
      <point x="235" y="111"/>
      <point x="182" y="217"/>
      <point x="182" y="360" type="curve" name="FullCurve"/>
      <point x="36" y="360"/>
      <point x="182" y="360"/>
      <point x="36" y="360" type="curve" name="FullCurve"/>
      <point x="36" y="142"/>
      <point x="152" y="-5"/>
      <point x="362" y="-5" type="curve" name="FullCurve"/>
      <point x="575" y="-5"/>
      <point x="694" y="143"/>
      <point x="694" y="363" type="curve" name="FullCurve"/>
      <point x="694" y="579"/>
      <point x="579" y="727"/>
      <point x="369" y="727" type="curve" name="FullCurve"/>
      <point x="156" y="727"/>
      <point x="36" y="579"/>
      <point x="36" y="360" type="curve" name="FullCurve"/>
      <point x="182" y="360"/>
      <point x="36" y="360"/>
    </contour>
    <contour>
      <point x="289" y="781" type="line"/>
      <point x="431" y="947" type="line"/>
      <point x="250" y="947" type="line"/>
      <point x="150" y="781" type="line"/>
    </contour>
    <contour>
      <point x="585" y="781" type="line"/>
      <point x="484" y="947" type="line"/>
      <point x="303" y="947" type="line"/>
      <point x="445" y="781" type="line"/>
    </contour>
  </outline>
</glyph>
<glyph name="Otilde" format="1">
  <advance width="730"/>
  <unicode hex="00D5"/>
  <outline>
    <contour>
      <point x="182" y="360" type="curve" name="FullCurve"/>
      <point x="182" y="502"/>
      <point x="227" y="612"/>
      <point x="361" y="612" type="curve" name="FullCurve"/>
      <point x="492" y="612"/>
      <point x="549" y="506"/>
      <point x="549" y="363" type="curve" name="FullCurve"/>
      <point x="549" y="220"/>
      <point x="501" y="111"/>
      <point x="368" y="111" type="curve" name="FullCurve"/>
      <point x="235" y="111"/>
      <point x="182" y="217"/>
      <point x="182" y="360" type="curve" name="FullCurve"/>
      <point x="36" y="360"/>
      <point x="182" y="360"/>
      <point x="36" y="360" type="curve" name="FullCurve"/>
      <point x="36" y="142"/>
      <point x="152" y="-5"/>
      <point x="362" y="-5" type="curve" name="FullCurve"/>
      <point x="575" y="-5"/>
      <point x="694" y="143"/>
      <point x="694" y="363" type="curve" name="FullCurve"/>
      <point x="694" y="579"/>
      <point x="579" y="727"/>
      <point x="369" y="727" type="curve" name="FullCurve"/>
      <point x="156" y="727"/>
      <point x="36" y="579"/>
      <point x="36" y="360" type="curve" name="FullCurve"/>
      <point x="182" y="360"/>
      <point x="36" y="360"/>
    </contour>
    <contour>
      <point x="485" y="968" type="curve"/>
      <point x="469" y="933"/>
      <point x="454" y="918"/>
      <point x="436" y="918" type="curve"/>
      <point x="407" y="918"/>
      <point x="393" y="925"/>
      <point x="372" y="942" type="curve"/>
      <point x="341" y="966"/>
      <point x="322" y="976"/>
      <point x="285" y="976" type="curve"/>
      <point x="210" y="976"/>
      <point x="170" y="913"/>
      <point x="144" y="841" type="curve"/>
      <point x="251" y="782"/>
      <point x="145" y="841"/>
      <point x="251" y="782" type="curve"/>
      <point x="271" y="824"/>
      <point x="288" y="837"/>
      <point x="310" y="837" type="curve"/>
      <point x="334" y="837"/>
      <point x="346" y="828"/>
      <point x="364" y="814" type="curve"/>
      <point x="399" y="787"/>
      <point x="420" y="776"/>
      <point x="461" y="776" type="curve"/>
      <point x="537" y="776"/>
      <point x="571" y="837"/>
      <point x="599" y="912" type="curve"/>
      <point x="485" y="968"/>
      <point x="599" y="911"/>
    </contour>
  </outline>
</glyph>
<glyph name="Odieresis" format="1">
  <advance width="730"/>
  <unicode hex="00D6"/>
  <outline>
    <contour>
      <point x="182" y="360" type="curve" name="FullCurve"/>
      <point x="182" y="502"/>
      <point x="227" y="612"/>
      <point x="361" y="612" type="curve" name="FullCurve"/>
      <point x="492" y="612"/>
      <point x="549" y="506"/>
      <point x="549" y="363" type="curve" name="FullCurve"/>
      <point x="549" y="220"/>
      <point x="501" y="111"/>
      <point x="368" y="111" type="curve" name="FullCurve"/>
      <point x="235" y="111"/>
      <point x="182" y="217"/>
      <point x="182" y="360" type="curve" name="FullCurve"/>
      <point x="36" y="360"/>
      <point x="182" y="360"/>
      <point x="36" y="360" type="curve" name="FullCurve"/>
      <point x="36" y="142"/>
      <point x="152" y="-5"/>
      <point x="362" y="-5" type="curve" name="FullCurve"/>
      <point x="575" y="-5"/>
      <point x="694" y="143"/>
      <point x="694" y="363" type="curve" name="FullCurve"/>
      <point x="694" y="579"/>
      <point x="579" y="727"/>
      <point x="369" y="727" type="curve" name="FullCurve"/>
      <point x="156" y="727"/>
      <point x="36" y="579"/>
      <point x="36" y="360" type="curve" name="FullCurve"/>
      <point x="182" y="360"/>
      <point x="36" y="360"/>
    </contour>
    <contour>
      <point x="342" y="847" type="curve"/>
      <point x="342" y="895"/>
      <point x="308" y="919"/>
      <point x="263" y="919" type="curve"/>
      <point x="216" y="919"/>
      <point x="185" y="893"/>
      <point x="185" y="847" type="curve"/>
      <point x="342" y="847"/>
      <point x="186" y="847"/>
      <point x="342" y="847" type="curve"/>
      <point x="342" y="797"/>
      <point x="309" y="776"/>
      <point x="262" y="776" type="curve"/>
      <point x="215" y="776"/>
      <point x="185" y="800"/>
      <point x="185" y="847" type="curve"/>
      <point x="342" y="847"/>
      <point x="186" y="847"/>
    </contour>
    <contour>
      <point x="551" y="847" type="curve"/>
      <point x="551" y="895"/>
      <point x="517" y="919"/>
      <point x="471" y="919" type="curve"/>
      <point x="425" y="919"/>
      <point x="394" y="893"/>
      <point x="394" y="847" type="curve"/>
      <point x="550" y="847"/>
      <point x="394" y="847"/>
      <point x="551" y="847" type="curve"/>
      <point x="551" y="797"/>
      <point x="517" y="776"/>
      <point x="471" y="776" type="curve"/>
      <point x="424" y="776"/>
      <point x="394" y="800"/>
      <point x="394" y="847" type="curve"/>
      <point x="550" y="847"/>
      <point x="394" y="847"/>
    </contour>
  </outline>
</glyph>
<glyph name="multiply" format="1">
  <advance width="598"/>
  <unicode hex="00D7"/>
  <outline>
    <contour>
      <point x="120" y="43" type="line"/>
      <point x="561" y="498" type="line"/>
      <point x="478" y="580" type="line"/>
      <point x="38" y="125" type="line"/>
    </contour>
    <contour>
      <point x="561" y="123" type="line"/>
      <point x="120" y="578" type="line"/>
      <point x="38" y="496" type="line"/>
      <point x="478" y="41" type="line"/>
    </contour>
  </outline>
</glyph>
<glyph name="Ucircumflex" format="1">
  <advance width="699"/>
  <unicode hex="00DB"/>
  <outline>
    <contour>
      <point x="59" y="722" type="curve"/>
      <point x="59" y="588"/>
      <point x="58" y="410"/>
      <point x="59" y="276" type="curve"/>
      <point x="59" y="87"/>
      <point x="155" y="-5"/>
      <point x="346" y="-5" type="curve"/>
      <point x="541" y="-5"/>
      <point x="640" y="92"/>
      <point x="640" y="287" type="curve"/>
      <point x="640" y="418"/>
      <point x="640" y="592"/>
      <point x="640" y="722" type="curve"/>
      <point x="508" y="722"/>
      <point x="640" y="722"/>
      <point x="508" y="722" type="curve"/>
      <point x="508" y="585"/>
      <point x="508" y="410"/>
      <point x="508" y="273" type="curve"/>
      <point x="508" y="173"/>
      <point x="456" y="117"/>
      <point x="357" y="117" type="curve"/>
      <point x="241" y="117"/>
      <point x="191" y="179"/>
      <point x="191" y="297" type="curve"/>
      <point x="191" y="424"/>
      <point x="191" y="596"/>
      <point x="191" y="722" type="curve"/>
      <point x="59" y="722"/>
      <point x="191" y="722"/>
    </contour>
    <contour>
      <point x="273" y="781" type="line"/>
      <point x="415" y="947" type="line"/>
      <point x="234" y="947" type="line"/>
      <point x="134" y="781" type="line"/>
    </contour>
    <contour>
      <point x="568" y="781" type="line"/>
      <point x="467" y="947" type="line"/>
      <point x="286" y="947" type="line"/>
      <point x="428" y="781" type="line"/>
    </contour>
  </outline>
</glyph>
<glyph name="Udieresis" format="1">
  <advance width="699"/>
  <unicode hex="00DC"/>
  <outline>
    <contour>
      <point x="59" y="722" type="curve"/>
      <point x="59" y="588"/>
      <point x="58" y="410"/>
      <point x="59" y="276" type="curve"/>
      <point x="59" y="87"/>
      <point x="155" y="-5"/>
      <point x="346" y="-5" type="curve"/>
      <point x="541" y="-5"/>
      <point x="640" y="92"/>
      <point x="640" y="287" type="curve"/>
      <point x="640" y="418"/>
      <point x="640" y="592"/>
      <point x="640" y="722" type="curve"/>
      <point x="508" y="722"/>
      <point x="640" y="722"/>
      <point x="508" y="722" type="curve"/>
      <point x="508" y="585"/>
      <point x="508" y="410"/>
      <point x="508" y="273" type="curve"/>
      <point x="508" y="173"/>
      <point x="456" y="117"/>
      <point x="357" y="117" type="curve"/>
      <point x="241" y="117"/>
      <point x="191" y="179"/>
      <point x="191" y="297" type="curve"/>
      <point x="191" y="424"/>
      <point x="191" y="596"/>
      <point x="191" y="722" type="curve"/>
      <point x="59" y="722"/>
      <point x="191" y="722"/>
    </contour>
    <contour>
      <point x="327" y="847" type="curve"/>
      <point x="327" y="895"/>
      <point x="293" y="919"/>
      <point x="247" y="919" type="curve"/>
      <point x="201" y="919"/>
      <point x="170" y="893"/>
      <point x="170" y="847" type="curve"/>
      <point x="327" y="847"/>
      <point x="170" y="847"/>
      <point x="327" y="847" type="curve"/>
      <point x="327" y="797"/>
      <point x="294" y="776"/>
      <point x="247" y="776" type="curve"/>
      <point x="200" y="776"/>
      <point x="170" y="800"/>
      <point x="170" y="847" type="curve"/>
      <point x="327" y="847"/>
      <point x="170" y="847"/>
    </contour>
    <contour>
      <point x="535" y="847" type="curve"/>
      <point x="535" y="895"/>
      <point x="502" y="919"/>
      <point x="456" y="919" type="curve"/>
      <point x="410" y="919"/>
      <point x="379" y="893"/>
      <point x="379" y="847" type="curve"/>
      <point x="535" y="847"/>
      <point x="379" y="847"/>
      <point x="535" y="847" type="curve"/>
      <point x="535" y="797"/>
      <point x="502" y="776"/>
      <point x="456" y="776" type="curve"/>
      <point x="409" y="776"/>
      <point x="379" y="800"/>
      <point x="379" y="847" type="curve"/>
      <point x="535" y="847"/>
      <point x="379" y="847"/>
    </contour>
  </outline>
</glyph>
<glyph name="Yacute" format="1">
  <advance width="595"/>
  <unicode hex="00DD"/>
  <outline>
    <contour>
      <point x="8" y="722" type="curve"/>
      <point x="76" y="598"/>
      <point x="154" y="464"/>
      <point x="220" y="337" type="curve"/>
      <point x="367" y="337"/>
      <point x="204" y="337"/>
      <point x="351" y="337" type="curve"/>
      <point x="288" y="469"/>
      <point x="226" y="592"/>
      <point x="160" y="722" type="curve"/>
      <point x="22" y="722"/>
      <point x="147" y="722"/>
    </contour>
    <contour>
      <point x="446" y="722" type="curve"/>
      <point x="374" y="590"/>
      <point x="309" y="468"/>
      <point x="236" y="337" type="curve"/>
      <point x="383" y="337"/>
      <point x="228" y="337"/>
      <point x="375" y="337" type="curve"/>
      <point x="445" y="464"/>
      <point x="523" y="597"/>
      <point x="594" y="722" type="curve"/>
      <point x="455" y="722"/>
      <point x="585" y="722"/>
    </contour>
    <contour>
      <point x="377" y="0" type="curve"/>
      <point x="377" y="115"/>
      <point x="377" y="225"/>
      <point x="377" y="340" type="curve"/>
      <point x="218" y="340"/>
      <point x="377" y="340"/>
      <point x="218" y="340" type="curve"/>
      <point x="218" y="225"/>
      <point x="218" y="115"/>
      <point x="218" y="0" type="curve"/>
      <point x="377" y="0"/>
      <point x="218" y="0"/>
    </contour>
    <contour>
      <point x="366" y="780" type="line"/>
      <point x="508" y="946" type="line"/>
      <point x="327" y="946" type="line"/>
      <point x="227" y="780" type="line"/>
    </contour>
  </outline>
</glyph>
<glyph name="Thorn" format="1">
  <advance width="552"/>
  <unicode hex="00DE"/>
  <outline>
    <contour>
      <point x="117" y="234" type="curve"/>
      <point x="175" y="205"/>
      <point x="231" y="188"/>
      <point x="300" y="188" type="curve"/>
      <point x="435" y="190"/>
      <point x="530" y="265"/>
      <point x="530" y="404" type="curve"/>
      <point x="530" y="534"/>
      <point x="421" y="609"/>
      <point x="265" y="609" type="curve"/>
      <point x="223" y="609"/>
      <point x="182" y="609"/>
      <point x="142" y="609" type="curve"/>
      <point x="142" y="499"/>
      <point x="142" y="609"/>
      <point x="142" y="499" type="curve"/>
      <point x="176" y="499"/>
      <point x="210" y="499"/>
      <point x="245" y="499" type="curve"/>
      <point x="329" y="499"/>
      <point x="385" y="462"/>
      <point x="385" y="399" type="curve"/>
      <point x="385" y="337"/>
      <point x="350" y="295"/>
      <point x="285" y="295" type="curve"/>
      <point x="238" y="295"/>
      <point x="205" y="307"/>
      <point x="163" y="327" type="curve"/>
      <point x="118" y="236"/>
      <point x="163" y="327"/>
    </contour>
    <contour>
      <point x="210" y="0" type="curve"/>
      <point x="210" y="241"/>
      <point x="210" y="481"/>
      <point x="210" y="722" type="curve"/>
      <point x="65" y="722"/>
      <point x="210" y="722"/>
      <point x="65" y="722" type="curve"/>
      <point x="65" y="481"/>
      <point x="65" y="241"/>
      <point x="65" y="0" type="curve"/>
      <point x="210" y="0"/>
      <point x="65" y="0"/>
    </contour>
  </outline>
</glyph>
<glyph name="germandbls" format="1">
  <advance width="564"/>
  <unicode hex="00DF"/>
  <outline>
    <contour>
      <point x="199" y="0" type="curve"/>
      <point x="199" y="196"/>
      <point x="199" y="391"/>
      <point x="199" y="587" type="curve"/>
      <point x="54" y="587"/>
      <point x="199" y="587"/>
      <point x="54" y="587" type="curve"/>
      <point x="54" y="391"/>
      <point x="54" y="196"/>
      <point x="54" y="0" type="curve"/>
      <point x="199" y="0"/>
      <point x="54" y="0"/>
    </contour>
    <contour>
      <point x="199" y="587" type="curve"/>
      <point x="199" y="643"/>
      <point x="224" y="684"/>
      <point x="278" y="684" type="curve"/>
      <point x="335" y="684"/>
      <point x="371" y="652"/>
      <point x="371" y="591" type="curve"/>
      <point x="371" y="529"/>
      <point x="329" y="496"/>
      <point x="265" y="496" type="curve"/>
      <point x="265" y="402"/>
      <point x="265" y="496"/>
      <point x="265" y="402" type="curve"/>
      <point x="406" y="402"/>
      <point x="510" y="465"/>
      <point x="510" y="597" type="curve"/>
      <point x="510" y="725"/>
      <point x="419" y="795"/>
      <point x="286" y="795" type="curve"/>
      <point x="147" y="795"/>
      <point x="54" y="720"/>
      <point x="54" y="587" type="curve"/>
      <point x="199" y="587"/>
      <point x="54" y="587"/>
    </contour>
    <contour>
      <point x="366" y="75" type="curve"/>
      <point x="473" y="100"/>
      <point x="539" y="167"/>
      <point x="539" y="287" type="curve"/>
      <point x="539" y="427"/>
      <point x="429" y="496"/>
      <point x="265" y="496" type="curve"/>
      <point x="265" y="402"/>
      <point x="265" y="496"/>
      <point x="265" y="402" type="curve"/>
      <point x="338" y="402"/>
      <point x="401" y="363"/>
      <point x="401" y="287" type="curve"/>
      <point x="401" y="231"/>
      <point x="369" y="199"/>
      <point x="325" y="186" type="curve"/>
      <point x="366" y="75"/>
      <point x="325" y="186"/>
    </contour>
  </outline>
</glyph>
